<svg width="29" height="28" viewBox="0 0 29 28" fill="none" xmlns="http://www.w3.org/2000/svg">
<path d="M28.805 24.4826L24.4353 14.4726C24.2804 14.1007 23.9395 13.8218 23.5366 13.7598L21.5222 13.3879C22.018 11.7144 22.3589 10.041 22.6379 8.33647C22.6379 8.27449 22.6379 8.21251 22.6379 8.18152C22.6069 3.65689 18.95 0 14.4563 0C10.0867 0 6.49176 3.47095 6.33681 7.84062C6.33681 8.11953 6.33681 8.36746 6.39879 8.64637C6.64671 10.2579 6.95662 11.8384 7.3595 13.3879L5.43808 13.7598C5.0352 13.8218 4.6943 14.1007 4.53935 14.4726L0.107697 24.4826C-0.171218 25.1024 0.107697 25.8462 0.7585 26.1251C0.975434 26.218 1.22336 26.249 1.47128 26.218L8.56813 25.0404L13.8985 27.8605C14.2704 28.0465 14.7043 28.0465 15.0762 27.8605L20.4065 25.0404L27.5034 26.218C28.1852 26.342 28.836 25.8771 28.929 25.1954C28.9599 24.9474 28.929 24.6995 28.805 24.4826ZM14.4563 2.47925C17.5554 2.47925 20.0656 4.98949 20.1276 8.05755C19.7867 10.4128 19.1669 12.7371 18.3302 14.9685C17.5244 17.0138 16.1918 19.4311 14.4563 19.4311C11.9771 19.4311 9.86973 15.2474 8.81605 8.2435C8.78506 8.15053 8.78506 8.02656 8.78506 7.93359C8.90903 4.86552 11.4193 2.44826 14.4563 2.47925ZM20.3755 22.4682C20.0966 22.4372 19.8177 22.4682 19.6008 22.5921L14.4873 25.3193L9.34289 22.6231C9.09497 22.4992 8.81605 22.4372 8.53714 22.4992L3.29973 23.3669L6.52275 16.0841L8.10327 15.7742C9.93172 20.6707 12.442 21.9103 14.4563 21.9103C16.9976 21.9103 19.1049 19.834 20.6855 15.7742L22.3899 16.1151L25.582 23.3979L20.3755 22.4682Z" fill="black"/>
<path d="M14.4562 11.9933C16.2536 11.9933 17.7102 10.5367 17.7102 8.73924C17.7102 6.94179 16.2536 5.48523 14.4562 5.48523C12.6587 5.48523 11.2021 6.94179 11.2021 8.73924C11.2021 9.11113 11.2641 9.48302 11.3881 9.82391C11.853 11.1255 13.0926 11.9933 14.4562 11.9933ZM13.5574 8.30537C13.8054 7.80952 14.3942 7.59259 14.921 7.84051C15.4169 8.08844 15.6338 8.67726 15.3859 9.2041C15.138 9.73094 14.5491 9.91688 14.0223 9.66896C13.7744 9.545 13.5884 9.35905 13.4955 9.08014C13.4335 8.80122 13.4335 8.52231 13.5574 8.30537Z" fill="black"/>
</svg>
