<svg width="28" height="28" viewBox="0 0 28 28" fill="none" xmlns="http://www.w3.org/2000/svg">
<path d="M14 0C6.27051 0 0 6.27051 0 14C0 21.7295 6.27051 28 14 28C21.7295 28 28 21.7295 28 14C28.031 6.27051 21.7605 0 14 0ZM11.8581 14.0621C10.0887 12.8514 9.62306 10.4612 10.8027 8.6918C11.9823 6.92239 14.4035 6.42572 16.173 7.60532C17.9424 8.78492 18.439 11.2062 17.2594 12.9756C16.98 13.4102 16.6075 13.7827 16.173 14.0621C15.6763 14.4035 15.5521 15.0554 15.8936 15.5521C16.0488 15.8004 16.2971 15.9557 16.5765 16.0177C18.0044 16.2971 19.2461 18.8115 19.2461 21.5432V24.2129C15.9867 25.8891 12.1064 25.8891 8.84701 24.2129V21.5432C8.84701 18.3149 9.68515 16.6696 11.6408 15.9867C12.1996 15.8004 12.4789 15.1796 12.2927 14.6208C12.1996 14.3725 12.0754 14.1863 11.8581 14.0621ZM7.76053 23.6851C7.72949 23.6851 7.72949 23.6541 7.69845 23.6541C7.72949 23.6541 7.72949 23.6541 7.76053 23.6541V23.6851ZM21.6985 22.5987V21.4812C21.6985 19.153 20.8914 16.1419 19.0599 14.6208C21.1707 11.9512 20.7051 8.07095 18.0355 5.96009C15.3659 3.84922 11.4856 4.3459 9.37472 7.01552C7.60532 9.25055 7.60532 12.4169 9.37472 14.6519C7.01552 16.3902 6.73614 19.3703 6.73614 21.5122V22.6608C6.67406 22.7228 6.64302 22.7849 6.61197 22.847C1.73836 18.7184 1.08647 11.4545 5.18404 6.58093C9.2816 1.70732 16.5765 1.08647 21.4191 5.18404C26.2616 9.2816 26.9446 16.5455 22.847 21.4191C22.4745 21.8537 22.102 22.2572 21.6985 22.5987Z" fill="black"/>
</svg>
