<svg width="23" height="28" viewBox="0 0 23 28" fill="none" xmlns="http://www.w3.org/2000/svg">
<path d="M22.5925 22.2249L19.4928 17.6993V10.57C19.4928 6.57138 16.5791 3.1927 12.6115 2.60376V1.20889C12.6115 0.557948 12.0845 0 11.4026 0C10.7516 0 10.1937 0.526951 10.1937 1.20889V2.60376C6.25705 3.1927 3.31233 6.60238 3.31233 10.57V17.6993L0.21262 22.2249C-0.159345 22.7829 -0.0353565 23.5268 0.522591 23.8988C0.708574 24.0227 0.95655 24.1157 1.20453 24.1157H7.24896C7.37295 26.4095 9.32577 28.1454 11.6196 27.9904C13.6964 27.8664 15.3702 26.1925 15.4942 24.1157H21.5386C22.1896 24.1157 22.7475 23.5888 22.7475 22.9069C22.8095 22.6589 22.7475 22.4109 22.5925 22.2249ZM11.4336 4.89754C14.5643 4.89754 17.106 7.4393 17.106 10.57V16.8934H5.7611V10.57C5.7611 7.4393 8.30286 4.89754 11.4336 4.89754ZM12.9834 24.6117C12.5805 25.4796 11.5266 25.8206 10.6586 25.4176C10.2557 25.2316 9.91471 24.8597 9.79072 24.4257C9.75973 24.3017 9.72873 24.2087 9.69773 24.0847H13.1074C13.1074 24.2707 13.0764 24.4567 12.9834 24.6117ZM3.52931 21.698L5.17216 19.2802H17.664L19.3068 21.698H3.52931Z" fill="black"/>
</svg>
