<svg width="22" height="29" viewBox="0 0 22 29" fill="none" xmlns="http://www.w3.org/2000/svg">
<path fill-rule="evenodd" clip-rule="evenodd" d="M10.9982 0.750065C8.34196 0.740572 5.78646 1.76613 3.87367 3.60926C1.96082 5.45245 0.841196 7.9683 0.752269 10.6232L0.752237 10.6242C0.742527 10.9552 0.764445 11.2863 0.817691 11.6132C1.8578 18.5074 3.50293 22.7135 5.33815 25.2014C7.18261 27.7018 9.21973 28.4656 10.9976 28.4656C12.735 28.4656 14.2984 27.6835 15.6732 26.1723C17.0432 24.6662 18.2333 22.4297 19.2438 19.4923L19.2445 19.4902C20.1487 16.7875 20.8153 14.011 21.2369 11.1923L21.2374 11.1887C21.2458 11.1267 21.25 11.0641 21.25 11.0016V11.0012C21.2467 8.28328 20.1655 5.67764 18.2435 3.75587C16.3216 1.83417 13.716 0.753201 10.9982 0.750065ZM5.84282 5.57705C7.25967 4.23029 9.14722 3.49135 11.1018 3.51823C13.0564 3.54511 14.9229 4.33568 16.3022 5.72089C17.6771 7.10173 18.4591 8.96418 18.4823 10.9122C18.2027 12.8952 17.4264 16.6163 16.152 19.8396C15.5124 21.4573 14.7533 22.9342 13.8792 24.0023C13.003 25.0729 12.042 25.6972 10.9976 25.6972C9.43217 25.6972 7.92107 24.4373 6.60991 21.9242C5.30657 19.4261 4.24462 15.7665 3.5487 11.15L3.54871 11.15L3.54831 11.1475C3.52574 11.0074 3.51629 10.8655 3.5201 10.7237C3.59264 8.7707 4.42627 6.92353 5.84282 5.57705ZM13.1377 7.31576C12.11 6.82015 10.9422 6.6962 9.8334 6.96502C8.72444 7.23386 7.74301 7.87893 7.05636 8.79029C6.36971 9.70166 6.02032 10.8229 6.06774 11.963C6.11515 13.1031 6.55644 14.1915 7.31639 15.0427C8.07635 15.8939 9.10795 16.4553 10.2354 16.6311C11.3629 16.8069 12.5164 16.5864 13.4995 16.007C14.4825 15.4276 15.2343 14.5253 15.6266 13.4538C16.0189 12.3825 16.0276 11.2084 15.6513 10.1314C15.4393 9.51914 15.1079 8.95502 14.6764 8.47169C14.2449 7.98845 13.722 7.59556 13.1377 7.31576ZM9.89804 9.89578C10.2666 9.67841 10.6913 9.5752 11.1184 9.59921C11.5456 9.62322 11.9561 9.77337 12.2979 10.0307C12.6397 10.2879 12.8975 10.6407 13.0388 11.0445C13.2272 11.5861 13.1933 12.1802 12.9445 12.6969C12.6957 13.2135 12.2523 13.6104 11.7114 13.8008C11.3076 13.9421 10.871 13.9605 10.4568 13.8536C10.0425 13.7468 9.66921 13.5195 9.38411 13.2005C9.099 12.8814 8.91491 12.485 8.8551 12.0614C8.79529 11.6377 8.86245 11.2059 9.04809 10.8204C9.23373 10.4349 9.52952 10.1131 9.89804 9.89578Z" fill="#15923B"/>
</svg>
