<svg width="26" height="26" viewBox="0 0 26 26" fill="none" xmlns="http://www.w3.org/2000/svg">
<path d="M12.9999 0C5.82259 0 0 5.82262 0 13C0 20.1774 5.82259 26 12.9999 26C20.1773 26 25.9999 20.1774 25.9999 13C26.0287 5.82262 20.2061 0 12.9999 0ZM11.011 13.0577C9.36803 11.9335 8.93566 9.71397 10.031 8.07095C11.1263 6.42794 13.3747 5.96674 15.0177 7.06208C16.6607 8.15743 17.1219 10.4058 16.0265 12.0488C15.7671 12.4523 15.4212 12.7982 15.0177 13.0577C14.5565 13.3747 14.4412 13.98 14.7583 14.4412C14.9024 14.6718 15.133 14.816 15.3924 14.8736C16.7183 15.133 17.8713 17.4679 17.8713 20.0044V22.4834C14.8447 24.0399 11.2416 24.0399 8.21504 22.4834V20.0044C8.21504 17.0067 8.99331 15.4789 10.8093 14.8448C11.3281 14.6718 11.5875 14.0953 11.4146 13.5765C11.3281 13.3459 11.2128 13.1729 11.011 13.0577ZM7.20618 21.9934C7.17735 21.9934 7.17735 21.9645 7.14853 21.9645C7.17735 21.9645 7.17735 21.9645 7.20618 21.9645V21.9934ZM20.1485 20.9845V19.9468C20.1485 17.7849 19.399 14.9889 17.6984 13.5765C19.6585 11.0976 19.2261 7.49446 16.7472 5.53437C14.2682 3.57428 10.6651 4.03548 8.70506 6.51441C7.06206 8.5898 7.06206 11.5299 8.70506 13.6053C6.51439 15.2195 6.25496 17.9867 6.25496 19.9756V21.0421C6.19731 21.0998 6.16849 21.1574 6.13966 21.2151C1.61418 17.3814 1.00887 10.6364 4.81373 6.11087C8.61859 1.58537 15.3924 1.00887 19.8891 4.81375C24.3857 8.61863 25.0199 15.3636 21.215 19.8891C20.8691 20.2927 20.5232 20.6674 20.1485 20.9845Z" fill="#15923B"/>
</svg>
