<svg xmlns="http://www.w3.org/2000/svg" viewBox="0 0 669.145 669.145"><defs><style>.cls-1{fill:#5e3619;}.cls-2{fill:#efefef;}</style></defs><title> アセット 120</title><g id="レイヤー_2" data-name="レイヤー 2"><g id="レイヤー_1-2" data-name="レイヤー 1"><circle class="cls-1" cx="334.573" cy="334.573" r="334.573"/><path class="cls-2" d="M118.477,270.551c9.1,0,16.275,1.178,20.879,3.534,6.424,3.212,10.814,9.636,10.814,15.738,0,11.886-6.638,18.309-20.129,19.381v.427c14.883,1.714,23.02,8.567,23.02,19.38,0,10.279-5.568,17.989-15.1,20.879-4.6,1.392-11.67,2.034-22.913,2.034H74.793v-5.246c9.85-.428,12.206-2.463,11.885-10.386V285.969c.321-8.03-1.82-9.85-11.885-10.171v-5.247Zm-4.6,36.19c13.062,0,19.165-5.139,19.165-16.06a12.519,12.519,0,0,0-5.139-10.6c-2.677-1.928-7.924-3.32-12.1-3.32h-4.069c-7.173.322-9.315,2.677-8.887,9.958v20.022Zm-11.029,29.016c-.214,7.28,1.928,9.85,8.887,9.957h4.6c4.6,0,10.493-1.82,13.277-4.069,3.747-3.1,5.46-7.066,5.46-12.847,0-9.958-7.708-15.847-20.771-15.847H102.845Z"/><path class="cls-2" d="M211.41,268.945,235.393,331.8c4.069,10.706,7.388,14.132,14.669,14.989v5.139H210.018v-5.246c7.067,0,10.064-1.392,10.064-4.818,0-1.606-.428-3.212-1.927-7.5l-3.319-9.422H186.462l-1.391,4.175c-2.677,8.031-3,9.315-3,10.814,0,3.962,3.533,6.21,11.028,6.853v5.139H160.445v-5.032c8.993-2.141,12.848-6.317,17.559-19.059l21.307-58.888Zm-23.02,49.573h24.626l-12.634-34.69Z"/><path class="cls-2" d="M292.028,270.551V275.8c-8.565.535-10.706,2.462-10.385,10.171v23.77l25.375-25.161c1.927-1.928,2.463-3,2.356-4.926-.107-2.141-3.212-3.747-7.709-3.854v-5.247h33.3v5.14c-8.352,1.392-13.385,3.961-18.631,9.315l-.963.963-15.526,15.419,26.554,36.3c4.711,6.424,7.388,8.351,12.955,9.1v5.139h-37.26v-5.246c4.39,0,6.424-.964,6.317-3.105a9.958,9.958,0,0,0-1.82-3.962l-18.523-26.982-6.424,6v17.667c-.429,7.6,2.034,9.958,10.814,10.386v5.246H253.376v-5.246c9.851-.428,12.206-2.463,11.885-10.386V285.969c.321-8.03-1.82-9.85-11.885-10.171v-5.247Z"/><path class="cls-2" d="M410.55,270.551l1.606,25.7h-4.5c-2.676-13.7-9.957-19.7-23.127-19.487h-5.139c-6.853.107-8.887,2.57-8.566,9.744v20.45h6.318c10.492-.107,14.454-3.534,14.989-12.955h4.925v32.549h-4.925c-.428-9.316-4.711-13.17-14.989-13.384h-6.318v22.806c-.321,7.281,1.928,9.85,8.566,9.743h5.139c14.455.214,22.7-6.424,25.7-20.771h4.5l-2.034,26.981H342.668v-5.46c10.064-.322,12.1-2.142,11.885-10.172V285.969c.321-8.03-1.821-9.85-11.885-10.171v-5.247Z"/><path class="cls-2" d="M465.794,270.551c9.315,0,16.167.857,20.985,2.677A18.453,18.453,0,0,1,499.2,291.109c0,11.67-8.994,19.807-21.95,19.807h-.535v.429c10.6,1.713,11.457,2.569,20.878,22.591,1.179,2.356,1.285,2.784,1.928,3.963a13.948,13.948,0,0,0,11.242,8.672v5.353H485.5C475,321.2,470.077,314.45,457.871,314.343h-5.139v21.949c-.322,7.923,2.034,10.065,11.884,10.386v5.246H424.572v-5.246c9.851-.428,12.206-2.463,11.885-10.386V285.969c.321-8.03-1.82-9.85-11.885-10.171v-5.247Zm-5.14,37.581c13.6,0,20.772-5.674,20.772-16.381,0-4.926-1.606-8.887-4.6-11.242a20.061,20.061,0,0,0-11.456-3.748H461.3c-6.853.107-8.887,2.463-8.565,10.172v21.2Z"/><path class="cls-2" d="M551.016,270.551V275.8c-6.959.107-9.85,1.285-9.85,4.176,0,1.82.964,3.961,3.1,7.066l14.776,20.985,11.028-15.738c3.533-5.14,5.246-8.78,5.246-11.564,0-2.891-4.068-4.711-11.242-4.925v-5.247h31.907v5.033c-6.745,1.713-8.994,3.747-19.273,17.987l-14.882,21.307v21.628c-.322,8.137,1.927,9.958,12.313,10.172v5.246H533.136v-5.246c10.493-.321,12.527-2.035,12.313-10.172V315.52L527.033,288c-6.21-9.315-8.566-11.243-14.668-12.313v-5.14Z"/><path class="cls-2" d="M167.3,409.737v5.139H141.6v-5.139Z"/><path class="cls-2" d="M195.369,386.61v3.148c-5.139.321-6.424,1.477-6.231,6.1v14.261l15.225-15.1c1.156-1.156,1.478-1.8,1.413-2.955-.064-1.285-1.927-2.248-4.625-2.312V386.61H221.13v3.083c-5.011.835-8.03,2.377-11.178,5.589l-.578.579-9.315,9.25,15.932,21.779c2.827,3.854,4.433,5.01,7.773,5.46v3.084H201.408v-3.149c2.634,0,3.854-.577,3.79-1.863a5.982,5.982,0,0,0-1.092-2.377l-11.114-16.188-3.854,3.6v10.6c-.257,4.562,1.22,5.974,6.488,6.231v3.149H172.178v-3.149c5.91-.257,7.324-1.477,7.131-6.231V395.861c.193-4.819-1.092-5.911-7.131-6.1V386.61Z"/><path class="cls-2" d="M254.919,385.646l14.39,37.71c2.441,6.424,4.433,8.48,8.8,8.994v3.084H254.083v-3.149c4.24,0,6.039-.834,6.039-2.891,0-.963-.256-1.926-1.156-4.5l-1.992-5.653H239.95l-.835,2.5c-1.606,4.818-1.8,5.589-1.8,6.489,0,2.377,2.12,3.726,6.616,4.111v3.084H224.34v-3.02c5.4-1.284,7.709-3.79,10.535-11.435l12.785-35.333ZM241.107,415.39h14.776L248.3,394.576Z"/><path class="cls-2" d="M298.407,386.61,311,416.675l12.27-30.065h17.923v3.148c-5.717.192-7,1.349-6.809,6.1v30.321c-.193,4.819,1.156,5.975,7.131,6.1v3.149H317.487v-3.149c6.039-.192,7.259-1.284,7.131-6.1V394.255h-.192L309.457,430.68h-3.148l-15.546-37.261h-.193v29.552c-.064,6.68,1.991,9.314,7.131,9.314v3.149H279.649v-3.149c4.818.065,6.874-2.826,6.809-9.314v-27.11c.193-4.176-1.348-5.718-6.3-6.168V386.61Z"/><path class="cls-2" d="M373.439,385.646l14.39,37.71c2.442,6.424,4.433,8.48,8.8,8.994v3.084H372.6v-3.149c4.24,0,6.039-.834,6.039-2.891,0-.963-.257-1.926-1.156-4.5l-1.992-5.653H358.471l-.835,2.5c-1.606,4.818-1.8,5.589-1.8,6.489,0,2.377,2.12,3.726,6.617,4.111v3.084H342.86v-3.02c5.4-1.284,7.709-3.79,10.536-11.435l12.784-35.333ZM359.627,415.39H374.4l-7.581-20.814Z"/><path class="cls-2" d="M442.432,386.61l1.028,17.152h-2.827c-1.156-7.387-6.809-13.105-12.977-13.169h-1.991v35.589c-.193,4.883,1.156,5.975,7.388,6.1v3.149H408.384v-3.149c6.295-.192,7.516-1.22,7.388-6.1V390.593H413.78c-6.167.064-11.82,5.782-12.977,13.169h-2.826l1.028-17.152Z"/><path class="cls-2" d="M475.257,385.646l14.391,37.71c2.441,6.424,4.432,8.48,8.8,8.994v3.084H474.422v-3.149c4.24,0,6.039-.834,6.039-2.891,0-.963-.257-1.926-1.156-4.5l-1.992-5.653H460.289l-.835,2.5c-1.606,4.818-1.8,5.589-1.8,6.489,0,2.377,2.12,3.726,6.617,4.111v3.084H444.678v-3.02c5.4-1.284,7.709-3.79,10.536-11.435L468,385.646ZM461.446,415.39h14.775l-7.581-20.814Z"/><path class="cls-2" d="M527.676,409.737v5.139h-25.7v-5.139Z"/></g></g></svg>