<svg xmlns="http://www.w3.org/2000/svg" viewBox="0 0 1346.174 275.624"><defs><style>.cls-1{fill:#fff;}.cls-2{fill:#178c42;}.cls-3{fill:#231815;}</style></defs><title> アセット 310</title><g id="レイヤー_2" data-name="レイヤー 2"><g id="レイヤー_1-2" data-name="レイヤー 1"><polygon class="cls-1" points="14.452 44.689 148.771 6.675 191.221 24.415 195.656 102.979 66.405 258.206 25.223 245.534 4.948 227.794 14.452 44.689"/><path class="cls-2" d="M205.935,30.2c-.09-6.387-4.632-12.184-14.71-18.782a70.154,70.154,0,0,0-8.14-4.347l-.458-.22c-.043-.021-.086-.04-.13-.057C173.023,3,171.272,2.372,165.343,1.157A51.214,51.214,0,0,0,149.154.3c-.135.019-2.791.42-3.269.54L6.362,34.13a8.117,8.117,0,0,0-1.272.435c-.111.048-.218.1-.39.194a7.879,7.879,0,0,0-.753.411c-.127.078-.247.163-.426.293-.222.159-.436.324-.635.5-.13.114-.254.231-.387.362-.184.184-.36.374-.52.566-.11.132-.217.262-.33.413-.159.217-.3.442-.466.712-.077.125-.152.25-.224.389-.13.249-.24.508-.378.851-.052.12-.1.241-.135.342a8.03,8.03,0,0,0-.26.991c-.008.029-.019.073-.03.121a1.827,1.827,0,0,0-.042.192,8.479,8.479,0,0,0-.108,1.242c0,.051-.006.1-.006.145L.492,234.564c0,3.37,3.33,9.772,5.447,11.263L47.516,274.24c.111.072.225.136.375.214s.289.166.452.25a8.289,8.289,0,0,0,.8.352c.134.054.268.106.411.152a9.485,9.485,0,0,0,.941.24c.1.024.21.049.334.069a8.7,8.7,0,0,0,1.3.107,1.371,1.371,0,0,0,.364-.038,8.567,8.567,0,0,0,1.585-.192c.052-.01.1-.021.153-.034,5.405-1.5,132.459-36.7,140.645-39.939,4.745-1.878,9.222-8.925,9.581-15.079.793-13.537,1.464-182.7,1.491-189.908C205.951,30.371,205.944,30.28,205.935,30.2ZM185.729,28.4C166.965,33.2,63.475,59.547,53.339,62.128L28.62,45.946,153.138,16.673c4.9-.858,20.071,3.591,28,8.233A21.947,21.947,0,0,1,185.729,28.4ZM43.929,75.592l-.184,176.077-26.112-18.39L16.827,57.85Z"/><path class="cls-1" d="M121.822,85.035A52.919,52.919,0,0,0,68.9,137.953c0,.352.02.7.026,1.048.011.457.013.908.035,1.373v0c.047,1.037.12,2.067.225,3.088,2.9,29.53,44.958,73.868,52.633,73.868,7.248,0,46.655-40.314,51.829-68.655a52.955,52.955,0,0,0-51.829-63.644Zm0,76.38a23.462,23.462,0,1,1,23.461-23.462A23.462,23.462,0,0,1,121.822,161.415Z"/><path class="cls-3" d="M1345.168,173.757a3.453,3.453,0,0,0-2.447-1.017H1292.5l-.8-.805V147.557l.8-.8h46.1a3.453,3.453,0,0,0,3.453-3.453V126.516a3.453,3.453,0,0,0-3.453-3.453h-46.192l-.8-.7,0-1.707V103.416l.8-.8h50.231a3.453,3.453,0,0,0,3.453-3.453V82.378a3.453,3.453,0,0,0-3.453-3.453h-78.644a3.454,3.454,0,0,0-3.453,3.453V193.232a3.454,3.454,0,0,0,3.453,3.453h78.656a3.452,3.452,0,0,0,3.453-3.439l.071-17.038A3.457,3.457,0,0,0,1345.168,173.757Z"/><path class="cls-3" d="M381.646,141.119a33.35,33.35,0,0,0-17.1-9.251l-.121-.141a29.438,29.438,0,0,0,11.666-9.988,27.736,27.736,0,0,0,1.349-28.317l-.044-.079a23.405,23.405,0,0,0-10.2-9.3,43.8,43.8,0,0,0-12.9-4.163c-.053-.008-.107-.015-.161-.021a158.3,158.3,0,0,0-20.613-.926h-42.4a3.454,3.454,0,0,0-3.453,3.453V193.239a3.454,3.454,0,0,0,3.453,3.453h47.9q.906.019,1.812.019a84.823,84.823,0,0,0,19.194-2.194l.1-.025a43.945,43.945,0,0,0,15.338-7.473,31.93,31.93,0,0,0,9.547-11.247,33.341,33.341,0,0,0,3.593-15.269l0-.065a26.75,26.75,0,0,0-6.843-19.193Q381.708,141.181,381.646,141.119ZM347.687,118.8l-.037.078a8.958,8.958,0,0,1-4.984,4.258c-.07.024-.138.05-.206.079a20.741,20.741,0,0,1-7.4,1.612l-.118.006c-3.336.22-7.377.22-12.057.22h-3.249l-.805-.805V102.462l.8-.8h15.074a23.7,23.7,0,0,1,7.813,1.322c.049.017.1.033.145.047a8.224,8.224,0,0,1,4.817,3.827l.026.047a12.237,12.237,0,0,1,1.353,5.493A15.692,15.692,0,0,1,347.687,118.8Zm-28.6,54.392V147.046l.8-.8,17.8,0,.486,0a37.876,37.876,0,0,1,8.919,1.058c.028.008.057.013.086.02a12.246,12.246,0,0,1,6.893,4.228l.069.1a13.721,13.721,0,0,1,2,8.026c0,.086-.007.172-.006.259a14.569,14.569,0,0,1-1.726,7.107l-.035.063a11.59,11.59,0,0,1-6,4.9c-.048.017-.1.036-.144.055A26.224,26.224,0,0,1,338.462,174H319.89Z"/><path class="cls-3" d="M458.458,76.494h-.02c-18.654.108-33.566,5.714-44.322,16.663s-16.2,26.044-16.2,44.859c-.085,18.526,5.3,33.5,16.012,44.512s25.7,16.6,44.518,16.6l.543,0c18.528,0,33.325-5.531,43.978-16.441,10.752-11.009,16.2-26.038,16.2-44.669,0-18.929-5.464-34.078-16.239-45.024S477.188,76.494,458.458,76.494Zm-25.827,79.07a56.671,56.671,0,0,1-2.38-17.461c0-.058,0-.115,0-.173a58.336,58.336,0,0,1,2.222-17.783,32.722,32.722,0,0,1,6.309-11.91,25.226,25.226,0,0,1,9-6.5,27.394,27.394,0,0,1,10.307-2.007h.287a27.731,27.731,0,0,1,10.534,2.069,23.191,23.191,0,0,1,8.956,6.615,33.953,33.953,0,0,1,6.293,11.672,57.147,57.147,0,0,1,2.411,17.609c0,.043,0,.086,0,.128a60.261,60.261,0,0,1-2.094,16.79,34.152,34.152,0,0,1-6.3,12.347,23.457,23.457,0,0,1-8.8,6.94,27.775,27.775,0,0,1-21.523-.019,23.55,23.55,0,0,1-8.927-6.615A34.137,34.137,0,0,1,432.631,155.564Z"/><path class="cls-3" d="M591.163,76.494c-18.762,0-33.729,5.552-44.486,16.5s-16.205,26.038-16.205,44.863c.043,18.63,5.494,33.658,16.2,44.668s25.687,16.6,44.488,16.6l.543,0c18.527,0,33.323-5.531,43.976-16.441,10.752-11.009,16.2-26.038,16.2-44.669,0-18.93-5.453-34.078-16.2-45.023S609.946,76.494,591.163,76.494ZM565.512,155.4a57.5,57.5,0,0,1-2.5-17.3c0-.032,0-.064,0-.095a57.212,57.212,0,0,1,2.51-17.863,32.109,32.109,0,0,1,6.278-11.874,24.839,24.839,0,0,1,8.77-6.371,27.4,27.4,0,0,1,10.3-2.006h.293a27.736,27.736,0,0,1,10.532,2.068,23.476,23.476,0,0,1,8.958,6.615,33.991,33.991,0,0,1,6.295,11.674,56.312,56.312,0,0,1,2.41,17.6c0,.044,0,.089,0,.134a60.4,60.4,0,0,1-2.094,16.787,34.1,34.1,0,0,1-5.829,11.743,3.44,3.44,0,0,0-.563.556,23.737,23.737,0,0,1-8.613,6.669,27.87,27.87,0,0,1-21.554-.018,23.21,23.21,0,0,1-8.894-6.615A34.156,34.156,0,0,1,565.512,155.4Z"/><path class="cls-3" d="M728.871,134.055l.028-1.11,40.86-48.332a3.453,3.453,0,0,0-2.637-5.682H739.777a3.451,3.451,0,0,0-2.71,1.314l-39.3,49.785-.4-.14V82.384a3.454,3.454,0,0,0-3.453-3.453H669.533a3.454,3.454,0,0,0-3.453,3.453V193.239a3.453,3.453,0,0,0,3.453,3.453h24.379a3.453,3.453,0,0,0,3.453-3.453V158.646l.234-.661,5.55-6.848,1.085.022L737.185,195.3a3.454,3.454,0,0,0,2.767,1.388h29.7a3.453,3.453,0,0,0,2.745-5.547Z"/><path class="cls-3" d="M898.379,86.682a44.414,44.414,0,0,0-13.692-5.853,80.149,80.149,0,0,0-17.418-1.918c-.482,0-.964,0-1.436.014H819.2a3.453,3.453,0,0,0-3.453,3.453V193.232a3.453,3.453,0,0,0,3.453,3.453h24.377a3.453,3.453,0,0,0,3.453-3.453V159.541l.8-.805h17.326a56.879,56.879,0,0,0,21.4-3.53l.114-.045A47.449,47.449,0,0,0,902.4,144.608a34.58,34.58,0,0,0,8-12.789,44.666,44.666,0,0,0,2.763-15.537,37.977,37.977,0,0,0-3.788-17.53A31.4,31.4,0,0,0,898.379,86.682Zm-17.531,30.24v.132a24.514,24.514,0,0,1-1.262,8.227,14.016,14.016,0,0,1-4.024,5.7,17.7,17.7,0,0,1-8,3.59,71.364,71.364,0,0,1-11.456.93c-.353,0-.706,0-1.072-.008h-7.193l-.8-.8v-31.98l.805-.805h3.73c2.814,0,5.26.061,7.472.116,1.634.04,3.088.076,4.367.077h.065a28.268,28.268,0,0,1,8.912,2.033,13.881,13.881,0,0,1,5.924,4.76A13.255,13.255,0,0,1,880.848,116.922Z"/><path class="cls-3" d="M1007.717,172.9H958l-.8-.805V82.378a3.453,3.453,0,0,0-3.453-3.453H929.331a3.453,3.453,0,0,0-3.453,3.453V193.232a3.453,3.453,0,0,0,3.453,3.453h78.386a3.453,3.453,0,0,0,3.453-3.453V176.353A3.453,3.453,0,0,0,1007.717,172.9Z"/><path class="cls-3" d="M1098.783,81.181a3.451,3.451,0,0,0-3.239-2.256H1064.9a3.451,3.451,0,0,0-3.238,2.256L1020.7,192.035a3.454,3.454,0,0,0,3.239,4.65h24.215a3.453,3.453,0,0,0,3.264-2.329l7.093-20.607.874-.623h40.9l.874.623,7.092,20.607a3.454,3.454,0,0,0,3.265,2.329h24.953a3.453,3.453,0,0,0,3.239-4.649Zm-18.721,30.871,12.949,37.656-.608.851h-25.131l-.607-.851,12.978-37.657Z"/><path class="cls-3" d="M1240.586,160.725a3.454,3.454,0,0,0-3.682.493c-1.077.91-2.373,1.964-3.918,3.19a68.525,68.525,0,0,1-7.029,4.733c-.022.012-.043.025-.064.038a41.889,41.889,0,0,1-9.727,4.39,36.6,36.6,0,0,1-10.679,1.607,37.272,37.272,0,0,1-11.386-1.83,28.122,28.122,0,0,1-10.4-5.98,31.372,31.372,0,0,1-7.635-11.311,46.717,46.717,0,0,1-3.165-18c0-.053,0-.107,0-.16a48.046,48.046,0,0,1,2.818-17.5,31.92,31.92,0,0,1,7.316-11.559,28.749,28.749,0,0,1,10.344-6.459,35.9,35.9,0,0,1,11.706-1.954l.609,0A32.875,32.875,0,0,1,1215.729,102a53.345,53.345,0,0,1,9.217,4.18,67.834,67.834,0,0,1,7.475,5.028c1.456,1.071,2.861,2.179,4.3,3.385a3.453,3.453,0,0,0,5.675-2.642V88.666a3.453,3.453,0,0,0-1.981-3.123c-1.966-.926-4.049-1.848-5.827-2.628l-.082-.034a78.293,78.293,0,0,0-9.693-3.231,90.288,90.288,0,0,0-11-2.163,93.645,93.645,0,0,0-12.513-.843l-1.033,0a69.532,69.532,0,0,0-24.541,4.461,52,52,0,0,0-19.051,12.107,54.235,54.235,0,0,0-12.194,19.459,73.33,73.33,0,0,0-4.169,25.38,73.689,73.689,0,0,0,4.364,26.292,49.91,49.91,0,0,0,31.542,30.734,72.52,72.52,0,0,0,23.448,3.882l.717,0q.932.021,1.86.02a85.97,85.97,0,0,0,12.254-.876l.11-.018a104.666,104.666,0,0,0,10.767-2.514,68.927,68.927,0,0,0,8.446-3.01l6.707-2.944a3.452,3.452,0,0,0,2.065-3.162v-22.6A3.455,3.455,0,0,0,1240.586,160.725Z"/></g></g></svg>