<svg xmlns="http://www.w3.org/2000/svg" viewBox="0 0 748.264 748.264"><defs><style>.cls-1{fill:#6293ab;}.cls-2{isolation:isolate;}.cls-3{fill:#fff;}</style></defs><title> アセット 150</title><g id="レイヤー_2" data-name="レイヤー 2"><g id="レイヤー_1-2" data-name="レイヤー 1"><circle class="cls-1" cx="374.132" cy="374.132" r="374.132"/><g class="cls-2"><path id="パス_21" data-name="パス 21" class="cls-3" d="M197.319,292.05s-10.5-79.707,83.974-91.5c0,0,25.117-69.4,104.106-69.4,39.057,0,74.1,16.946,104.134,56.856,0,0,65.272-22.26,98.373,37.39,22.846,49.639-13.087,83.28-13.087,83.28s18.132,45.776-18.746,81.626c-30.694,29.846-91.262,8.244-91.262,8.244s-87.406,71.147-156.95-12.352c0,0-92.05,6.9-105.285-62.576,0,0-36.058,12.037-78.979-35.588C123.6,288.025,145.274,302.926,197.319,292.05Z"/><path class="cls-3" d="M387.161,433.253c-25.353,0-55.01-9.125-82.182-40.433a161.962,161.962,0,0,1-46.56-5.618c-32.388-9.138-53.269-28.451-60.767-56.065-13.385,1.486-44.3-.4-78.877-38.766l.016-.014a3.555,3.555,0,0,1-.318-.348,6.491,6.491,0,0,1,8.783-9.347c.982.608,20.083,11.907,63.232,4.108-.236-11.08,1.447-35.173,17.883-56.445,14.839-19.206,37.822-31.208,68.36-35.706a125.176,125.176,0,0,1,22.243-33.2c15.616-16.773,43.287-36.769,86.425-36.769a123.475,123.475,0,0,1,58.49,14.218c17.443,9.25,33.611,23.263,48.108,41.687a107.014,107.014,0,0,1,34.907-2.695c20.221,1.869,48.2,11.086,66.678,44.378.079.142.152.288.22.435,12.787,27.784,8.207,50.944,2.114,65.479A83,83,0,0,1,582.19,310.3a91.594,91.594,0,0,1,3.576,25.771A81.041,81.041,0,0,1,560.6,394.951c-13.944,13.559-35.467,19.482-62.235,17.126a163.2,163.2,0,0,1-32.329-6.315c-7.1,5.175-26.61,18.092-52.1,24.226A114.669,114.669,0,0,1,387.161,433.253ZM307.856,379.7a6.5,6.5,0,0,1,4.993,2.336c27.026,32.451,59.877,44.37,97.64,35.428,28.85-6.831,50.019-23.791,50.23-23.962a6.5,6.5,0,0,1,6.272-1.074c.564.2,57.152,19.866,84.557-6.784,33.206-32.281,17.9-72.885,17.23-74.6a6.514,6.514,0,0,1,1.605-7.113c1.306-1.239,32.053-31.126,11.728-75.606-12.624-22.616-31.6-35.243-56.4-37.536a91.243,91.243,0,0,0-34.081,3.353,6.49,6.49,0,0,1-7.281-2.24c-27.484-36.517-59.85-54.268-98.948-54.268-30.883,0-56.764,10.98-76.923,32.634C293.4,186.464,287.454,202.6,287.4,202.757a6.494,6.494,0,0,1-5.3,4.233c-28.782,3.593-50.1,14.071-63.353,31.142-18.455,23.766-15.025,52.8-14.988,53.086a6.506,6.506,0,0,1-5.109,7.186c-21.3,4.45-38.077,4.769-50.67,3.365,10.442,7.834,21.121,13.048,31.6,15.357,12.773,2.816,20.917.338,21,.312a6.45,6.45,0,0,1,8.377,4.96c4.972,26.1,22.695,43.671,52.675,52.22a148.8,148.8,0,0,0,45.754,5.1C307.54,379.705,307.7,379.7,307.856,379.7Z"/></g><g class="cls-2"><path class="cls-3" d="M130.324,494.754c-7.1.355-6.566-7.719-.621-7.985,5.058-.178,11.269-.355,17.657-.444a89.014,89.014,0,0,0,.71-11.712c-.089-6.743,9.406-6.034,9.317.354a74.65,74.65,0,0,1-.887,11.27c3.638,0,7.1,0,10.2.088,6.921.177,11.889,3.815,11.712,11-.266,8.962-1.952,21.827-5.679,28.482-5.5,9.76-17.48,12.511-26.175,5.323-4.525-3.726.177-11.445,5.679-7.275,4.791,3.638,9.316,2.041,12.422-2.484,3.46-5.147,4.791-17.392,4.88-22a4.793,4.793,0,0,0-4.88-5.236c-2.751-.089-6.122,0-9.672,0-3.726,16.149-12.244,33.718-28.038,42.325-5.679,3.105-11.269-4.259-4.171-8.075,12.157-6.566,19.61-20.052,23.07-34.161C140.262,494.311,134.761,494.577,130.324,494.754Z"/><path class="cls-3" d="M254.539,520.664a5.23,5.23,0,0,1-1.686,7.1,4.385,4.385,0,0,1-6.477-1.509c-3.194-5.057-13.753-14.2-20.94-17.568-4.881-2.307-.622-9.937,5.589-6.743a94.16,94.16,0,0,1,11,6.565,130.62,130.62,0,0,0,18.278-14.2c1.154-1.153,1.863-3.018-.8-3.018-11.091-.087-32.741.267-46.495.8-6.655.267-7.276-8.784-.088-8.962,13.93-.265,35.758-.709,50.487-.443,7.985.089,13.753,6.832,8.34,12.955-5.323,6.122-14.551,13.486-22.448,18.633A27.684,27.684,0,0,1,254.539,520.664Z"/><path class="cls-3" d="M305.019,536.546c-7.1,2.75-10.559-5.589-3.815-7.808,12.244-4.081,22.093-11.712,29.635-20.231a38.809,38.809,0,0,0-9.316-4.258c-4.969-1.331-2.662-8.873,3.549-7.1a58.75,58.75,0,0,1,11.18,4.614,87.151,87.151,0,0,0,7.453-12.688c1.686-3.638,1.331-4.082-.976-3.993-3.549.088-12.688.976-15.7,1.331-6.211,8.163-14.374,17.48-20.319,21.65-5.945,4.081-11.18-3.638-5.146-7.364,8.607-5.324,20.5-20.32,23.691-27.95,3.105-7.542,12.244-2.041,9.139,3.105q-.666,1.065-1.6,2.4c4.347-.355,9.228-.8,13.486-.976,9.14-.267,10.737,6.122,7.276,12.422-3.283,5.945-6.566,11.446-10.026,16.5a33.508,33.508,0,0,1,6.389,5.59,4.808,4.808,0,0,1-.178,6.743,4.26,4.26,0,0,1-6.3-.266,50.621,50.621,0,0,0-5.324-4.792C330.218,522.97,320.28,530.69,305.019,536.546Z"/><path class="cls-3" d="M396.492,494.754c-7.1.355-6.566-7.719-.621-7.985,5.058-.178,11.269-.355,17.657-.444a89.014,89.014,0,0,0,.71-11.712c-.089-6.743,9.406-6.034,9.317.354a74.65,74.65,0,0,1-.887,11.27c3.638,0,7.1,0,10.2.088,6.921.177,11.889,3.815,11.712,11-.266,8.962-1.952,21.827-5.679,28.482-5.5,9.76-17.48,12.511-26.175,5.323-4.525-3.726.177-11.445,5.679-7.275,4.791,3.638,9.316,2.041,12.422-2.484,3.46-5.147,4.791-17.392,4.88-22a4.793,4.793,0,0,0-4.88-5.236c-2.751-.089-6.122,0-9.672,0-3.726,16.149-12.244,33.718-28.038,42.325-5.679,3.105-11.269-4.259-4.171-8.075,12.156-6.566,19.61-20.052,23.07-34.161C406.43,494.311,400.929,494.577,396.492,494.754Z"/><path class="cls-3" d="M487.433,526.609c19.61-6.212,31.233-22.36,35.226-35.4.71-2.4.444-4.615-2.84-4.7-8.695-.265-22.714.267-35.491.71a4.4,4.4,0,1,1-.178-8.784c11.712-.532,28.305-.621,39.574-.443,7.187.088,12.244,5.5,9.671,12.776-6.211,17.746-17.036,34.96-41.88,44.454C483.973,538.054,480.689,528.738,487.433,526.609Z"/><path class="cls-3" d="M580.681,506.644a3.591,3.591,0,0,1-3.726-3.815,3.681,3.681,0,0,1,3.9-3.727c8.518.178,19.787.267,29.459-.266a3.6,3.6,0,0,1,4.081,3.727,3.694,3.694,0,0,1-3.9,3.815c-3.016.088-6.921.266-10.913.355,0,5.058.088,11.357.088,15.439,6.921-.088,13.753-.088,19.255-.088,5.235,0,5.235,8.074-.71,7.985-13.842-.267-32.475-.178-44.809.178-6.033.176-5.678-7.631,0-7.72,4.88-.089,11.358-.178,18.19-.267.089-4.613.089-11.623.089-15.438C587.336,506.822,583.254,506.733,580.681,506.644Z"/></g><path class="cls-3" d="M235.114,605.039a3.379,3.379,0,0,1-2.34-1.08c-1.74-1.8-8.879-9.541-11.459-12.541a1.469,1.469,0,0,0-1.2-.419c-1.38,0-1.38.36-1.38,4.379,0,1.321.06,3.241.18,6.6a2.833,2.833,0,0,1-3.06,3.06,2.962,2.962,0,0,1-3.18-2.941v-.119c.18-6.24.3-15.24.3-23.4,0-6.72-.06-12.84-.18-16.44-.06-1.62,1.26-2.76,3.3-2.76,1.56,0,3.12.84,3.12,2.7v.119c-.18,6.6-.24,22.079-.24,22.079a.923.923,0,0,0,.96.841c.9,0,1.14-.181,12.48-9.241a3.332,3.332,0,0,1,1.92-.719,3.588,3.588,0,0,1,3.3,3.54,2.772,2.772,0,0,1-1.2,2.34c-3.539,2.519-6.18,4.379-9.359,6.479-.42.24-.6.481-.6.66,0,.24.18.48.48.781,3.06,3.059,9.059,8.458,10.679,10.2a3.524,3.524,0,0,1,1.02,2.4A3.617,3.617,0,0,1,235.114,605.039Z"/><path class="cls-3" d="M265.114,603.779a7.142,7.142,0,0,1-1.62-1.981.32.32,0,0,0-.24-.179.517.517,0,0,0-.36.179c-2.04,2.34-5.82,3.6-9.36,3.6-6.6,0-10.5-4.8-10.5-9.419,0-3.061,1.8-6.12,5.82-7.5a64.929,64.929,0,0,1,10.259-2.64c.6-.06,1.08-.78,1.08-2.04,0-.719-.18-3.78-4.26-3.78a7.943,7.943,0,0,0-5.88,2.521,2.911,2.911,0,0,1-2.219,1.08,2.818,2.818,0,0,1-2.88-2.76c0-2.881,5.279-6.061,11.339-6.061,6.6,0,10.2,3.241,10.2,10.14,0,.78-.06,1.5-.12,2.34a46.905,46.905,0,0,0-.3,4.98,9.312,9.312,0,0,0,.06,1.38c.54,4.8,2.76,4.98,3.24,5.34a2.51,2.51,0,0,1,.96,2.1c0,1.679-1.32,3.6-3.061,3.6A3.515,3.515,0,0,1,265.114,603.779Zm-5.52-12.9c-10.14,1.26-10.739,3.78-10.739,5.22,0,1.86,1.619,3.72,4.679,3.72,4.86,0,6.96-2.46,6.96-6.72,0-.9-.12-2.22-.84-2.22Z"/><path class="cls-3" d="M310.232,601.979c.061-2.341.061-6.66.061-10.32,0-2.7,0-5.039-.061-6.06-.179-3.54-2.04-4.979-4.2-4.979a7.71,7.71,0,0,0-7.14,7.139c-.06.96-.06,2.1-.06,3.48,0,2.58.06,6.059.18,10.74v.119a2.945,2.945,0,0,1-3,3.061,2.87,2.87,0,0,1-2.88-3.12v-.06c.06-2.341.06-6.66.06-10.32,0-2.7,0-5.039-.06-6.06-.24-3.6-2.1-5.04-4.2-5.04-3.12,0-6.84,3.061-7.02,7.2-.06.96-.06,2.1-.06,3.48,0,2.58.06,6.059.18,10.74a2.85,2.85,0,0,1-2.94,3.239,3.023,3.023,0,0,1-3.06-3.179v-.121c.18-6.419.24-10.619.24-14.519,0-3-.06-5.88-.12-9.359v-.121a2.857,2.857,0,0,1,3-2.879,2.923,2.923,0,0,1,3,3,.726.726,0,0,0,.06.3c.059,0,.18-.12.24-.179a9.594,9.594,0,0,1,7.2-3.241,8.674,8.674,0,0,1,8.1,5.46,10.831,10.831,0,0,1,9.06-5.4c4.739,0,9.119,3.6,9.3,10.14.06,2.1.12,7.259.12,11.638,0,1.981,0,3.781-.06,5.1-.06,2.279-1.5,3.359-3,3.359a3,3,0,0,1-2.94-3.179Z"/><path class="cls-3" d="M345.752,603.779a7.142,7.142,0,0,1-1.62-1.981.318.318,0,0,0-.239-.179.517.517,0,0,0-.361.179c-2.039,2.34-5.819,3.6-9.359,3.6-6.6,0-10.5-4.8-10.5-9.419,0-3.061,1.8-6.12,5.82-7.5a64.984,64.984,0,0,1,10.259-2.64c.6-.06,1.081-.78,1.081-2.04,0-.719-.181-3.78-4.26-3.78a7.943,7.943,0,0,0-5.88,2.521,2.912,2.912,0,0,1-2.22,1.08,2.819,2.819,0,0,1-2.88-2.76c0-2.881,5.28-6.061,11.34-6.061,6.6,0,10.2,3.241,10.2,10.14,0,.78-.06,1.5-.12,2.34a47.176,47.176,0,0,0-.3,4.98,9.312,9.312,0,0,0,.06,1.38c.541,4.8,2.76,4.98,3.24,5.34a2.51,2.51,0,0,1,.96,2.1c0,1.679-1.32,3.6-3.06,3.6A3.515,3.515,0,0,1,345.752,603.779Zm-5.52-12.9c-10.139,1.26-10.739,3.78-10.739,5.22,0,1.86,1.62,3.72,4.68,3.72,4.86,0,6.96-2.46,6.96-6.72,0-.9-.12-2.22-.84-2.22Z"/><path class="cls-3" d="M365.732,581.1c-.9,0-.9.3-.9.66,0,2.22-.18,7.32-.18,11.28,0,4.679.18,6.6,3.54,6.6a11.7,11.7,0,0,0,1.38-.119c.18,0,.3-.06.48-.06a2.57,2.57,0,0,1,2.58,2.639c0,2.16-1.98,3.181-5.1,3.181-8.88,0-8.88-7.861-8.88-10.32,0-3.48.12-9.48.12-12.12v-.9c0-.779-.359-.84-.959-.84h-1.8a2.725,2.725,0,0,1-2.7-2.88,2.624,2.624,0,0,1,2.7-2.759h1.739c.96,0,1.02-.18,1.02-1.02,0,0,.061-1.2.061-2.58,0-.72,0-1.441-.061-2.1v-.18a2.726,2.726,0,0,1,3-2.7c3.18,0,3.18,2.88,3.18,3.66,0,1.62-.12,3.9-.12,3.9,0,.96.24,1.02.84,1.02h4.02a2.593,2.593,0,0,1,2.64,2.82,2.623,2.623,0,0,1-2.64,2.819Z"/><path class="cls-3" d="M399.272,603.779a7.126,7.126,0,0,1-1.621-1.981.318.318,0,0,0-.239-.179.515.515,0,0,0-.36.179c-2.04,2.34-5.82,3.6-9.36,3.6-6.6,0-10.5-4.8-10.5-9.419,0-3.061,1.8-6.12,5.82-7.5a64.96,64.96,0,0,1,10.26-2.64c.6-.06,1.08-.78,1.08-2.04,0-.719-.18-3.78-4.26-3.78a7.943,7.943,0,0,0-5.88,2.521,2.912,2.912,0,0,1-2.22,1.08,2.819,2.819,0,0,1-2.88-2.76c0-2.881,5.28-6.061,11.34-6.061,6.6,0,10.2,3.241,10.2,10.14,0,.78-.06,1.5-.12,2.34a46.905,46.905,0,0,0-.3,4.98,9.161,9.161,0,0,0,.061,1.38c.54,4.8,2.759,4.98,3.239,5.34a2.51,2.51,0,0,1,.96,2.1c0,1.679-1.32,3.6-3.06,3.6A3.513,3.513,0,0,1,399.272,603.779Zm-5.521-12.9c-10.139,1.26-10.739,3.78-10.739,5.22,0,1.86,1.62,3.72,4.68,3.72,4.86,0,6.959-2.46,6.959-6.72,0-.9-.119-2.22-.839-2.22Z"/><path class="cls-3" d="M440.31,605.279c-10.919,0-15-8.521-15-14.94,0-8.1,5.759-15.479,15.179-15.479,6.42,0,10.8,3.779,10.8,6.239a3.141,3.141,0,0,1-5.7,1.8,6.946,6.946,0,0,0-5.46-2.279c-5.1,0-8.759,3.96-8.759,9.419,0,1.32.6,9.3,8.879,9.3a7.916,7.916,0,0,0,6.36-2.759,3.026,3.026,0,0,1,2.46-1.321,3.405,3.405,0,0,1,3.36,3.181C452.43,601.018,447.33,605.279,440.31,605.279Z"/><path class="cls-3" d="M479.129,603.779a7.142,7.142,0,0,1-1.62-1.981.318.318,0,0,0-.239-.179.517.517,0,0,0-.361.179c-2.039,2.34-5.819,3.6-9.359,3.6-6.6,0-10.5-4.8-10.5-9.419,0-3.061,1.8-6.12,5.82-7.5a64.957,64.957,0,0,1,10.259-2.64c.6-.06,1.081-.78,1.081-2.04,0-.719-.181-3.78-4.26-3.78a7.943,7.943,0,0,0-5.88,2.521,2.912,2.912,0,0,1-2.22,1.08,2.819,2.819,0,0,1-2.88-2.76c0-2.881,5.28-6.061,11.34-6.061,6.6,0,10.2,3.241,10.2,10.14,0,.78-.06,1.5-.12,2.34a47.176,47.176,0,0,0-.3,4.98,9.312,9.312,0,0,0,.06,1.38c.54,4.8,2.76,4.98,3.24,5.34a2.51,2.51,0,0,1,.96,2.1c0,1.679-1.32,3.6-3.06,3.6A3.515,3.515,0,0,1,479.129,603.779Zm-5.52-12.9c-10.139,1.26-10.739,3.78-10.739,5.22,0,1.86,1.62,3.72,4.68,3.72,4.86,0,6.96-2.46,6.96-6.72,0-.9-.12-2.22-.841-2.22Z"/><path class="cls-3" d="M499.589,581.219c-.6,0-.78,0-.78.96,0,0,.12,12.6.12,17.64v1.8a3.112,3.112,0,0,1-3.24,3.239,2.893,2.893,0,0,1-3-3v-.24c.061-.96.061-3.42.061-6.3,0-5.76-.061-13.14-.061-13.14,0-.84-.06-.96-1.02-.96h-2.1a2.654,2.654,0,0,1-2.7-2.88,2.739,2.739,0,0,1,2.7-2.939h2.161c.6,0,.959,0,.959-.78,0-.6-.06-1.26-.06-2.821,0-11.579,9.24-12.359,10.86-12.359,2.1,0,3.72.66,3.72,2.88a2.866,2.866,0,0,1-2.88,3h-.66c-4.8,0-4.92,5.22-4.92,7.14,0,1.02,0,1.56.06,2.339,0,.6.42.6.84.6h4.62a2.918,2.918,0,0,1,0,5.819Z"/><path class="cls-3" d="M525.089,605.4c-8.219,0-14.339-6.18-14.339-15.119,0-9.18,6.48-15.48,14.219-15.48,8.28,0,12.96,6.061,12.96,10.62,0,2.82-1.86,5.1-5.7,5.22-1.86.06-3.12.06-14.76.06-.36,0-.48.48-.48,1.14a7.9,7.9,0,0,0,8.16,7.98,10.106,10.106,0,0,0,7.8-3.66,2.727,2.727,0,0,1,2.04-.96,3.272,3.272,0,0,1,3.179,3.12,2.864,2.864,0,0,1-.9,2.1C534.389,603.418,531.149,605.4,525.089,605.4Zm6.6-21c0-.84-1.26-4.38-6.66-4.38-4.86,0-7.5,4.2-7.5,5.22,0,.54.6.54,6.18.54,2.46,0,5.16,0,6.78-.06A1.269,1.269,0,0,0,531.689,584.4Z"/></g></g></svg>