<svg width="60" height="60" viewBox="0 0 60 60" fill="none" xmlns="http://www.w3.org/2000/svg">
<circle cx="30" cy="30" r="30" fill="#15923B"/>
<path fill-rule="evenodd" clip-rule="evenodd" d="M19.7844 18.7412C20.4796 18.0698 21.5875 18.0891 22.2589 18.7844L41.0146 38.2065C41.686 38.9018 41.6667 40.0096 40.9714 40.681C40.2762 41.3524 39.1683 41.3331 38.4969 40.6378L19.7412 21.2157C19.0698 20.5204 19.0891 19.4126 19.7844 18.7412Z" fill="#F8F8F8"/>
<path fill-rule="evenodd" clip-rule="evenodd" d="M41.2156 18.7412C41.9109 19.4126 41.9302 20.5204 41.2588 21.2157L22.503 40.6378C21.8317 41.3331 20.7238 41.3524 20.0286 40.681C19.3333 40.0096 19.314 38.9018 19.9854 38.2065L38.7411 18.7844C39.4125 18.0891 40.5204 18.0698 41.2156 18.7412Z" fill="#F8F8F8"/>
</svg>
