<svg width="466" height="472" viewBox="0 0 466 472" fill="none" xmlns="http://www.w3.org/2000/svg">
<path d="M461.811 250.368L423.757 318.091H53.8389L78.9009 249.305L461.811 250.368Z" fill="white" stroke="#707070" stroke-width="7.5" stroke-linecap="round" stroke-linejoin="round"/>
<path d="M423.758 318.091H53.8389V425.311H423.758V318.091Z" fill="white" stroke="#707070" stroke-width="7.5" stroke-linecap="round" stroke-linejoin="round"/>
<path d="M423.758 425.311V318.091L461.812 250.368V357.588L423.758 425.311Z" fill="white" stroke="#707070" stroke-width="7.5" stroke-linecap="round" stroke-linejoin="round"/>
<path opacity="0.4" d="M461.811 250.368L423.757 318.091H53.8389L78.9009 249.305L461.811 250.368Z" fill="#4EA329" stroke="#707070" stroke-width="7.5" stroke-linecap="round" stroke-linejoin="round"/>
<path opacity="0.4" d="M423.758 318.091H53.8389V425.311H423.758V318.091Z" fill="#4EA329" stroke="#707070" stroke-width="7.5" stroke-linecap="round" stroke-linejoin="round"/>
<path opacity="0.4" d="M423.758 425.311V318.091L461.812 250.368V357.588L423.758 425.311Z" fill="#4EA329" stroke="#707070" stroke-width="7.5" stroke-linecap="round" stroke-linejoin="round"/>
<path d="M461.811 250.368L423.757 318.091H53.8389L78.9009 249.305L461.811 250.368Z" stroke="#1A1311" stroke-width="7.5" stroke-linecap="round" stroke-linejoin="round"/>
<path d="M423.758 318.091H53.8389V425.311H423.758V318.091Z" stroke="#1A1311" stroke-width="7.5" stroke-linecap="round" stroke-linejoin="round"/>
<path d="M423.758 425.311V318.091L461.812 250.368V357.588L423.758 425.311Z" stroke="#1A1311" stroke-width="7.5" stroke-linecap="round" stroke-linejoin="round"/>
<path d="M330.023 113.916C330.999 110.134 330.74 106.139 329.282 102.516C334.333 93.6257 336.961 83.5649 336.904 73.34C336.904 44.479 316.928 21.082 292.287 21.082C267.646 21.082 247.67 44.482 247.67 73.34C247.67 102.198 267.646 125.598 292.287 125.598C293.623 125.597 294.958 125.527 296.287 125.387C299.657 128.186 303.864 129.779 308.242 129.914C308.408 130.385 308.603 130.845 308.825 131.293C312.097 137.762 320.402 140.149 327.375 136.623C334.348 133.097 337.35 124.994 334.075 118.523C333.136 116.669 331.742 115.084 330.023 113.916Z" fill="#009944" stroke="#1A1311" stroke-width="7.5" stroke-linecap="round" stroke-linejoin="round"/>
<path d="M222.321 210.871C222.321 161.525 232.234 121.524 291.604 121.524C359.673 121.524 360.883 161.524 360.883 210.871H222.371" fill="#009944"/>
<path d="M222.321 210.871C222.321 161.525 232.234 121.524 291.604 121.524C359.673 121.524 360.883 161.524 360.883 210.871H222.371" stroke="#1A1311" stroke-width="7.5" stroke-linecap="round" stroke-linejoin="round"/>
<path d="M314.464 129.139C316.881 138.718 321.123 147.393 328.508 150.847C338.975 155.747 306.708 171.847 306.708 171.847L281.316 179.075L264.145 152.975L259.016 158.546C259.016 158.546 282.323 114.085 273.371 94.309L311.55 93.645C311.55 93.645 310.475 110.322 313.722 125.91L314.464 129.139Z" fill="white" stroke="#1A1311" stroke-width="7.5" stroke-linecap="round" stroke-linejoin="round"/>
<path d="M256.35 210.871C256.35 210.871 247.25 253.804 240.007 264.226C225.227 285.499 219.893 283.819 214.833 281.382C209.773 278.945 226.554 244.259 229.852 210.872L256.35 210.871Z" fill="white" stroke="#1A1311" stroke-width="7.5" stroke-linecap="round" stroke-linejoin="round"/>
<path d="M330.137 128.06C332.551 146.898 333.569 165.889 333.183 184.877C332.763 203.723 330.137 251.947 330.137 249.885C330.137 247.823 256.208 252.412 254.926 249.278C249.478 235.923 249.459 201.871 249.626 176.497C249.775 154.134 253.261 140.497 255.464 128.675L269.202 123.887C269.202 123.887 266.485 147.871 269.91 151.632C277.937 160.445 307.245 158.074 312.079 153.126C316.913 148.178 320.562 124.766 320.562 124.766L330.137 128.06Z" fill="white" stroke="#1A1311" stroke-width="7.5" stroke-linecap="round" stroke-linejoin="round"/>
<path d="M285.273 169.765H262.759V181.212H285.273V169.765Z" fill="#009944" stroke="#1A1311" stroke-width="7.5" stroke-linecap="round" stroke-linejoin="round"/>
<path d="M360.066 210.852C360.066 210.852 350.066 254.97 342.822 265.679C328.043 287.539 322.708 285.813 317.651 283.308C312.594 280.803 329.371 245.16 332.666 210.851L360.066 210.852Z" fill="white" stroke="#1A1311" stroke-width="7.5" stroke-linecap="round" stroke-linejoin="round"/>
<path d="M293.58 43.634C292.435 46.618 285.157 63.322 266.233 62.519C264.158 67.3586 263.096 72.5716 263.112 77.837C263.112 96.743 276.323 112.069 292.62 112.069C308.917 112.069 322.128 96.743 322.128 77.837C322.128 59.305 309.432 44.224 293.58 43.634Z" fill="white" stroke="#1A1311" stroke-width="7.5" stroke-linecap="round" stroke-linejoin="round"/>
<path d="M308.37 339.056L255.315 344.974L240.47 276.584L293.024 271.008L308.37 339.056Z" fill="#009944" stroke="#1A1311" stroke-width="7.5" stroke-linecap="round" stroke-linejoin="round"/>
<path d="M134.867 286.14C134.061 283.188 138.293 283.921 141.861 283.995C150.149 284.261 158.413 285.041 166.605 286.328C168.984 286.698 171.881 287.428 172.025 289.018C171.931 289.857 171.51 290.625 170.853 291.156C166.426 296.067 163.393 301.667 163.714 307.364C163.706 308.561 164.002 309.74 164.574 310.791C165.146 311.842 165.975 312.731 166.983 313.375C154.445 309.842 141.731 306.608 128.841 303.675C130.761 302.901 132.442 301.633 133.714 300C134.985 298.366 135.803 296.426 136.082 294.375C136.216 291.577 135.803 288.78 134.867 286.14V286.14Z" fill="white" stroke="#1A1311" stroke-width="7.5" stroke-linecap="round" stroke-linejoin="round"/>
<path d="M155.612 293.759C179.846 293.759 199.492 274.113 199.492 249.879C199.492 225.645 179.846 205.999 155.612 205.999C131.378 205.999 111.732 225.645 111.732 249.879C111.732 274.113 131.378 293.759 155.612 293.759Z" fill="white" stroke="#1A1311" stroke-width="7.5" stroke-linecap="round" stroke-linejoin="round"/>
<path d="M185.312 317.432C185.312 317.432 202.902 358.779 213.8 350.663C225.043 342.288 224.159 341.663 233.108 332.02C242.057 322.377 263.808 316.973 261.224 327.301C258.64 337.629 244.736 349.649 236.881 355.856C228.216 362.703 218.827 369.821 211.081 371.556C196.408 374.846 176.311 353.613 166.586 337.671C156.861 321.729 185.312 317.432 185.312 317.432Z" fill="white" stroke="#1A1311" stroke-width="7.5" stroke-linecap="round" stroke-linejoin="round"/>
<path d="M200.536 459.428C208.442 452.185 200.6 357.07 198.732 341.907C196.638 324.906 183.049 304.669 159.93 304.19C140.148 303.781 126.075 299.511 117.256 310.132C102.938 327.378 104.202 376.099 106.219 414.242C106.597 421.391 107.34 448.174 111.245 457.196C115.357 466.702 183.809 474.75 200.536 459.428Z" fill="#009944" stroke="#1A1311" stroke-width="7.5" stroke-linecap="round" stroke-linejoin="round"/>
<path d="M181.382 204.714C170.405 200.605 163.389 193.755 155.594 193.649C152.226 193.851 148.915 194.607 145.794 195.888C134.121 196.457 134.613 199.757 129.969 203.857C128.576 204.757 127.218 205.704 125.917 206.684C123.938 207.769 121.873 208.689 119.743 209.435C113.195 211.829 107.743 222.888 105.32 228.625C101.32 238.114 105.92 243.614 105.692 251.78C105.42 261.115 108.574 262.65 111.486 266.164C114.169 272.011 117.61 277.044 121.128 280.08C130.768 288.401 134.349 288.262 134.349 288.262C159.338 285.483 148.144 236.511 162.978 249.968C171.678 257.862 174.162 268.726 177.927 268.507C180.584 268.354 183.896 254.64 184.916 249.864C186.894 240.601 191.551 247.551 196.865 234.964C202.179 222.377 192.285 208.795 181.382 204.714Z" fill="#009944" stroke="#1A1311" stroke-width="7.5" stroke-linecap="round" stroke-linejoin="round"/>
<path d="M211.853 351.367C221.074 345.212 222.399 341.657 225.582 337.111C227.244 334.741 248.574 347.563 240.508 355.963C239.397 357.12 236.986 358.712 236.023 359.663C227.253 368.38 218.148 379.697 210.052 380.94C194.952 383.26 172.721 363.57 162.837 335.988C156.037 317.025 168.676 303.698 177.879 309.261C189.641 316.374 201.89 358.017 211.853 351.367Z" fill="#009944" stroke="#1A1311" stroke-width="7.5" stroke-linecap="round" stroke-linejoin="round"/>
<path d="M93.2102 40.856C102.475 40.856 111.531 43.6032 119.234 48.7503C126.937 53.8973 132.941 61.213 136.487 69.7723C140.032 78.3316 140.96 87.7499 139.152 96.8364C137.345 105.923 132.883 114.269 126.332 120.82C119.781 127.371 111.435 131.832 102.349 133.64C93.2621 135.447 83.8438 134.52 75.2845 130.974C66.7252 127.429 59.4095 121.425 54.2625 113.722C49.1154 106.019 46.3682 96.9624 46.3682 87.698C46.3682 75.2747 51.3033 63.3602 60.0879 54.5757C68.8724 45.7911 80.7869 40.856 93.2102 40.856V40.856Z" fill="#FFE000" stroke="#1A1311" stroke-width="7"/>
<path d="M93.8914 122.284C113.102 122.284 128.674 106.711 128.674 87.501C128.674 68.2909 113.102 52.718 93.8914 52.718C74.6813 52.718 59.1084 68.2909 59.1084 87.501C59.1084 106.711 74.6813 122.284 93.8914 122.284Z" fill="#FFF500"/>
<path d="M84.0249 110.06C84.0249 111.725 82.836 112.56 81.231 112.56C79.567 112.56 78.438 111.728 78.438 110.004V72.316C78.438 67.739 80.281 65.897 84.501 65.897H97.7009C107.092 65.897 112.383 70.7109 112.383 79.1509C112.383 88.0669 106.915 93.238 97.464 93.238H84.0299L84.0249 110.06ZM97.34 88.246C103.34 88.246 106.553 85.0369 106.553 79.2709C106.553 73.9209 103.284 70.949 97.34 70.949H85.9269C84.6189 70.949 84.027 71.7219 84.027 73.0289V88.2449L97.34 88.246Z" fill="black" stroke="black" stroke-width="3"/>
<path d="M179.553 87.444C179.553 91.722 177.854 95.8249 174.829 98.85C171.804 101.875 167.701 103.575 163.423 103.575V103.575C167.701 103.575 171.804 105.274 174.829 108.299C177.854 111.324 179.554 115.427 179.554 119.705C179.554 115.427 181.253 111.325 184.278 108.3C187.303 105.275 191.405 103.575 195.683 103.575V103.575C193.565 103.575 191.467 103.158 189.51 102.347C187.553 101.536 185.775 100.348 184.277 98.8503C182.779 97.3523 181.591 95.5741 180.78 93.617C179.97 91.6599 179.553 89.5623 179.553 87.444Z" fill="#FFE000" stroke="#1A1311" stroke-width="4" stroke-linecap="round" stroke-linejoin="round"/>
<path d="M24 124.904C24 130.739 21.6822 136.335 17.5564 140.46C13.4306 144.586 7.83476 146.904 2 146.904V146.904C7.83476 146.904 13.4306 149.222 17.5564 153.348C21.6822 157.474 24 163.069 24 168.904C24 166.015 24.5691 163.154 25.6747 160.485C26.7803 157.816 28.4007 155.391 30.4436 153.348C32.4865 151.305 34.9118 149.684 37.5809 148.579C40.2501 147.473 43.1109 146.904 46 146.904V146.904C43.1109 146.904 40.2501 146.335 37.5809 145.229C34.9118 144.124 32.4865 142.503 30.4436 140.46C28.4007 138.418 26.7803 135.992 25.6747 133.323C24.5691 130.654 24 127.793 24 124.904V124.904Z" fill="#FFE000" stroke="#1A1311" stroke-width="4" stroke-linecap="round" stroke-linejoin="round"/>
<path d="M41.8459 0C41.8459 4.71475 39.973 9.23642 36.6392 12.5703C33.3053 15.9041 28.7836 17.777 24.0688 17.777V17.777C28.7836 17.777 33.3053 19.6499 36.6392 22.9838C39.973 26.3176 41.8459 30.8393 41.8459 35.554C41.8459 30.8393 43.7188 26.3176 47.0526 22.9838C50.3864 19.6499 54.9082 17.777 59.6229 17.777V17.777C54.9082 17.777 50.3864 15.9041 47.0526 12.5703C43.7188 9.23642 41.8459 4.71475 41.8459 0V0Z" fill="#FFE000" stroke="#1A1311" stroke-width="4" stroke-linecap="round" stroke-linejoin="round"/>
</svg>
