<svg width="28" height="28" viewBox="0 0 28 28" fill="none" xmlns="http://www.w3.org/2000/svg">
<path fill-rule="evenodd" clip-rule="evenodd" d="M14.0004 0.899902C11.4095 0.899902 8.87671 1.6682 6.72243 3.10765C4.56814 4.5471 2.88908 6.59304 1.89757 8.98675C0.906067 11.3805 0.646643 14.0144 1.15211 16.5556C1.65758 19.0967 2.90523 21.4309 4.7373 23.263C6.56936 25.0951 8.90356 26.3427 11.4447 26.8482C13.9859 27.3537 16.6198 27.0942 19.0135 26.1027C21.4073 25.1112 23.4532 23.4322 24.8926 21.2779C26.3321 19.1236 27.1004 16.5908 27.1004 13.9999V13.9998C27.0964 10.5267 25.715 7.19701 23.2591 4.74117C20.8033 2.28533 17.4736 0.903888 14.0005 0.899902H14.0004ZM12.0267 4.07923C13.9888 3.68898 16.0225 3.88933 17.8706 4.65494C19.7188 5.42055 21.2985 6.71703 22.4098 8.38042C23.5211 10.0438 24.1142 11.9993 24.1141 13.9998C24.1109 16.6812 23.0444 19.2518 21.1483 21.1478C19.2523 23.0439 16.6817 24.1105 14.0003 24.1136C11.9998 24.1137 10.0443 23.5206 8.38092 22.4093C6.71753 21.298 5.42105 19.7183 4.65544 17.8702C3.88983 16.022 3.68948 13.9883 4.07972 12.0262C4.46996 10.0642 5.43328 8.26189 6.84783 6.84734C8.26239 5.43278 10.0647 4.46947 12.0267 4.07923ZM14.0005 5.70142C12.561 5.70302 11.181 6.27552 10.1631 7.29333C9.14525 8.31114 8.57267 9.69113 8.57099 11.1306C8.5682 11.3153 8.60217 11.4987 8.67092 11.6701C8.73967 11.8416 8.84183 11.9976 8.97146 12.1292C9.10108 12.2608 9.25559 12.3654 9.42598 12.4367C9.59637 12.508 9.77925 12.5448 9.96397 12.5448C10.1487 12.5448 10.3316 12.508 10.502 12.4367C10.6724 12.3654 10.8269 12.2608 10.9565 12.1292C11.0861 11.9976 11.1883 11.8416 11.257 11.6701C11.3258 11.4987 11.3597 11.3153 11.357 11.1306C11.3577 10.4297 11.6365 9.75776 12.1321 9.26217C12.6276 8.76658 13.2996 8.48783 14.0005 8.48707C14.7954 8.48707 16.644 8.74465 16.644 11.1306C16.644 12.1297 16.297 12.4076 15.2941 13.0637C14.224 13.7633 12.6076 14.8212 12.6076 17.5175C12.6076 17.8869 12.7544 18.2412 13.0156 18.5024C13.2768 18.7636 13.6311 18.9103 14.0005 18.9103C14.3699 18.9103 14.7241 18.7636 14.9853 18.5024C15.2465 18.2412 15.3933 17.8869 15.3933 17.5175C15.3933 16.3282 15.8697 16.0163 16.8173 15.3959L16.8189 15.3949L16.8189 15.3949C17.8587 14.7147 19.4299 13.6869 19.4299 11.1306C19.4299 7.88319 17.2481 5.70142 14.0005 5.70142ZM13.0156 20.3576C13.2768 20.0964 13.631 19.9497 14.0004 19.9496C14.3698 19.9497 14.724 20.0964 14.9852 20.3576C15.2464 20.6188 15.3931 20.973 15.3932 21.3424V21.5183C15.3932 21.8877 15.2465 22.2419 14.9853 22.5031C14.7241 22.7643 14.3698 22.9111 14.0004 22.9111C13.631 22.9111 13.2767 22.7643 13.0155 22.5031C12.7543 22.2419 12.6076 21.8877 12.6076 21.5183V21.3424C12.6077 20.973 12.7544 20.6188 13.0156 20.3576Z" fill="#15923B"/>
</svg>
