<svg width="28" height="28" viewBox="0 0 28 28" fill="none" xmlns="http://www.w3.org/2000/svg">
<path fill-rule="evenodd" clip-rule="evenodd" d="M14.0004 0.899902C11.4095 0.899902 8.87671 1.6682 6.72243 3.10765C4.56814 4.5471 2.88908 6.59304 1.89757 8.98675C0.906067 11.3805 0.646643 14.0144 1.15211 16.5556C1.65758 19.0967 2.90523 21.4309 4.7373 23.263C6.56936 25.0951 8.90356 26.3427 11.4447 26.8482C13.9859 27.3537 16.6198 27.0942 19.0135 26.1027C21.4073 25.1112 23.4532 23.4322 24.8926 21.2779C26.3321 19.1236 27.1004 16.5908 27.1004 13.9999V13.9998C27.0964 10.5267 25.715 7.19701 23.2591 4.74117C20.8033 2.28533 17.4736 0.903888 14.0005 0.899902H14.0004ZM12.0267 4.07923C13.9888 3.68898 16.0225 3.88933 17.8706 4.65494C19.7188 5.42055 21.2985 6.71703 22.4098 8.38042C23.5211 10.0438 24.1142 11.9993 24.1141 13.9998C24.1109 16.6812 23.0444 19.2518 21.1483 21.1478C19.2523 23.0439 16.6817 24.1105 14.0003 24.1136C11.9998 24.1137 10.0443 23.5206 8.38092 22.4093C6.71753 21.298 5.42105 19.7183 4.65544 17.8702C3.88983 16.022 3.68948 13.9883 4.07972 12.0262C4.46996 10.0642 5.43328 8.26189 6.84783 6.84734C8.26239 5.43278 10.0647 4.46947 12.0267 4.07923ZM14.0009 5.70166C12.5615 5.70326 11.1814 6.27576 10.1636 7.29357C9.14571 8.31137 8.57313 9.69137 8.57145 11.1308C8.56866 11.3155 8.60263 11.4989 8.67138 11.6704C8.74013 11.8418 8.84229 11.9979 8.97192 12.1295C9.10154 12.2611 9.25605 12.3656 9.42644 12.4369C9.59683 12.5083 9.77971 12.545 9.96443 12.545C10.1492 12.545 10.332 12.5083 10.5024 12.4369C10.6728 12.3656 10.8273 12.2611 10.9569 12.1295C11.0866 11.9979 11.1887 11.8418 11.2575 11.6704C11.3262 11.4989 11.3602 11.3155 11.3574 11.1308C11.3582 10.4299 11.6369 9.75799 12.1325 9.26241C12.6281 8.76682 13.3 8.48806 14.0009 8.48731C14.7959 8.48731 16.6444 8.74488 16.6444 11.1308C16.6444 12.1299 16.2975 12.4079 15.2945 13.0639C14.2245 13.7635 12.6081 14.8215 12.6081 17.5178C12.6081 17.8872 12.7548 18.2414 13.016 18.5026C13.2772 18.7638 13.6315 18.9106 14.0009 18.9106C14.3703 18.9106 14.7246 18.7638 14.9858 18.5026C15.247 18.2414 15.3937 17.8872 15.3937 17.5178C15.3937 16.3285 15.8702 16.0165 16.8177 15.3962L16.8193 15.3951L16.8193 15.3951C17.8592 14.7149 19.4304 13.6872 19.4304 11.1308C19.4304 7.88343 17.2486 5.70166 14.0009 5.70166ZM13.0155 20.3577C13.2766 20.0966 13.6309 19.9498 14.0002 19.9497C14.3696 19.9498 14.7238 20.0966 14.985 20.3577C15.2462 20.6189 15.393 20.9732 15.3931 21.3425V21.5184C15.3931 21.8878 15.2463 22.2421 14.9851 22.5033C14.7239 22.7645 14.3696 22.9112 14.0002 22.9112C13.6308 22.9112 13.2766 22.7645 13.0154 22.5033C12.7542 22.2421 12.6074 21.8878 12.6074 21.5184V21.3425C12.6075 20.9732 12.7543 20.6189 13.0155 20.3577Z" fill="#15923B"/>
</svg>
