<svg width="22" height="29" viewBox="0 0 22 29" fill="none" xmlns="http://www.w3.org/2000/svg">
<path fill-rule="evenodd" clip-rule="evenodd" d="M10.9982 0.750065C8.34196 0.740572 5.78646 1.76613 3.87367 3.60926C1.96082 5.45245 0.841196 7.9683 0.752269 10.6232L0.752237 10.6242C0.742527 10.9552 0.764445 11.2863 0.817691 11.6132C1.8578 18.5074 3.50293 22.7135 5.33815 25.2014C7.18261 27.7018 9.21973 28.4656 10.9976 28.4656C12.735 28.4656 14.2984 27.6835 15.6732 26.1723C17.0432 24.6662 18.2333 22.4297 19.2438 19.4923L19.2445 19.4902C20.1487 16.7875 20.8153 14.011 21.2369 11.1923L21.2374 11.1887C21.2458 11.1267 21.25 11.0641 21.25 11.0016V11.0012C21.2467 8.28328 20.1655 5.67764 18.2435 3.75587C16.3216 1.83417 13.716 0.753201 10.9982 0.750065ZM5.84282 5.57705C7.25967 4.23029 9.14722 3.49135 11.1018 3.51823C13.0564 3.54511 14.9229 4.33568 16.3022 5.72089C17.6771 7.10173 18.4591 8.96418 18.4823 10.9122C18.2027 12.8952 17.4264 16.6163 16.152 19.8396C15.5124 21.4573 14.7533 22.9342 13.8792 24.0023C13.003 25.0729 12.042 25.6972 10.9976 25.6972C9.43217 25.6972 7.92107 24.4373 6.60991 21.9242C5.30657 19.4261 4.24462 15.7665 3.5487 11.15L3.54871 11.15L3.54831 11.1475C3.52574 11.0074 3.51629 10.8655 3.5201 10.7237C3.59264 8.7707 4.42627 6.92353 5.84282 5.57705ZM13.138 7.3157C12.1103 6.82009 10.9426 6.69614 9.83371 6.96496C8.72474 7.2338 7.74332 7.87887 7.05667 8.79023C6.37002 9.7016 6.02063 10.8229 6.06804 11.963C6.11546 13.1031 6.55674 14.1914 7.3167 15.0426C8.07665 15.8938 9.10825 16.4552 10.2357 16.631C11.3632 16.8069 12.5167 16.5863 13.4998 16.0069C14.4828 15.4276 15.2346 14.5253 15.6269 13.4538C16.0192 12.3825 16.0279 11.2083 15.6516 10.1313C15.4396 9.51907 15.1082 8.95496 14.6767 8.47163C14.2452 7.98839 13.7223 7.5955 13.138 7.3157ZM9.89834 9.89572C10.2669 9.67835 10.6916 9.57514 11.1187 9.59915C11.5459 9.62316 11.9564 9.77331 12.2982 10.0306C12.64 10.2879 12.8979 10.6407 13.0391 11.0445C13.2275 11.586 13.1936 12.1802 12.9448 12.6968C12.696 13.2134 12.2526 13.6104 11.7117 13.8008C11.3079 13.942 10.8713 13.9604 10.4571 13.8536C10.0428 13.7467 9.66952 13.5194 9.38441 13.2004C9.09931 12.8814 8.91521 12.485 8.8554 12.0613C8.79559 11.6377 8.86275 11.2058 9.0484 10.8203C9.23404 10.4349 9.52982 10.1131 9.89834 9.89572Z" fill="#15923B"/>
</svg>
