<svg width="50" height="50" viewBox="0 0 50 50" fill="none" xmlns="http://www.w3.org/2000/svg">
<circle cx="25" cy="25" r="25" fill="white"/>
<path d="M24.6419 11.2325C21.9585 11.2228 19.3768 12.2588 17.4445 14.1208C15.5121 15.9828 14.3811 18.5243 14.2913 21.2062C14.2817 21.533 14.3034 21.8599 14.356 22.1825C16.5046 36.4258 21.1352 39.415 24.6419 39.415C28.0644 39.415 30.8551 36.3471 32.9363 30.2975C33.8678 27.513 34.5546 24.6525 34.989 21.7486C34.9961 21.6958 34.9996 21.6426 34.9997 21.5893C34.9963 18.8433 33.904 16.2108 31.9622 14.2693C30.0204 12.3277 27.3878 11.2356 24.6419 11.2325V11.2325ZM24.6419 37.066C21.0941 37.066 18.1179 31.371 16.6723 21.7816C16.6463 21.6202 16.6355 21.4567 16.6399 21.2933C16.7173 19.2029 17.6094 17.2256 19.1256 15.7845C20.6418 14.3433 22.6617 13.5525 24.7534 13.5813C26.845 13.61 28.8424 14.456 30.3184 15.9384C31.7944 17.4207 32.6318 19.4217 32.6516 21.5135C32.0733 25.6383 29.416 37.066 24.6419 37.066Z" fill="#15923B" stroke="#15923B" stroke-width="0.5"/>
<path d="M26.7465 18.0058C25.7362 17.5185 24.5881 17.3966 23.498 17.6609C22.4078 17.9252 21.443 18.5593 20.768 19.4552C20.093 20.3511 19.7496 21.4534 19.7962 22.5741C19.8428 23.6949 20.2766 24.7648 21.0237 25.6016C21.7707 26.4383 22.7848 26.9902 23.8932 27.163C25.0015 27.3359 26.1355 27.1191 27.1019 26.5495C28.0682 25.98 28.8072 25.093 29.1929 24.0396C29.5786 22.9863 29.5871 21.8318 29.217 20.7729C29.0086 20.1712 28.683 19.6169 28.2589 19.1419C27.8349 18.667 27.3208 18.2808 26.7465 18.0058V18.0058ZM25.4674 24.7323C25.0009 24.8955 24.4965 24.9168 24.0179 24.7934C23.5393 24.6699 23.108 24.4073 22.7787 24.0388C22.4493 23.6703 22.2367 23.2124 22.1676 22.723C22.0985 22.2335 22.1761 21.7346 22.3905 21.2893C22.605 20.844 22.9467 20.4723 23.3724 20.2212C23.7981 19.9701 24.2887 19.8509 24.7822 19.8786C25.2757 19.9064 25.7498 20.0798 26.1447 20.377C26.5396 20.6743 26.8375 21.0819 27.0007 21.5485C27.2184 22.174 27.1792 22.8604 26.8918 23.4571C26.6045 24.0539 26.0922 24.5124 25.4674 24.7323V24.7323Z" fill="#15923B" stroke="#15923B" stroke-width="0.5"/>
</svg>
