<svg xmlns="http://www.w3.org/2000/svg" viewBox="0 0 205.951 275.624"><defs><style>.cls-1{fill:#fff;}</style></defs><title> アセット 530</title><g id="レイヤー_2" data-name="レイヤー 2"><g id="レイヤー_1-2" data-name="レイヤー 1"><circle class="cls-1" cx="121.822" cy="137.953" r="23.462" transform="translate(-61.867 126.547) rotate(-45)"/><path class="cls-1" d="M205.935,30.2c-.09-6.387-4.632-12.184-14.71-18.782a70.154,70.154,0,0,0-8.14-4.347l-.458-.22c-.043-.021-.086-.04-.13-.057C173.023,3,171.272,2.372,165.343,1.157A51.214,51.214,0,0,0,149.154.3c-.135.019-2.791.42-3.269.54L6.362,34.13a8.117,8.117,0,0,0-1.272.435c-.111.048-.218.1-.39.194a7.879,7.879,0,0,0-.753.411c-.127.078-.247.163-.426.293-.222.159-.436.324-.635.5-.13.114-.254.231-.387.362-.184.184-.36.374-.52.566-.11.132-.217.262-.33.413-.159.217-.3.442-.466.712-.077.125-.152.25-.224.389-.13.249-.24.508-.378.851-.052.12-.1.241-.135.342a8.03,8.03,0,0,0-.26.991c-.008.029-.019.073-.03.121a1.827,1.827,0,0,0-.042.192,8.479,8.479,0,0,0-.108,1.242c0,.051-.006.1-.006.145L.492,234.564c0,3.37,3.33,9.772,5.447,11.263L47.516,274.24c.111.072.225.136.375.214s.289.166.452.25a8.289,8.289,0,0,0,.8.352c.134.054.268.106.411.152a9.485,9.485,0,0,0,.941.24c.1.024.21.049.334.069a8.7,8.7,0,0,0,1.3.107,1.371,1.371,0,0,0,.364-.038,8.567,8.567,0,0,0,1.585-.192c.052-.01.1-.021.153-.034,5.405-1.5,132.459-36.7,140.645-39.939,4.745-1.878,9.222-8.925,9.581-15.079.793-13.537,1.464-182.7,1.491-189.908C205.951,30.371,205.944,30.28,205.935,30.2ZM43.745,251.669l-26.112-18.39L16.827,57.85l27.1,17.742Zm129.907-102.99c-5.175,28.341-44.582,68.654-51.83,68.654-7.675,0-49.731-44.337-52.633-73.867-.1-1.021-.178-2.051-.225-3.088v0c-.022-.465-.024-.916-.035-1.373-.006-.35-.026-.7-.026-1.048a52.919,52.919,0,1,1,104.749,10.726ZM53.339,62.128,28.62,45.946,153.138,16.673c4.9-.858,20.071,3.591,28,8.233a21.947,21.947,0,0,1,4.591,3.5C166.965,33.2,63.475,59.547,53.339,62.128Z"/></g></g></svg>