<svg width="28" height="27" viewBox="0 0 28 27" fill="none" xmlns="http://www.w3.org/2000/svg">
<path fill-rule="evenodd" clip-rule="evenodd" d="M22.9043 13.5658L27.0002 22.9486C27.1164 23.152 27.1455 23.3844 27.1164 23.6168C27.0293 24.2558 26.4193 24.6916 25.7802 24.5754L19.128 23.4715L14.1316 26.115C13.783 26.2893 13.3763 26.2893 13.0277 26.115L8.0313 23.4715L1.3791 24.5754C1.14671 24.6044 0.914319 24.5754 0.710976 24.4882C0.100949 24.2268 -0.160491 23.5296 0.100949 22.9486L4.25494 13.5658C4.40019 13.2172 4.71973 12.9558 5.09736 12.8977L6.89839 12.5491C6.52076 11.0967 6.23027 9.61519 5.99788 8.10464C5.93978 7.8432 5.93978 7.61081 5.93978 7.34937C6.08502 3.25348 9.4547 0 13.5506 0C17.7627 0 21.1905 3.42777 21.2195 7.66891V7.81415C20.9581 9.41184 20.6385 10.9805 20.1737 12.5491L22.0619 12.8977C22.4396 12.9558 22.7591 13.2172 22.9043 13.5658ZM18.8665 7.55271C18.8084 4.67687 16.4555 2.32391 13.5506 2.32391C10.7038 2.29486 8.35084 4.56068 8.23464 7.43652C8.23464 7.52367 8.23464 7.63986 8.26369 7.72701C9.25135 14.2921 11.2267 18.2137 13.5506 18.2137C15.1773 18.2137 16.4264 15.9478 17.1817 14.0306C17.966 11.9391 18.547 9.76043 18.8665 7.55271ZM18.3727 21.1766C18.5761 21.0605 18.8375 21.0314 19.0989 21.0605L23.9791 21.9319L20.9871 15.1054L19.3894 14.7859C17.9079 18.5913 15.9326 20.5376 13.5506 20.5376C11.6624 20.5376 9.30945 19.3756 7.59557 14.7859L6.11407 15.0764L3.09299 21.9029L8.00225 21.0895C8.26369 21.0314 8.52513 21.0895 8.75752 21.2057L13.5796 23.733L18.3727 21.1766ZM16.6003 8.19174C16.6003 9.87657 15.235 11.2419 13.5501 11.2419C12.272 11.2419 11.11 10.4285 10.6743 9.20845C10.5581 8.88891 10.5 8.54032 10.5 8.19174C10.5 6.5069 11.8653 5.1416 13.5501 5.1416C15.235 5.1416 16.6003 6.5069 16.6003 8.19174ZM13.9859 7.34932C13.492 7.11693 12.9401 7.32027 12.7077 7.78505C12.5915 7.98839 12.5915 8.24983 12.6496 8.51127C12.7368 8.77271 12.9111 8.94701 13.1435 9.0632C13.6373 9.29559 14.1892 9.1213 14.4216 8.62747C14.654 8.13364 14.4507 7.58171 13.9859 7.34932Z" fill="#15923B"/>
</svg>
