<svg width="21" height="26" viewBox="0 0 21 26" fill="none" xmlns="http://www.w3.org/2000/svg">
<path d="M20.8352 20.4962L17.9766 16.3226V9.74782C17.9766 6.06023 15.2895 2.94436 11.6305 2.40122V1.11485C11.6305 0.514548 11.1445 0 10.5156 0C9.91532 0 9.40077 0.485962 9.40077 1.11485V2.40122C5.77035 2.94436 3.05468 6.08882 3.05468 9.74782V16.3226L0.196082 20.4962C-0.14695 21.0107 -0.0326063 21.6968 0.481941 22.0398C0.653457 22.1541 0.882145 22.2399 1.11083 22.2399H6.6851C6.79944 24.3553 8.60036 25.9561 10.7157 25.8131C12.631 25.6988 14.1746 24.1552 14.289 22.2399H19.8632C20.4635 22.2399 20.9781 21.7539 20.9781 21.125C21.0353 20.8964 20.9781 20.6677 20.8352 20.4962ZM10.5442 4.51659C13.4314 4.51659 15.7754 6.86064 15.7754 9.74782V15.5794H5.31297V9.74782C5.31297 6.86064 7.65702 4.51659 10.5442 4.51659ZM11.9735 22.6973C11.6019 23.4977 10.63 23.8121 9.82956 23.4405C9.45794 23.269 9.14349 22.926 9.02915 22.5258C9.00056 22.4114 8.97198 22.3257 8.94339 22.2113H12.0879C12.0879 22.3828 12.0593 22.5543 11.9735 22.6973ZM3.25478 20.0102L4.76984 17.7805H16.29L17.805 20.0102H3.25478Z" fill="#15923B"/>
</svg>
