<svg width="22" height="24" viewBox="0 0 22 24" fill="none" xmlns="http://www.w3.org/2000/svg">
<path d="M20.2542 17.7989C20.2105 17.7471 20.1614 17.6997 20.1075 17.6576L16.7507 15.038C16.6672 14.9728 16.573 14.9213 16.4718 14.8857C15.1353 14.4173 14.1135 15.4067 13.4751 16.0742C12.8356 15.5359 11.6362 14.1647 10.5499 12.7023C9.55196 11.4727 8.42373 9.86949 8.04541 9.0797C8.89984 8.68867 10.1871 8.04045 10.1036 6.68081C10.0974 6.57793 10.0732 6.47676 10.0321 6.3815L8.38208 2.55051C8.3559 2.48895 8.32264 2.43035 8.28293 2.37581C8.18808 2.24452 7.3135 1.09119 5.86472 1.00409C4.88238 0.953222 3.96158 1.37637 3.10903 2.2846C1.29778 4.21332 -0.0287415 6.21784 2.07833 11.1844C2.08666 11.2101 2.09553 11.2358 2.1052 11.263C2.18581 11.4611 4.09351 16.1536 8.06099 19.6154C8.09779 19.6478 8.13723 19.6773 8.17895 19.7037C11.5413 22.368 13.7274 23.3523 15.6719 23.3523C16.7513 23.3523 17.7567 23.0484 18.8476 22.5607C20.0029 22.044 20.7015 21.32 20.9267 20.41C21.2593 19.0589 20.3579 17.924 20.2542 17.7989ZM19.0365 19.9866C18.936 20.3977 18.4311 20.6991 18.0246 20.881C16.1908 21.7008 14.6058 22.4097 9.32572 18.202C9.31309 18.1917 9.29885 18.1822 9.28649 18.1725C6.03533 15.2967 4.26198 11.4015 3.96427 10.7078C3.95331 10.6713 3.94039 10.6354 3.92558 10.6002C2.03211 6.21064 3.25707 4.90522 4.55378 3.524C4.84934 3.20721 5.30772 2.8321 5.73601 2.856C6.09388 2.91533 6.41571 3.10021 6.63855 3.37447L8.13811 6.85783C7.99731 7.04513 7.35461 7.33725 7.0929 7.45621C6.92792 7.53046 6.76805 7.60368 6.62162 7.67742C6.46523 7.75557 6.32904 7.8661 6.22297 8.00095C6.1169 8.1358 6.04362 8.29157 6.00847 8.45692C5.93458 8.78064 5.71076 9.76569 8.99093 13.8071C12.1107 18.0116 13.161 18.0921 13.5068 18.1185C13.6827 18.1354 13.8603 18.114 14.0263 18.0559C14.1924 17.9979 14.3425 17.9046 14.4655 17.7832C14.581 17.6707 14.7006 17.5451 14.8237 17.4158C15.0177 17.2103 15.4954 16.7083 15.7249 16.6332L18.7812 19.0183C18.9864 19.3007 19.0771 19.6449 19.0365 19.9866V19.9866Z" fill="#15923B" stroke="#15923B" stroke-width="0.5"/>
</svg>
