<svg xmlns="http://www.w3.org/2000/svg" viewBox="0 0 319.891 373.495"><defs><style>.cls-1{fill:#178c42;}.cls-2{fill:#fff;}</style></defs><title> アセット 330</title><g id="レイヤー_2" data-name="レイヤー 2"><g id="レイヤー_1-2" data-name="レイヤー 1"><path class="cls-1" d="M319.891,159.946A159.946,159.946,0,1,0,138.352,318.435L161.745,372c.01.022.028.039.038.061a2.59,2.59,0,0,0,.336.537c.023.027.049.049.072.075a2.5,2.5,0,0,0,.431.376c.027.019.051.041.079.059a2.475,2.475,0,0,0,.547.252c.05.017.1.032.15.046s.083.029.127.038a2.5,2.5,0,0,0,.46.048c.017,0,.033.007.05.007a2.487,2.487,0,0,0,.512-.053c.053-.011.1-.032.153-.046.034-.01.066-.019.1-.03a2.47,2.47,0,0,0,.587-.271c.012-.008.022-.017.033-.025a2.537,2.537,0,0,0,.487-.425c.012-.015.027-.027.04-.042a2.5,2.5,0,0,0,.35-.559c.008-.018.023-.032.031-.05l24.023-55A159.986,159.986,0,0,0,319.891,159.946Z"/><polygon class="cls-1" points="97.328 94.075 192.339 67.185 222.366 79.734 225.503 135.306 134.078 245.106 104.947 236.143 90.606 223.595 97.328 94.075"/><path class="cls-2" d="M231.468,83.906c-.028-4.339-3.484-8.13-9.815-12.275a51.669,51.669,0,0,0-5.943-3.151h0c-6.737-2.7-7.847-3.083-11.911-3.916a35.079,35.079,0,0,0-11-.591c-.254.036-1.952.3-2.193.36L91.922,87.875a4.609,4.609,0,0,0-.7.24c-.074.032-.143.073-.215.108a4.711,4.711,0,0,0-.425.232c-.079.05-.153.106-.229.16-.12.086-.236.175-.347.272-.072.063-.141.128-.209.2-.1.1-.2.208-.294.319-.06.073-.12.146-.177.222-.087.119-.166.243-.242.37-.048.078-.1.155-.14.237a4.559,4.559,0,0,0-.19.428c-.032.079-.069.155-.1.236a4.766,4.766,0,0,0-.148.573c-.009.046-.025.088-.033.134v0a4.592,4.592,0,0,0-.061.727c0,.013,0,.026,0,.04l.349,136.011c0,2.008,2.171,6.1,3.282,6.885l29.394,20.087c.066.044.137.075.2.115.083.048.165.095.25.138a4.369,4.369,0,0,0,.421.185c.083.032.164.067.249.094a4.7,4.7,0,0,0,.481.122c.074.015.146.036.22.048a4.643,4.643,0,0,0,.716.06h0c.067,0,.133-.022.2-.025a4.638,4.638,0,0,0,.93-.114h.007s93.561-25.913,99.354-28.205c2.878-1.139,5.725-5.627,5.953-9.527.565-9.651,1.052-134.255,1.052-134.255C231.478,83.963,231.469,83.935,231.468,83.906ZM124.6,107.819l-20.517-13.43L195.2,72.971c4.117-.735,15.289,2.815,20.7,5.982a17.415,17.415,0,0,1,4.991,4.334C220.549,83.4,124.6,107.819,124.6,107.819ZM119.353,243,98.274,228.154l-.584-127.2,21.8,14.269Z"/><path class="cls-2" d="M123.981,257.427a6.035,6.035,0,0,1-.917-.075c-.088-.015-.163-.032-.237-.049a6.793,6.793,0,0,1-.665-.17c-.1-.033-.2-.069-.292-.107a6.012,6.012,0,0,1-.569-.25c-.115-.059-.218-.117-.319-.176a3,3,0,0,1-.266-.151l-29.409-20.1c-1.5-1.054-3.855-5.583-3.853-7.966L87.106,92.376c0-.029,0-.066,0-.1a6,6,0,0,1,.076-.878c.008-.046.018-.091.03-.136s.015-.066.022-.086a5.486,5.486,0,0,1,.183-.7c.024-.071.059-.157.095-.242.1-.242.176-.426.268-.6.051-.1.1-.187.158-.275.115-.191.218-.35.33-.5.08-.107.156-.2.233-.292.114-.136.238-.271.368-.4.094-.093.182-.176.274-.256.141-.124.292-.24.449-.353.127-.092.212-.152.3-.207a5.6,5.6,0,0,1,.532-.291c.122-.065.2-.1.276-.137a5.778,5.778,0,0,1,.9-.308L190.3,63.061c.339-.085,2.217-.369,2.313-.382a36.226,36.226,0,0,1,11.452.6c4.194.859,5.432,1.3,12.134,3.983.03.012.061.026.091.041l.324.155a49.615,49.615,0,0,1,5.758,3.075c7.129,4.667,10.342,8.768,10.405,13.285a1.646,1.646,0,0,1,.012.17c-.02,5.095-.494,124.756-1.055,134.332-.254,4.353-3.421,9.337-6.777,10.665-5.791,2.292-95.663,27.192-99.485,28.251-.036.009-.072.018-.109.025a6.129,6.129,0,0,1-1.121.136A1,1,0,0,1,123.981,257.427ZM89.721,92.419l.348,135.963c0,1.645,2.016,5.318,2.728,5.819l29.378,20.077c.019.01.108.053.127.064.066.039.128.075.193.107.088.045.188.086.29.126l.183.07a3.109,3.109,0,0,0,.342.086l.121.028a3.5,3.5,0,0,0,.488.052c.072-.01.167-.022.2-.024a3.384,3.384,0,0,0,.671-.076l.037-.008c2.843-.788,93.559-25.929,99.161-28.145,2.44-.966,4.933-5.043,5.128-8.388.551-9.407,1.035-130.417,1.05-134.107,0-.039-.008-.08-.009-.11,0-.013,0-.025,0-.039-.022-3.576-2.868-7.027-9.223-11.188a47.427,47.427,0,0,0-5.455-2.905l-.3-.143c-6.57-2.63-7.652-3.015-11.647-3.833a33.91,33.91,0,0,0-10.562-.576c-.321.045-1.843.285-2.067.335L92.225,89.147a3.243,3.243,0,0,0-.484.169l-.154.08a2.793,2.793,0,0,0-.3.162l-.111.076c-.147.106-.229.167-.306.234-.056.049-.105.1-.155.146-.067.068-.139.145-.206.226-.05.058-.093.112-.134.167-.055.074-.111.162-.166.253l-.107.179c-.048.094-.091.2-.133.3,0,.012-.046.111-.05.122a2.907,2.907,0,0,0-.125.459c0,.028-.024.1-.034.14a3.375,3.375,0,0,0-.036.481C89.724,92.366,89.723,92.393,89.721,92.419Zm29.632,151.89a1.311,1.311,0,0,1-.753-.239L97.521,229.223a1.306,1.306,0,0,1-.555-1.062l-.584-127.2a1.308,1.308,0,0,1,2.024-1.1l21.8,14.269a1.308,1.308,0,0,1,.592,1.095L120.661,243a1.306,1.306,0,0,1-1.308,1.307ZM99.579,227.474l18.47,13.009.13-124.549-19.17-12.55ZM124.6,109.127a1.305,1.305,0,0,1-.716-.214l-20.516-13.43a1.307,1.307,0,0,1,.417-2.367L194.9,71.7c4.768-.855,16.491,3.1,21.657,6.126a17.883,17.883,0,0,1,5.013,4.25c.109.129.206.245.3.346a1.307,1.307,0,0,1-.575,2.11c-.34.111-67.5,17.211-96.367,24.556A1.266,1.266,0,0,1,124.6,109.127ZM107.35,94.964l17.485,11.446c7.17-1.825,80.374-20.46,93.647-23.854a15.543,15.543,0,0,0-3.248-2.475c-5.608-3.283-16.34-6.43-19.806-5.823Z"/><path class="cls-1" d="M173.277,122.613a37.432,37.432,0,0,0-37.433,37.432c0,.249.014.494.019.742.008.323.009.642.025.971v0c.033.734.084,1.462.159,2.184,2.052,20.888,31.8,52.25,37.23,52.25,5.127,0,33-28.515,36.662-48.563a37.463,37.463,0,0,0-36.662-45.019Zm0,54.028a16.6,16.6,0,1,1,16.6-16.6A16.6,16.6,0,0,1,173.277,176.641Z"/></g></g></svg>