<svg width="52" height="61" viewBox="0 0 52 61" fill="none" xmlns="http://www.w3.org/2000/svg">
<path fill-rule="evenodd" clip-rule="evenodd" d="M51 26C51 38.5389 41.7688 48.9218 29.7317 50.7234C27.8347 54.1007 26.6037 57.6201 26 60.1667C25.3963 57.6201 24.1653 54.1007 22.2683 50.7234C10.2312 48.9218 1 38.5389 1 26C1 12.1929 12.1929 1 26 1C39.8071 1 51 12.1929 51 26Z" fill="#15923B"/>
<path d="M29.7317 50.7234L29.6577 50.2289C29.505 50.2517 29.3714 50.3439 29.2958 50.4785L29.7317 50.7234ZM26 60.1667L25.5135 60.282C25.5669 60.5075 25.7683 60.6667 26 60.6667C26.2317 60.6667 26.4331 60.5075 26.4865 60.282L26 60.1667ZM22.2683 50.7234L22.7042 50.4785C22.6286 50.3439 22.495 50.2517 22.3423 50.2289L22.2683 50.7234ZM29.8057 51.2179C42.084 49.3802 51.5 38.7902 51.5 26H50.5C50.5 38.2877 41.4536 48.4634 29.6577 50.2289L29.8057 51.2179ZM26.4865 60.282C27.0805 57.7763 28.2956 54.3012 30.1676 50.9682L29.2958 50.4785C27.3738 53.9003 26.1269 57.4639 25.5135 60.0513L26.4865 60.282ZM21.8324 50.9682C23.7044 54.3012 24.9195 57.7763 25.5135 60.282L26.4865 60.0513C25.8731 57.4639 24.6262 53.9003 22.7042 50.4785L21.8324 50.9682ZM0.5 26C0.5 38.7902 9.916 49.3802 22.1943 51.2179L22.3423 50.2289C10.5464 48.4634 1.5 38.2877 1.5 26H0.5ZM26 0.5C11.9167 0.5 0.5 11.9167 0.5 26H1.5C1.5 12.469 12.469 1.5 26 1.5V0.5ZM51.5 26C51.5 11.9167 40.0833 0.5 26 0.5V1.5C39.531 1.5 50.5 12.469 50.5 26H51.5Z" fill="#15923B"/>
<g clip-path="url(#clip0)">
<path d="M36.5254 11.7686C36.4706 11.7368 36.4132 11.7019 36.351 11.6697C36.2939 11.64 36.2281 11.6222 36.1656 11.5925C36.1069 11.5646 36.0542 11.5188 35.9915 11.4911C35.9317 11.4646 35.8692 11.4397 35.8063 11.4135C35.7455 11.3883 35.6875 11.3525 35.6243 11.3277C35.5628 11.3036 35.4872 11.314 35.4238 11.2905C35.3616 11.2673 35.3076 11.22 35.2441 11.1976C35.1813 11.1754 35.1116 11.1722 35.048 11.1508C34.9844 11.1295 34.93 11.081 34.8662 11.0605C34.8024 11.0399 34.739 11.0173 34.6751 10.9981C34.6113 10.9788 34.5399 10.9819 34.4759 10.9638C34.4109 10.9454 34.3486 10.9186 34.2845 10.9016C34.2188 10.8842 34.149 10.8871 34.0849 10.8714C34.0188 10.8552 33.9569 10.8262 33.8928 10.8117C33.826 10.7969 33.7597 10.7866 33.6957 10.774C33.6281 10.7607 33.5592 10.7664 33.4953 10.7558C33.4267 10.7445 33.3624 10.7252 33.2987 10.7172C33.2289 10.7084 33.1641 10.6808 33.1012 10.6764C33.0291 10.6714 32.9618 10.6996 32.9006 10.701C32.8343 10.6969 32.7679 10.6983 32.7019 10.7051C32.604 10.7278 32.6029 10.723 32.5051 10.7462C32.4073 10.7694 32.4098 10.7799 32.3121 10.803C32.2144 10.8261 32.2146 10.8273 32.1168 10.8504C32.019 10.8735 32.0172 10.8664 31.9194 10.8895C31.8215 10.9125 31.8223 10.9161 31.7245 10.9392C31.6266 10.9623 31.6228 10.9462 31.5249 10.9693C31.427 10.9924 31.4305 11.0065 31.3325 11.0297C31.2345 11.0528 31.2335 11.0479 31.1354 11.071C31.0374 11.0941 31.038 11.0956 30.9402 11.1189C30.8424 11.1422 30.8466 11.16 30.7488 11.183C30.651 11.2059 30.648 11.1935 30.5501 11.2166C30.4523 11.2397 30.4475 11.2194 30.3497 11.2425C30.2518 11.2657 30.2556 11.2816 30.1577 11.3047C30.0599 11.3278 30.0615 11.3351 29.9637 11.3581C29.8658 11.381 29.8673 11.3875 29.7694 11.4106C29.6715 11.4337 29.6647 11.4049 29.5669 11.428C29.469 11.4512 29.4719 11.4634 29.3739 11.4865C29.2759 11.5096 29.2748 11.504 29.1769 11.5272C29.0789 11.5503 29.0795 11.5525 28.9817 11.5756C28.8839 11.5987 28.8812 11.5874 28.7833 11.6105C28.6854 11.6336 28.693 11.6657 28.5951 11.6889C28.4972 11.712 28.4966 11.7088 28.3986 11.7319C28.3006 11.7551 28.2937 11.7253 28.1959 11.7484C28.098 11.7714 28.102 11.7885 28.0042 11.8116C27.9063 11.8346 27.9019 11.8157 27.804 11.8389C27.7062 11.8622 27.7092 11.8749 27.6113 11.898C27.5134 11.9211 27.5162 11.9329 27.4183 11.956C27.3205 11.9791 27.3224 11.9873 27.2245 12.0105C27.1266 12.0336 27.1211 12.0102 27.0233 12.0333C26.9255 12.0564 26.9283 12.0684 26.8304 12.0915C26.7324 12.1146 26.7303 12.1054 26.6325 12.1285C26.5346 12.1516 26.5371 12.1624 26.4392 12.1855C26.3413 12.2087 26.3427 12.2146 26.2449 12.2378C26.147 12.2609 26.1493 12.2709 26.0515 12.294C25.9536 12.3171 25.9441 12.2769 25.8462 12.3C25.7483 12.3231 25.7547 12.3505 25.6569 12.3736C25.559 12.3967 25.5612 12.4065 25.4634 12.4296C25.3655 12.4527 25.3639 12.446 25.266 12.4693C25.1682 12.4926 25.1639 12.4741 25.066 12.4972C24.9681 12.5203 24.9659 12.511 24.868 12.5342C24.7701 12.5574 24.7726 12.5678 24.6746 12.5909C24.5767 12.614 24.5773 12.6161 24.4793 12.6392C24.3814 12.6623 24.3827 12.6675 24.2848 12.6906C24.1869 12.7137 24.186 12.7099 24.0881 12.733C23.9903 12.7561 23.9887 12.7494 23.8908 12.7724C23.7929 12.7954 23.795 12.8042 23.6972 12.8273C23.5993 12.8504 23.5986 12.8474 23.5009 12.8705C23.4031 12.8935 23.4081 12.9147 23.3103 12.9378C23.2125 12.9609 23.2094 12.9481 23.1116 12.9712C23.0138 12.9943 23.0108 12.982 22.9129 13.0051C22.815 13.0282 22.8134 13.0211 22.7155 13.0443C22.6176 13.0674 22.621 13.0815 22.5231 13.1046C22.4252 13.1277 22.4283 13.1405 22.3305 13.1636C22.2327 13.1867 22.2279 13.1656 22.1298 13.1887C22.0317 13.2118 22.0371 13.2339 21.9391 13.2572C21.8412 13.2805 21.841 13.2792 21.7431 13.3024C21.6453 13.3256 21.6385 13.2967 21.5407 13.3198C21.4428 13.3429 21.4421 13.3396 21.3441 13.3627C21.246 13.3858 21.2516 13.409 21.1537 13.4322C21.0558 13.4553 21.056 13.4559 20.9581 13.479C20.8602 13.5021 20.8625 13.5119 20.7647 13.5352C20.6668 13.5585 20.6588 13.5248 20.5609 13.5479C20.463 13.5711 20.4716 13.6075 20.3737 13.6306C20.2758 13.6537 20.27 13.6291 20.172 13.6522C20.074 13.6754 20.0723 13.6679 19.9744 13.6911C19.8766 13.7142 19.8848 13.7492 19.7868 13.7723C19.6889 13.7954 19.6804 13.7595 19.5825 13.7826C19.4846 13.8057 19.4864 13.8135 19.3884 13.8366C19.2905 13.8597 19.2938 13.8736 19.1959 13.8967C19.0979 13.9199 19.0944 13.905 18.9964 13.9281C18.8984 13.9512 18.9011 13.9623 18.8031 13.9856C18.7052 14.0088 18.706 14.0125 18.6081 14.0356C18.5102 14.0588 18.5122 14.0673 18.4144 14.0904C18.3166 14.1135 18.3088 14.0811 18.2108 14.1042C18.1128 14.1274 18.1176 14.1473 18.0198 14.1704C17.9219 14.1936 17.9253 14.2085 17.8274 14.2317C17.7294 14.2548 17.7247 14.2358 17.6269 14.2589C17.5291 14.282 17.528 14.278 17.4299 14.3011C17.3317 14.3243 17.3352 14.3381 17.2372 14.3611C17.1392 14.3842 17.1406 14.3899 17.0426 14.4132C16.9447 14.4366 16.94 14.4171 16.8421 14.4402C16.7442 14.4633 16.7444 14.4649 16.6464 14.4882C16.5484 14.5114 16.5475 14.5079 16.4493 14.531C16.3512 14.5542 16.2564 14.4844 16.239 14.5838C16.2215 14.6832 16.3457 14.6329 16.4302 14.6881C16.5147 14.7434 16.5197 14.7358 16.6043 14.791C16.6888 14.8463 16.6884 14.8468 16.773 14.9019C16.8575 14.9571 16.8529 14.9644 16.9374 15.0196C17.0219 15.0749 17.0065 15.0986 17.091 15.1539C17.1755 15.2091 17.1932 15.1822 17.2778 15.2375C17.3623 15.2928 17.3585 15.2985 17.443 15.3538C17.5276 15.409 17.5218 15.4181 17.6063 15.4734C17.6909 15.5286 17.6995 15.5151 17.784 15.5703C17.8684 15.6255 17.8661 15.6293 17.9507 15.6845C18.0352 15.7398 18.0333 15.7426 18.1178 15.7978C18.2024 15.853 18.2082 15.8446 18.2925 15.8999C18.3769 15.9551 18.3644 15.9746 18.4489 16.0298C18.5335 16.0851 18.5317 16.0878 18.6163 16.1431C18.7009 16.1983 18.7003 16.1993 18.7849 16.2546C18.8695 16.3099 18.8841 16.2874 18.9687 16.3428C19.0534 16.3983 19.0545 16.3962 19.1391 16.4517C19.2237 16.5072 19.2185 16.5148 19.3033 16.5701C19.3881 16.6254 19.3785 16.64 19.4631 16.6951C19.5477 16.7503 19.5443 16.7557 19.629 16.8111C19.7137 16.8664 19.7237 16.8512 19.8084 16.9066C19.8615 16.9473 19.9206 16.9795 19.9836 17.0022C20.0772 17.0391 20.0498 17.0204 20.177 16.9882C20.2314 16.9744 20.292 16.94 20.3675 16.9209C20.4264 16.906 20.4954 16.9048 20.5664 16.8869C20.6272 16.8715 20.6909 16.8499 20.7601 16.8323C20.8217 16.8166 20.8795 16.7709 20.9477 16.7537C21.0101 16.7379 21.0745 16.719 21.1421 16.7019C21.205 16.686 21.2772 16.6978 21.3443 16.6807C21.4075 16.6647 21.4734 16.6517 21.5403 16.6348C21.6037 16.6187 21.6646 16.586 21.7312 16.5691C21.7948 16.553 21.8585 16.5316 21.9249 16.5148C21.9887 16.4987 22.0602 16.5083 22.1264 16.4915C22.1903 16.4754 22.2547 16.4566 22.3208 16.4399C22.3847 16.4237 22.4477 16.3994 22.5137 16.3827C22.5778 16.3663 22.6366 16.3255 22.7026 16.3088C22.7667 16.2924 22.8412 16.3136 22.907 16.2969C22.9712 16.2807 23.0314 16.2455 23.0972 16.2289C23.1615 16.2125 23.2274 16.2001 23.2931 16.1833C23.3574 16.1669 23.4261 16.1651 23.4917 16.1485C23.5561 16.1321 23.6116 16.0779 23.6771 16.0613C23.7416 16.0449 23.8123 16.0511 23.8778 16.0345C23.9423 16.018 24.0106 16.0147 24.0761 15.9981C24.1406 15.9817 24.2024 15.9529 24.2679 15.9362C24.3325 15.9198 24.3925 15.8838 24.458 15.8672C24.5226 15.8508 24.5906 15.8467 24.656 15.83C24.7207 15.8135 24.785 15.7941 24.8504 15.7776C24.915 15.7612 24.9844 15.7623 25.0498 15.7458C25.1145 15.7294 25.1804 15.7166 25.2458 15.7001C25.3105 15.6836 25.3712 15.6502 25.4366 15.6337C25.5019 15.6171 25.5712 15.6199 25.6365 15.6034C25.7017 15.5869 25.7615 15.5519 25.8267 15.5354C25.892 15.5189 25.9533 15.4899 26.0185 15.4734C26.0838 15.4569 26.155 15.4668 26.2202 15.4503C26.2853 15.4338 26.3469 15.4053 26.4121 15.3887C26.4773 15.372 26.5413 15.3528 26.6065 15.3364C26.6716 15.3199 26.7352 15.2991 26.8004 15.2826C26.8656 15.2661 26.929 15.2443 26.9941 15.2278C27.0593 15.2113 27.1316 15.2248 27.1968 15.2084C27.262 15.1919 27.3215 15.1546 27.3866 15.1382C27.4518 15.1217 27.5229 15.1299 27.588 15.1135C27.6532 15.0971 27.71 15.0495 27.775 15.033C27.8401 15.0166 27.9027 14.9914 27.9678 14.9749C28.0329 14.9585 28.1033 14.9637 28.1683 14.9472C28.2333 14.9307 28.2986 14.9155 28.3637 14.899C28.4287 14.8826 28.49 14.8513 28.555 14.8348C28.62 14.8183 28.6894 14.8188 28.7545 14.8023C28.8196 14.7859 28.8801 14.7513 28.9452 14.7348C29.0102 14.7184 29.0763 14.7054 29.1413 14.6889C29.2064 14.6724 29.2713 14.655 29.3364 14.6385C29.4015 14.622 29.4725 14.6284 29.5376 14.612C29.6027 14.5955 29.6643 14.5646 29.7293 14.5482C29.7944 14.5317 29.8617 14.5232 29.9268 14.5068C29.9919 14.4903 30.0541 14.4611 30.119 14.4447C30.184 14.4282 30.251 14.4188 30.3161 14.4024C30.3811 14.3859 30.4512 14.3888 30.5161 14.3724C30.5811 14.3559 30.6444 14.3316 30.7094 14.3152C30.7743 14.2987 30.8418 14.2905 30.9067 14.2741C30.9715 14.2577 31.0285 14.2074 31.0934 14.1909C31.1583 14.1745 31.2237 14.1577 31.2885 14.1413C31.3534 14.1249 31.4258 14.1355 31.4907 14.1191C31.5555 14.1027 31.6203 14.0834 31.6852 14.0671C31.7501 14.0507 31.8159 14.0352 31.8807 14.0188C31.9456 14.0024 32.0043 13.9587 32.0691 13.9423C32.134 13.9259 32.2087 13.9454 32.2735 13.929C32.3389 13.9126 32.4002 13.8809 32.465 13.8645C32.5297 13.8481 32.5945 13.8278 32.6593 13.8115C32.7247 13.795 32.7941 13.7956 32.8588 13.7792C32.9243 13.7628 32.9805 13.7107 33.0451 13.6943C33.1108 13.6779 33.1806 13.6806 33.2452 13.6643C33.3109 13.6478 33.3746 13.626 33.4391 13.6097C33.5048 13.5932 33.5689 13.573 33.6334 13.5567C33.6991 13.5403 33.7637 13.5221 33.8282 13.5058C33.8939 13.4894 33.9657 13.4997 34.0301 13.4834C34.0958 13.467 34.1588 13.4424 34.2231 13.4259C34.2888 13.4093 34.348 13.3694 34.4123 13.3531C34.478 13.3365 34.5453 13.3285 34.6096 13.3121C34.6755 13.2954 34.7423 13.2856 34.8067 13.2694C34.8727 13.2527 34.9326 13.216 34.9967 13.1996C35.0627 13.1829 35.13 13.1749 35.194 13.1589C35.2601 13.1422 35.325 13.1252 35.389 13.109C35.4552 13.0922 35.5218 13.0819 35.5856 13.0658C35.6521 13.0489 35.717 13.0327 35.7808 13.0165C35.8474 12.9997 35.914 12.9895 35.9775 12.9734C36.0444 12.9565 36.1109 12.9458 36.1742 12.9298C36.2414 12.9128 36.3038 12.8857 36.3668 12.8698C36.4343 12.8527 36.5007 12.8413 36.5631 12.8255C36.6313 12.8083 36.6941 12.7828 36.756 12.7672C36.8252 12.7497 36.8927 12.7425 36.9535 12.7273C37.0244 12.7093 37.0877 12.6855 37.1465 12.6706C37.2218 12.6515 37.2925 12.6568 37.3469 12.6431C37.4151 12.6272 37.481 12.6028 37.5432 12.5705C37.5156 12.5348 37.4439 12.4986 37.374 12.4334C37.3269 12.3896 37.2828 12.3298 37.2228 12.2787C37.1705 12.2342 37.1237 12.176 37.065 12.1296C37.0094 12.0856 36.9359 12.062 36.8774 12.0187C36.8189 11.9755 36.7593 11.9347 36.7005 11.8953C36.6381 11.8542 36.5847 11.803 36.5254 11.7686Z" fill="#15923B"/>
<path d="M15.921 37.8074C15.9678 37.8968 16.0005 37.8704 16.0833 37.9281C16.166 37.9859 16.1658 37.9861 16.2485 38.0438C16.3312 38.1015 16.3293 38.1042 16.4121 38.162C16.4948 38.2198 16.4987 38.214 16.5815 38.2718C16.6642 38.3295 16.6564 38.3408 16.7391 38.3985C16.8218 38.4562 16.8366 38.435 16.9193 38.4927C17.0021 38.5504 16.9926 38.5641 17.0753 38.6219C17.1581 38.6796 17.1706 38.6615 17.2534 38.7192C17.3362 38.777 17.3341 38.7799 17.4168 38.8376C17.4996 38.8953 17.5047 38.8878 17.5873 38.9454C17.67 39.0031 17.6552 39.0245 17.7379 39.0823C17.8207 39.14 17.8262 39.132 17.9089 39.1896C17.9916 39.2473 17.9772 39.2682 18.06 39.3259C18.1428 39.3836 18.1494 39.374 18.2321 39.4317C18.3149 39.4894 18.3316 39.4655 18.4144 39.5232C18.4972 39.5809 18.4818 39.603 18.5646 39.6608C18.6474 39.7185 18.6535 39.7098 18.7363 39.7676C18.8191 39.8254 18.8091 39.8397 18.8919 39.8975C18.9747 39.9552 18.9973 39.9228 19.0801 39.9805C19.1628 40.0383 19.1348 40.0785 19.2176 40.1363C19.3005 40.194 19.3223 40.1627 19.4051 40.2205C19.4879 40.2782 19.49 40.2755 19.5729 40.3334C19.6559 40.3913 19.6314 40.4946 19.7214 40.4484C19.8114 40.4023 19.7153 40.3628 19.7153 40.2623C19.7154 40.1617 19.7382 40.1618 19.7383 40.0613C19.7383 39.9607 19.7124 39.9608 19.7125 39.8603C19.7125 39.7598 19.7409 39.7599 19.7412 39.6594C19.7415 39.5589 19.7486 39.5589 19.7487 39.4585C19.7487 39.3581 19.724 39.3581 19.724 39.2576C19.724 39.1572 19.7096 39.1572 19.7097 39.0567C19.7097 38.9563 19.7458 38.9563 19.7458 38.8559C19.7459 38.7555 19.7424 38.7555 19.7425 38.655C19.7425 38.5546 19.7065 38.5546 19.7066 38.4541C19.7066 38.3537 19.7295 38.3537 19.7296 38.2532C19.7297 38.1527 19.7299 38.1528 19.7299 38.0523C19.73 37.9518 19.7345 37.9518 19.7346 37.8513C19.7347 37.7508 19.7192 37.7508 19.7193 37.6502C19.7194 37.5497 19.7398 37.5497 19.7398 37.449C19.7398 37.3482 19.755 37.3484 19.755 37.2479C19.7551 37.1474 19.7245 37.1474 19.7246 37.0469C19.7246 36.9464 19.7291 36.9464 19.7292 36.8459C19.7292 36.7455 19.746 36.7455 19.7461 36.645C19.7461 36.5446 19.7357 36.5446 19.7358 36.4441C19.7358 36.3437 19.7227 36.3436 19.7228 36.2432C19.7229 36.1428 19.7378 36.1428 19.7379 36.0423C19.7379 35.9418 19.7268 35.9418 19.7269 35.8413C19.7269 35.7408 19.748 35.7409 19.748 35.6404C19.7481 35.5399 19.7409 35.5399 19.741 35.4394C19.7411 35.3389 19.7315 35.3388 19.7315 35.2383C19.7316 35.1378 19.7071 35.1378 19.7072 35.037C19.7073 34.9363 19.7466 34.9365 19.7467 34.836C19.7467 34.7354 19.7578 34.7355 19.7578 34.635C19.7579 34.5345 19.753 34.5345 19.753 34.434C19.7531 34.3335 19.7414 34.3335 19.7415 34.2331C19.7416 34.1326 19.7267 34.1326 19.7268 34.0321C19.7268 33.9316 19.7247 33.9316 19.7248 33.8311C19.7249 33.7307 19.7298 33.7307 19.7299 33.6301C19.7299 33.5296 19.752 33.5297 19.7521 33.4291C19.7521 33.3286 19.7432 33.3286 19.7433 33.2281C19.7434 33.1276 19.7501 33.1275 19.7501 33.0268C19.7502 32.9261 19.7432 32.9263 19.7433 32.8257C19.7434 32.7252 19.709 32.7252 19.7091 32.6247C19.7092 32.5242 19.7403 32.5242 19.7404 32.4237C19.7404 32.3233 19.7546 32.3233 19.7546 32.2228C19.7547 32.1223 19.754 32.1223 19.7541 32.0218C19.7541 31.9213 19.7398 31.9213 19.7398 31.8207C19.7399 31.7202 19.7364 31.7202 19.7365 31.6197C19.7366 31.5192 19.7131 31.5191 19.7131 31.4184C19.7132 31.3177 19.7277 31.3178 19.7277 31.2173C19.7278 31.1168 19.7293 31.1168 19.7294 31.0163C19.7295 30.9158 19.7526 30.9158 19.7527 30.8153C19.7527 30.7148 19.7239 30.7148 19.7239 30.6142C19.7239 30.5137 19.7395 30.5137 19.7396 30.4132C19.7396 30.3128 19.7453 30.3127 19.7454 30.2122C19.7454 30.1116 19.7207 30.1116 19.7207 30.0109C19.7207 29.9101 19.7372 29.9103 19.7374 29.8096C19.7377 29.7089 19.7187 29.709 19.7188 29.6085C19.7188 29.508 19.7212 29.508 19.7213 29.4075C19.7214 29.3069 19.7344 29.307 19.7345 29.2065C19.7345 29.1059 19.7233 29.1059 19.7233 29.0052C19.7233 28.9044 19.7463 28.9046 19.7464 28.8039C19.7464 28.7032 19.7274 28.7033 19.7274 28.6026C19.7274 28.5019 19.751 28.5021 19.7511 28.4015C19.7511 28.301 19.753 28.301 19.7531 28.2005C19.7531 28.1 19.7452 28.0999 19.7453 27.9994C19.7453 27.8989 19.7296 27.8989 19.7296 27.7981C19.7297 27.6974 19.7232 27.6976 19.7233 27.5968C19.7234 27.4961 19.7469 27.4963 19.7469 27.3958C19.747 27.2952 19.7343 27.2952 19.7343 27.1947C19.7344 27.0942 19.7536 27.0942 19.7536 26.9934C19.7537 26.8926 19.7295 26.8928 19.7295 26.7921C19.7296 26.6914 19.7476 26.6915 19.7476 26.591C19.7477 26.4905 19.7403 26.4905 19.7403 26.3897C19.7404 26.289 19.7625 26.2892 19.7625 26.1884C19.7625 26.0877 19.7486 26.0879 19.7487 25.9872C19.7488 25.8864 19.7546 25.8866 19.7546 25.7859C19.7547 25.6851 19.7185 25.6853 19.7186 25.5846C19.7187 25.4839 19.7589 25.484 19.759 25.3833C19.7591 25.2826 19.7253 25.2827 19.7253 25.182C19.7254 25.0813 19.7212 25.0815 19.7212 24.981C19.7212 24.8806 19.7577 24.8806 19.7577 24.7801C19.7578 24.6796 19.7253 24.6797 19.7254 24.5792C19.7255 24.4788 19.7254 24.4787 19.7254 24.3782C19.7254 24.2777 19.7254 24.2776 19.7254 24.1769C19.7254 24.0762 19.7374 24.0764 19.7374 23.9758C19.7375 23.8753 19.7586 23.8754 19.7587 23.7749C19.7587 23.6744 19.7494 23.6744 19.7494 23.5739C19.7494 23.4734 19.7368 23.4733 19.7369 23.3728C19.7369 23.2723 19.7434 23.2722 19.7435 23.1715C19.7435 23.0708 19.7593 23.071 19.7593 22.9704C19.7594 22.8699 19.7245 22.8699 19.7246 22.7694C19.7247 22.6689 19.7575 22.6688 19.7575 22.5681C19.7575 22.4674 19.7378 22.4675 19.7378 22.3668C19.7379 22.2661 19.7467 22.2662 19.7468 22.1657C19.7469 22.0652 19.753 22.0652 19.753 21.9644C19.7531 21.8637 19.7612 21.8638 19.7612 21.7632C19.7612 21.6625 19.74 21.6626 19.74 21.5619C19.7401 21.4611 19.7518 21.4613 19.7518 21.3606C19.7519 21.2599 19.7524 21.26 19.7524 21.1593C19.7524 21.0586 19.7494 21.0587 19.7495 20.958C19.7495 20.8573 19.7363 20.8574 19.7364 20.7567C19.7365 20.656 19.7427 20.6561 19.7427 20.5554C19.7428 20.4547 19.7491 20.4548 19.7492 20.3541C19.7492 20.2535 19.7533 20.2535 19.7533 20.1528C19.7533 20.0522 19.7482 20.0522 19.7483 19.9516C19.7483 19.8509 19.7649 19.851 19.7649 19.7503C19.765 19.6496 19.7515 19.6498 19.7515 19.5492C19.7516 19.4487 19.7444 19.4486 19.7445 19.3479C19.7446 19.2473 19.7428 19.2474 19.7428 19.1467C19.7428 19.0459 19.7283 19.046 19.7284 18.9454C19.7285 18.8447 19.747 18.8447 19.7471 18.7441C19.7471 18.6434 19.7475 18.6434 19.7476 18.5428C19.7476 18.4421 19.7627 18.4421 19.7628 18.3415C19.7628 18.2409 19.7377 18.2409 19.7377 18.1402C19.7377 18.0396 19.7254 18.0395 19.7254 17.9389C19.7254 17.8383 19.7529 17.8382 19.7529 17.7376C19.7529 17.6371 19.7541 17.6368 19.7542 17.536C19.7542 17.4352 19.7826 17.4272 19.7342 17.3388C19.6849 17.2488 19.6648 17.2654 19.5789 17.2093C19.493 17.1532 19.4756 17.18 19.3898 17.1239C19.304 17.0678 19.3036 17.0685 19.2176 17.0123C19.1317 16.9562 19.1442 16.9372 19.0584 16.8811C18.9725 16.8251 18.9611 16.8425 18.8753 16.7864C18.7894 16.7303 18.7869 16.7341 18.7011 16.678C18.6152 16.6219 18.6398 16.5842 18.5539 16.5281C18.468 16.472 18.4623 16.4809 18.3764 16.4247C18.2906 16.3686 18.2957 16.3608 18.2098 16.3047C18.1239 16.2486 18.1087 16.2722 18.0229 16.2161C17.9371 16.1601 17.9442 16.1491 17.8584 16.0929C17.7725 16.0367 17.7734 16.0354 17.6876 15.9795C17.6018 15.9236 17.6088 15.9124 17.5229 15.8563C17.437 15.8001 17.4347 15.8038 17.3489 15.7477C17.2631 15.6916 17.2638 15.6902 17.1779 15.6343C17.092 15.5784 17.0806 15.5955 16.9947 15.5394C16.9089 15.4832 16.9003 15.4961 16.8145 15.44C16.7287 15.3838 16.7488 15.3531 16.6626 15.297C16.5764 15.2408 16.5777 15.2394 16.4918 15.1832C16.4059 15.1269 16.3905 15.1506 16.3046 15.0945C16.2187 15.0384 16.2165 15.0416 16.1305 14.9854C16.0445 14.9292 16.0461 14.9266 15.9601 14.8704C15.874 14.8142 15.8768 14.6942 15.7858 14.7419C15.6963 14.7889 15.794 14.8538 15.7947 14.9548C15.7955 15.0559 15.809 15.0557 15.8095 15.1568C15.8101 15.2579 15.7716 15.258 15.7721 15.359C15.7727 15.46 15.7735 15.46 15.7741 15.5611C15.7746 15.6621 15.7916 15.6619 15.7921 15.7629C15.7927 15.8639 15.7835 15.864 15.7839 15.9649C15.7843 16.0659 15.8047 16.0658 15.8053 16.1668C15.8058 16.2678 15.7829 16.2679 15.7835 16.3689C15.784 16.4699 15.7776 16.47 15.7782 16.5709C15.7788 16.6719 15.7838 16.672 15.7844 16.773C15.7849 16.874 15.8026 16.8739 15.8032 16.9749C15.8038 17.076 15.8006 17.076 15.8012 17.177C15.8018 17.2781 15.8299 17.278 15.8304 17.379C15.8308 17.4801 15.7962 17.4803 15.7968 17.5814C15.7974 17.6825 15.787 17.6826 15.7875 17.7836C15.7881 17.8847 15.8189 17.8845 15.8195 17.9856C15.8201 18.0866 15.8066 18.0866 15.8072 18.1877C15.8078 18.2888 15.8228 18.2886 15.8234 18.3896C15.824 18.4907 15.8286 18.4907 15.8292 18.5917C15.8297 18.6927 15.7986 18.6929 15.7991 18.7939C15.7997 18.8949 15.8056 18.8948 15.8062 18.9959C15.8067 19.0969 15.839 19.0967 15.8396 19.1977C15.8402 19.2987 15.8396 19.2988 15.8401 19.3998C15.8406 19.5008 15.831 19.5009 15.8315 19.6019C15.8321 19.703 15.8398 19.703 15.8405 19.8041C15.8412 19.9052 15.8421 19.9052 15.8427 20.0063C15.8433 20.1074 15.8032 20.1076 15.8038 20.2087C15.8044 20.3098 15.8084 20.3097 15.809 20.4108C15.8095 20.5118 15.8414 20.5116 15.8418 20.6127C15.8422 20.7137 15.8316 20.7138 15.8322 20.8148C15.8328 20.9158 15.8136 20.9159 15.8142 21.017C15.8147 21.118 15.8422 21.1178 15.8429 21.2189C15.8436 21.3199 15.837 21.3199 15.8375 21.421C15.8381 21.5221 15.8468 21.522 15.8473 21.6231C15.8479 21.7241 15.8375 21.7242 15.8381 21.8253C15.8387 21.9264 15.821 21.9265 15.8217 22.0277C15.8223 22.1288 15.8121 22.1288 15.8127 22.2299C15.8133 22.331 15.8473 22.3307 15.8479 22.4318C15.8485 22.5329 15.8526 22.5329 15.8532 22.6339C15.8538 22.735 15.859 22.7349 15.8596 22.836C15.8602 22.937 15.8276 22.9372 15.8282 23.0382C15.8287 23.1393 15.8227 23.1393 15.8232 23.2404C15.8238 23.3415 15.815 23.3415 15.8155 23.4426C15.8159 23.5437 15.8248 23.5437 15.8254 23.6448C15.826 23.7459 15.8533 23.7458 15.8539 23.8469C15.8544 23.9479 15.8647 23.9479 15.8652 24.049C15.8658 24.1501 15.8537 24.1501 15.8542 24.2512C15.8548 24.3522 15.8551 24.3522 15.8557 24.4533C15.8563 24.5543 15.8322 24.5544 15.8328 24.6555C15.8334 24.7566 15.8653 24.7564 15.8659 24.8575C15.8665 24.9586 15.8331 24.9588 15.8337 25.0599C15.8343 25.161 15.8331 25.1611 15.8337 25.2622C15.8342 25.3632 15.8496 25.3632 15.8501 25.4642C15.8505 25.5653 15.8636 25.5652 15.8642 25.6663C15.8648 25.7673 15.865 25.7674 15.8656 25.8684C15.8661 25.9695 15.8438 25.9697 15.8444 26.0708C15.845 26.1719 15.8425 26.1719 15.843 26.273C15.8436 26.3741 15.8798 26.3739 15.8803 26.475C15.8808 26.5761 15.8332 26.5764 15.8338 26.6775C15.8344 26.7785 15.8423 26.7785 15.8429 26.8796C15.8435 26.9807 15.8541 26.9806 15.8547 27.0817C15.8553 27.1828 15.8482 27.1829 15.8488 27.284C15.8494 27.3851 15.8703 27.385 15.8709 27.4861C15.8715 27.5872 15.8766 27.5872 15.8772 27.6882C15.8777 27.7893 15.8579 27.7895 15.8584 27.8906C15.859 27.9917 15.8768 27.9915 15.8774 28.0927C15.8779 28.1938 15.8502 28.1939 15.8508 28.2951C15.8513 28.3962 15.8736 28.3961 15.8742 28.4972C15.8747 28.5983 15.846 28.5984 15.8466 28.6995C15.8472 28.8006 15.8505 28.8006 15.851 28.9017C15.8516 29.0028 15.888 29.0027 15.8886 29.1038C15.8891 29.2049 15.8688 29.205 15.8694 29.3062C15.87 29.4073 15.8776 29.4072 15.8782 29.5083C15.8788 29.6094 15.8902 29.6094 15.8905 29.7105C15.8909 29.8116 15.858 29.8118 15.8586 29.9129C15.8592 30.014 15.8907 30.0137 15.8914 30.1148C15.8922 30.2159 15.8542 30.216 15.8547 30.317C15.8553 30.418 15.8643 30.418 15.8649 30.519C15.8655 30.62 15.8723 30.62 15.8728 30.7211C15.8734 30.8221 15.8693 30.8222 15.8698 30.9234C15.8704 31.0245 15.8998 31.0243 15.9004 31.1254C15.901 31.2265 15.875 31.2266 15.8758 31.3277C15.8765 31.4287 15.8808 31.4287 15.8813 31.5297C15.8819 31.6308 15.9072 31.6307 15.9078 31.7318C15.9084 31.8329 15.8824 31.8331 15.8829 31.9342C15.8835 32.0354 15.9144 32.0351 15.915 32.1362C15.9155 32.2373 15.8773 32.2375 15.878 32.3386C15.8787 32.4396 15.8992 32.4396 15.8998 32.5407C15.9004 32.6419 15.8749 32.642 15.8755 32.7432C15.876 32.8443 15.8956 32.8441 15.896 32.9452C15.8964 33.0463 15.9001 33.0463 15.9007 33.1475C15.9013 33.2486 15.9158 33.2485 15.9164 33.3497C15.9169 33.4509 15.8909 33.451 15.8914 33.5521C15.892 33.6532 15.8983 33.6532 15.8989 33.7543C15.8995 33.8555 15.9185 33.8554 15.919 33.9565C15.9196 34.0577 15.9246 34.0577 15.9252 34.1588C15.9258 34.2599 15.9215 34.26 15.9221 34.3611C15.9227 34.4622 15.8806 34.4625 15.8811 34.5637C15.8815 34.6649 15.9293 34.6646 15.9299 34.7657C15.9304 34.8669 15.9063 34.867 15.9069 34.9682C15.9075 35.0694 15.8895 35.0695 15.8901 35.1707C15.8907 35.272 15.9267 35.2717 15.9273 35.3729C15.9279 35.4741 15.8934 35.4742 15.894 35.5752C15.8946 35.6763 15.9157 35.6763 15.9163 35.7775C15.9169 35.8787 15.9357 35.8785 15.9363 35.9796C15.9368 36.0808 15.9285 36.0808 15.929 36.182C15.9296 36.2832 15.9345 36.2832 15.9351 36.3844C15.9357 36.4856 15.9122 36.4857 15.9128 36.5869C15.9134 36.6882 15.9322 36.688 15.9328 36.7893C15.9334 36.8905 15.9217 36.8906 15.9222 36.9918C15.9228 37.093 15.9189 37.093 15.9195 37.1942C15.9201 37.2954 15.9348 37.2954 15.9354 37.3967C15.9384 37.4646 15.9339 37.5327 15.9219 37.5996C15.9072 37.7081 15.874 37.7177 15.921 37.8074Z" fill="#15923B"/>
<path d="M38.4574 12.7475C38.4569 12.6813 38.4779 12.6146 38.4683 12.5499C38.4621 12.4837 38.4513 12.4181 38.436 12.3534C38.413 12.2911 38.3863 12.2303 38.3557 12.1714C38.3296 12.1128 38.2736 12.0687 38.2398 12.0105C38.2074 11.9553 38.1887 11.8904 38.1494 11.8357C38.1121 11.7838 38.0926 11.7146 38.0491 11.6631C38.008 11.6143 37.9259 11.5998 37.8792 11.551C37.8351 11.5049 37.8012 11.447 37.752 11.4009C37.7053 11.357 37.6592 11.3105 37.6083 11.2665C37.5598 11.2247 37.5204 11.169 37.468 11.1269C37.4179 11.0867 37.3659 11.0459 37.3123 11.0055C37.2609 10.9669 37.2084 10.9268 37.1539 10.8879C37.1014 10.8505 37.0519 10.8057 36.9965 10.7682C36.9431 10.7319 36.8881 10.6952 36.8323 10.6586C36.7798 10.6243 36.729 10.5841 36.6745 10.5518C36.62 10.5195 36.5541 10.5076 36.4985 10.4773C36.4429 10.447 36.3773 10.4372 36.321 10.4083C36.2647 10.3795 36.2176 10.3335 36.1609 10.3056C36.1042 10.2778 36.0445 10.2564 35.9877 10.2291C35.9309 10.2018 35.8753 10.1716 35.8185 10.1444C35.818 10.1441 35.8149 10.1779 35.8062 10.1745C35.7438 10.1495 35.6995 10.0869 35.6427 10.0642C35.5799 10.0393 35.5178 10.0221 35.4611 9.99969C35.3979 9.97471 35.3416 9.94288 35.2851 9.92086C35.2215 9.89621 35.1568 9.88582 35.1004 9.86429C35.0363 9.83964 34.9776 9.81409 34.9212 9.79331C34.8568 9.7696 34.791 9.76455 34.734 9.74508C34.67 9.72294 34.6077 9.71061 34.5493 9.69233C34.4865 9.6727 34.4234 9.66621 34.3623 9.64953C34.3012 9.63285 34.2521 9.5707 34.1879 9.55562C34.1284 9.54145 34.0635 9.53981 33.9973 9.52551C33.9384 9.51282 33.8787 9.48624 33.8115 9.47256C33.7431 9.45859 33.6719 9.46151 33.6045 9.45001C33.5354 9.43822 33.4711 9.39821 33.4036 9.38884C33.334 9.37919 33.2602 9.40938 33.1926 9.40194C33.1225 9.39439 33.0545 9.37931 32.987 9.37422C32.9163 9.36888 32.8463 9.38186 32.7791 9.3789C32.7078 9.37582 32.639 9.38605 32.5723 9.38543C32.5002 9.38477 32.4305 9.33203 32.3645 9.33404C32.2913 9.33618 32.2209 9.33655 32.1561 9.34143C32.0811 9.3471 32.0174 9.40486 31.9555 9.41357C31.9342 9.41661 31.8456 9.38523 31.7638 9.39845C31.682 9.41168 31.6103 9.47687 31.5899 9.48201C31.4921 9.50559 31.4846 9.47428 31.3869 9.49774C31.2891 9.5212 31.2901 9.52531 31.1924 9.54876C31.0946 9.57222 31.0977 9.58524 31 9.6087C30.9022 9.63215 30.8936 9.59637 30.7958 9.61975C30.698 9.64312 30.7076 9.68321 30.6099 9.70667C30.5121 9.73013 30.5082 9.71423 30.4104 9.73768C30.3126 9.76114 30.3183 9.78484 30.2204 9.8083C30.1226 9.83176 30.1235 9.83562 30.0257 9.85907C29.9279 9.88253 29.9158 9.83167 29.818 9.85497C29.7202 9.87826 29.7276 9.90977 29.63 9.93302C29.5323 9.95627 29.5355 9.97089 29.4379 9.99435C29.3402 10.0178 29.3283 9.96851 29.2305 9.99196C29.1328 10.0154 29.1356 10.0274 29.0378 10.0509C28.94 10.0743 28.9414 10.08 28.8436 10.1034C28.7458 10.1269 28.7474 10.134 28.6496 10.1574C28.5517 10.1809 28.5554 10.1958 28.4575 10.2191C28.3597 10.2423 28.3484 10.1954 28.2506 10.2191C28.1528 10.2427 28.1567 10.2587 28.059 10.2821C27.9612 10.3056 27.9721 10.3511 27.8742 10.3745C27.7763 10.3979 27.7724 10.3813 27.6747 10.4048C27.5769 10.4282 27.5789 10.4369 27.4811 10.4603C27.3833 10.4838 27.3784 10.4633 27.2805 10.4868C27.1826 10.5102 27.1772 10.4873 27.0794 10.5108C26.9815 10.5343 26.9926 10.5806 26.8948 10.604C26.7971 10.6273 26.7978 10.6307 26.7 10.6541C26.6022 10.6776 26.5946 10.6456 26.4968 10.669C26.399 10.6924 26.3982 10.6895 26.3004 10.713C26.2026 10.7364 26.1975 10.7151 26.0997 10.7386C26.0018 10.762 26.0135 10.8109 25.9157 10.8343C25.8179 10.8578 25.8138 10.8409 25.716 10.8644C25.6182 10.8878 25.6153 10.8756 25.5175 10.8991C25.4197 10.9225 25.4163 10.9081 25.3184 10.9315C25.2206 10.955 25.2259 10.977 25.128 11.0004C25.0302 11.0239 25.03 11.0231 24.9322 11.0465C24.8343 11.07 24.8303 11.0531 24.7325 11.0765C24.6346 11.1 24.6377 11.1129 24.54 11.1363C24.4422 11.1598 24.4465 11.1782 24.3487 11.2017C24.2509 11.2251 24.2472 11.2099 24.1493 11.2334C24.0515 11.2569 24.0467 11.237 23.9489 11.2605C23.8512 11.2839 23.8539 11.2956 23.756 11.319C23.6581 11.3425 23.6607 11.3528 23.5628 11.3765C23.465 11.4002 23.4621 11.3883 23.3643 11.4117C23.2665 11.4352 23.276 11.475 23.1782 11.4985C23.0803 11.522 23.075 11.4997 22.9772 11.5232C22.8794 11.5466 22.8851 11.5706 22.7873 11.5941C22.6895 11.6176 22.6888 11.6144 22.5909 11.6379C22.493 11.6614 22.4862 11.6324 22.3884 11.6559C22.2907 11.6793 22.2864 11.6615 22.1887 11.6849C22.091 11.7083 22.093 11.717 21.9953 11.7405C21.8975 11.7639 21.9054 11.7969 21.8077 11.8203C21.7099 11.8437 21.7057 11.8266 21.6078 11.85C21.51 11.8735 21.516 11.8984 21.4182 11.9219C21.3203 11.9454 21.3104 11.9036 21.2126 11.927C21.1148 11.9505 21.1167 11.9583 21.0189 11.9818C20.9211 12.0053 20.926 12.0255 20.8282 12.049C20.7304 12.0725 20.7276 12.0613 20.6298 12.0848C20.5319 12.1083 20.5377 12.1323 20.4399 12.1557C20.342 12.1792 20.339 12.1665 20.2413 12.19C20.1435 12.2134 20.141 12.2031 20.0431 12.2266C19.9453 12.25 19.9381 12.2201 19.8402 12.2436C19.7423 12.2671 19.7527 12.3101 19.6549 12.3336C19.5571 12.357 19.5591 12.3656 19.4613 12.3891C19.3634 12.4125 19.358 12.3899 19.2601 12.4134C19.1622 12.4369 19.1616 12.4345 19.0639 12.458C18.9662 12.4814 18.9636 12.4714 18.8657 12.495C18.7678 12.5185 18.7625 12.4962 18.6645 12.5196C18.5665 12.543 18.5704 12.5587 18.4726 12.5821C18.3747 12.6056 18.3721 12.5948 18.2742 12.6182C18.1763 12.6417 18.1802 12.658 18.0823 12.6815C17.9844 12.705 17.9814 12.6924 17.8836 12.7159C17.7857 12.7394 17.7897 12.7564 17.6919 12.7799C17.594 12.8034 17.5999 12.8284 17.502 12.8519C17.4041 12.8754 17.4066 12.8856 17.3087 12.909C17.2108 12.9325 17.1966 12.8731 17.0988 12.8967C17.001 12.9204 17.0003 12.9173 16.9023 12.9406C16.8044 12.9639 16.8099 12.9868 16.7121 13.0104C16.6142 13.034 16.6118 13.0242 16.514 13.0476C16.4161 13.0711 16.421 13.0916 16.323 13.1151C16.2251 13.1386 16.2268 13.1455 16.1288 13.169C16.0309 13.1924 16.0231 13.16 15.9252 13.1834C15.8273 13.2069 15.8279 13.2095 15.73 13.233C15.6321 13.2565 15.6348 13.2675 15.5368 13.291C15.4389 13.3145 15.4447 13.3389 15.3467 13.3624C15.2487 13.3859 15.2408 13.3534 15.1428 13.3769C15.0447 13.4004 15.0488 13.4176 14.9508 13.4413C14.9119 13.4561 14.8744 13.4739 14.8384 13.4947C14.8261 13.5001 14.806 13.4885 14.7938 13.4945C14.7692 13.5068 14.7612 13.546 14.7383 13.5605C14.7249 13.5687 14.7171 13.5823 14.7044 13.5915C14.6842 13.606 14.6657 13.618 14.6469 13.6344C14.6346 13.645 14.609 13.6393 14.5977 13.6508C14.5803 13.668 14.5358 13.6616 14.52 13.6803C14.5098 13.6926 14.4999 13.7074 14.4904 13.7204C14.4757 13.7404 14.5001 13.7871 14.4873 13.8085C14.4793 13.8218 14.4791 13.8378 14.4718 13.8516C14.4572 13.8729 14.4437 13.895 14.4313 13.9177C14.426 13.931 14.432 13.947 14.4272 13.9607C14.4167 13.9921 14.3738 14.0141 14.3672 14.047C14.3657 14.0546 14.382 14.0653 14.3807 14.0729C14.3807 14.0733 14.4002 14.0768 14.4002 14.077C14.3934 14.1181 14.3488 14.1539 14.3484 14.1946C14.3484 14.1969 14.3923 14.199 14.3923 14.2013C14.3927 14.3019 14.3705 14.302 14.3709 14.4026C14.3713 14.5032 14.3712 14.5032 14.3715 14.6039C14.3719 14.7046 14.3307 14.7046 14.3311 14.8052C14.3314 14.9058 14.3448 14.9057 14.3452 15.0062C14.3455 15.1067 14.3752 15.1066 14.3755 15.2071C14.3759 15.3077 14.3568 15.3077 14.3572 15.4084C14.3576 15.5091 14.3501 15.508 14.3504 15.6086C14.3508 15.7093 14.3581 15.7092 14.3584 15.8097C14.3587 15.9102 14.3954 15.9101 14.3958 16.0106C14.3963 16.1111 14.3755 16.1112 14.3758 16.2119C14.3762 16.3126 14.3836 16.3124 14.3841 16.4132C14.3845 16.5139 14.3705 16.5138 14.3708 16.6145C14.3712 16.7151 14.3506 16.7151 14.351 16.8158C14.3513 16.9164 14.3966 16.9162 14.397 17.017C14.3974 17.1178 14.3779 17.1177 14.3783 17.2183C14.3786 17.3189 14.3746 17.3189 14.3749 17.4196C14.3753 17.5203 14.3559 17.5203 14.3562 17.6209C14.3566 17.7215 14.4018 17.7213 14.4022 17.8219C14.4026 17.9224 14.357 17.9225 14.3575 18.0231C14.3579 18.1238 14.3698 18.1236 14.3702 18.2242C14.3706 18.3248 14.3791 18.3247 14.3794 18.4252C14.3797 18.5258 14.4056 18.5257 14.406 18.6262C14.4064 18.7268 14.4084 18.7268 14.4087 18.8275C14.409 18.9282 14.3785 18.9282 14.3789 19.0288C14.3793 19.1294 14.409 19.1293 14.4093 19.2301C14.4096 19.3309 14.36 19.3309 14.3605 19.4314C14.361 19.5319 14.3928 19.5319 14.3931 19.6327C14.3934 19.7334 14.4004 19.7332 14.4008 19.834C14.4011 19.9347 14.3559 19.9334 14.3563 20.0339C14.3568 20.1345 14.358 20.1345 14.3584 20.2352C14.3587 20.3359 14.3761 20.3357 14.3765 20.4363C14.3769 20.5368 14.4152 20.5367 14.4156 20.6373C14.416 20.7378 14.3678 20.738 14.3682 20.8386C14.3686 20.9391 14.4118 20.939 14.4121 21.0396C14.4125 21.1402 14.4013 21.1402 14.4017 21.2409C14.402 21.3415 14.377 21.3416 14.3774 21.4422C14.3777 21.5427 14.3962 21.5427 14.3965 21.6435C14.3969 21.7442 14.3585 21.7442 14.3589 21.8447C14.3592 21.9453 14.3999 21.9451 14.4004 22.0457C14.4009 22.1464 14.3741 22.1464 14.3745 22.247C14.3748 22.3476 14.4093 22.3475 14.4097 22.4481C14.41 22.5487 14.3988 22.5487 14.3991 22.6494C14.3995 22.75 14.424 22.7499 14.4243 22.8507C14.4247 22.9514 14.3795 22.9515 14.3798 23.0519C14.3802 23.1524 14.4109 23.1524 14.4113 23.2532C14.4117 23.354 14.418 23.3538 14.4183 23.4545C14.4187 23.5552 14.37 23.5553 14.3703 23.6558C14.3707 23.7563 14.4139 23.7562 14.4143 23.8568C14.4146 23.9574 14.428 23.9574 14.4284 24.0581C14.4287 24.1588 14.4176 24.1587 14.418 24.2594C14.4184 24.36 14.4183 24.36 14.4186 24.4607C14.419 24.5613 14.4172 24.5613 14.4176 24.662C14.4179 24.7626 14.4063 24.7626 14.4067 24.8632C14.4071 24.9639 14.3975 24.9638 14.3979 25.0645C14.3982 25.1652 14.385 25.1652 14.3855 25.2658C14.3861 25.3664 14.3905 25.3664 14.3909 25.4671C14.3912 25.5678 14.371 25.5678 14.3714 25.6684C14.3717 25.769 14.3948 25.769 14.3951 25.8697C14.3955 25.9704 14.3756 25.9704 14.376 26.071C14.3764 26.1716 14.4283 26.1714 14.4287 26.272C14.4291 26.3726 14.4006 26.3727 14.401 26.4733C14.4013 26.5739 14.383 26.574 14.3834 26.6746C14.3837 26.7752 14.4211 26.7751 14.4215 26.8759C14.4218 26.9766 14.4269 26.9765 14.4273 27.0772C14.4277 27.1779 14.3854 27.1779 14.3858 27.2785C14.3862 27.379 14.4152 27.379 14.4156 27.4797C14.4159 27.5805 14.382 27.5805 14.3824 27.681C14.3828 27.7816 14.3835 27.7817 14.3839 27.8823C14.3842 27.983 14.4134 27.9828 14.4138 28.0836C14.4142 28.1844 14.3857 28.1843 14.386 28.2849C14.3864 28.3855 14.396 28.3855 14.3964 28.4862C14.3967 28.5868 14.4231 28.5867 14.4235 28.6875C14.4238 28.7882 14.392 28.7882 14.3924 28.8888C14.3927 28.9893 14.4454 28.9892 14.4457 29.09C14.446 29.1909 14.4285 29.1907 14.4289 29.2913C14.4293 29.3919 14.4325 29.3919 14.433 29.4926C14.4335 29.5933 14.4004 29.5933 14.4008 29.6939C14.4011 29.7945 14.4093 29.7944 14.4096 29.895C14.41 29.9956 14.4377 29.9955 14.4381 30.096C14.4385 30.1966 14.4478 30.1967 14.4482 30.2973C14.4486 30.398 14.4435 30.398 14.4438 30.4986C14.4442 30.5993 14.4192 30.5993 14.4196 30.6999C14.42 30.8005 14.4234 30.8005 14.4237 30.9012C14.4241 31.0019 14.4406 31.0017 14.441 31.1025C14.4414 31.2032 14.4533 31.2031 14.4537 31.3038C14.4541 31.4044 14.4263 31.4044 14.4267 31.505C14.427 31.6057 14.4463 31.6056 14.4467 31.7063C14.447 31.8071 14.3933 31.8072 14.3936 31.9076C14.394 32.0081 14.4429 32.0081 14.4435 32.1089C14.444 32.2097 14.4293 32.2096 14.4297 32.3102C14.43 32.4108 14.4065 32.4109 14.4069 32.5115C14.4073 32.6121 14.409 32.6122 14.4094 32.7128C14.4097 32.8134 14.4255 32.8134 14.4258 32.9141C14.4261 33.0148 14.4605 33.0146 14.4608 33.1154C14.4612 33.2161 14.443 33.2161 14.4434 33.3166C14.4438 33.4172 14.4488 33.4173 14.4492 33.5179C14.4496 33.6185 14.4552 33.6186 14.4556 33.7192C14.4559 33.8199 14.4408 33.82 14.4412 33.9205C14.4416 34.021 14.4494 34.0212 14.4498 34.1218C14.4502 34.2224 14.4178 34.2226 14.4182 34.3233C14.4186 34.4241 14.4084 34.4241 14.4087 34.5246C14.4091 34.6251 14.4504 34.6252 14.4508 34.7259C14.4512 34.8266 14.4087 34.8267 14.409 34.9272C14.4094 35.0277 14.4477 35.0278 14.4481 35.1285C14.4485 35.2292 14.4401 35.2292 14.4405 35.3298C14.4409 35.4304 14.435 35.4305 14.4353 35.5311C14.4357 35.6316 14.4319 35.6318 14.4323 35.7325C14.4326 35.8333 14.4149 35.8334 14.4153 35.9341C14.4156 36.0348 14.4382 36.0347 14.4385 36.1354C14.4389 36.236 14.4128 36.2362 14.4131 36.3367C14.4135 36.4371 14.4535 36.4373 14.4538 36.5379C14.4541 36.6386 14.4213 36.6389 14.4217 36.7397C14.422 36.8405 14.4504 36.8405 14.4509 36.9413C14.4514 37.0422 14.4623 37.0422 14.4626 37.1431C14.4688 37.2035 14.4816 37.263 14.5006 37.3206C14.5143 37.3773 14.4906 37.4492 14.5129 37.5111C14.5335 37.5682 14.59 37.613 14.6156 37.671C14.6409 37.7281 14.6514 37.7921 14.6799 37.8469C14.7097 37.9041 14.7618 37.9458 14.7928 37.9969C14.8279 38.0547 14.8117 38.1423 14.8454 38.1873C14.8888 38.2353 14.9404 38.2752 14.9978 38.3049C15.0803 38.3615 15.0972 38.3367 15.1799 38.3931C15.2625 38.4495 15.2636 38.4478 15.3462 38.504C15.4288 38.5603 15.4167 38.578 15.4993 38.6343C15.5818 38.6907 15.5597 38.7232 15.6423 38.7796C15.7249 38.836 15.7599 38.7846 15.8426 38.841C15.9252 38.8973 15.8893 38.95 15.9719 39.0063C16.0544 39.0626 16.0874 39.0145 16.17 39.0708C16.2526 39.127 16.2344 39.1539 16.317 39.2104C16.3997 39.267 16.4152 39.2439 16.4977 39.3003C16.5802 39.3566 16.5596 39.387 16.6423 39.4434C16.7249 39.4998 16.7456 39.4694 16.8282 39.5256C16.9109 39.5817 16.8826 39.6234 16.9653 39.6797C17.0479 39.7361 17.0655 39.7102 17.1482 39.7666C17.2308 39.823 17.2311 39.8226 17.3137 39.879C17.3963 39.9354 17.3797 39.9597 17.4624 40.0161C17.545 40.0724 17.5767 40.0259 17.6594 40.0823C17.7422 40.1387 17.7333 40.1516 17.8157 40.2079C17.8981 40.2642 17.886 40.2824 17.9687 40.3388C18.0513 40.3952 18.066 40.3734 18.1486 40.4297C18.2312 40.4861 18.2139 40.5119 18.2964 40.5681C18.379 40.6244 18.3682 40.6404 18.4508 40.6968C18.5334 40.7532 18.5361 40.7493 18.6188 40.8057C18.7014 40.8621 18.7091 40.8509 18.7917 40.9074C18.8744 40.9639 18.8827 40.9517 18.9654 41.0081C19.0481 41.0645 19.0473 41.0656 19.13 41.1221C19.2127 41.1787 19.2151 41.175 19.2978 41.2314C19.3805 41.2878 19.3748 41.296 19.4575 41.3524C19.5402 41.4088 19.5444 41.4027 19.6271 41.4592C19.7099 41.5157 19.7034 41.5254 19.7862 41.5819C19.8691 41.6384 19.8612 41.65 19.9441 41.7064C19.9553 41.7137 19.9776 41.7045 19.9892 41.7112C20.0031 41.7194 20.0328 41.6968 20.0471 41.704C20.0703 41.7157 20.0851 41.741 20.1092 41.7501C20.1232 41.7555 20.1256 41.7946 20.1399 41.7991C20.1674 41.8077 20.1953 41.8149 20.2235 41.8206C20.2358 41.8232 20.2484 41.8312 20.2609 41.8332C20.3009 41.8395 20.3457 41.7863 20.3862 41.7863L20.3854 41.808L20.3864 41.7934C20.3977 41.7934 20.4094 41.8222 20.4207 41.8218C20.4733 41.8195 20.5186 41.7773 20.5701 41.7643C20.5704 41.7643 20.5707 41.7662 20.5711 41.7661C20.6675 41.7393 20.6371 41.7438 20.7627 41.7088C20.8165 41.6938 20.8941 41.7231 20.9686 41.7024C21.0268 41.6862 21.0856 41.6482 21.1557 41.6284C21.2158 41.6117 21.2836 41.6065 21.352 41.5874C21.4131 41.5704 21.4766 41.5496 21.544 41.5308C21.6055 41.5136 21.6591 41.4569 21.7259 41.4382C21.788 41.4209 21.863 41.4417 21.9294 41.4232C21.9918 41.4057 22.0488 41.3619 22.1148 41.3435C22.1775 41.326 22.25 41.3373 22.316 41.3189C22.3789 41.3013 22.4366 41.2598 22.5022 41.2415C22.5652 41.2239 22.6294 41.2055 22.6948 41.1872C22.7579 41.1696 22.8234 41.156 22.8886 41.1379C22.9519 41.1202 23.0134 41.0925 23.0786 41.0743C23.1419 41.0566 23.2126 41.062 23.2777 41.0438C23.3412 41.026 23.4071 41.0142 23.4721 40.996C23.5356 40.9783 23.5974 40.9518 23.6624 40.9337C23.7259 40.9159 23.7925 40.9064 23.8574 40.8882C23.921 40.8704 23.9859 40.8549 24.0507 40.8368C24.1144 40.819 24.1821 40.8141 24.2471 40.7957C24.3107 40.7779 24.3732 40.7536 24.438 40.7355C24.5017 40.7177 24.5514 40.6479 24.6162 40.6298C24.6799 40.6119 24.7532 40.6264 24.8179 40.6082C24.8817 40.5904 24.9407 40.5535 25.0053 40.5354C25.0691 40.5175 25.1441 40.5381 25.2088 40.52C25.2726 40.502 25.3258 40.4445 25.3904 40.4265C25.4543 40.4086 25.5245 40.4118 25.589 40.3936C25.6536 40.3754 25.725 40.3856 25.7895 40.3676C25.854 40.3495 25.9048 40.2857 25.9692 40.2676C26.0337 40.2496 26.0955 40.2248 26.16 40.2068C26.2245 40.1887 26.2907 40.1797 26.3551 40.1616C26.4196 40.1435 26.4863 40.1359 26.5507 40.1178C26.6151 40.0998 26.6761 40.0716 26.7405 40.0535C26.8049 40.0355 26.8652 40.0046 26.9294 39.9865C26.9936 39.9684 27.0681 39.9875 27.1325 39.9693C27.1969 39.9512 27.2652 39.9491 27.3295 39.931C27.3939 39.9129 27.4535 39.8791 27.5178 39.861C27.5821 39.8428 27.6419 39.8098 27.7063 39.7917C27.7706 39.7736 27.8322 39.7475 27.8964 39.7294C27.9607 39.7114 28.0217 39.6827 28.0859 39.6646C28.1502 39.6466 28.2214 39.6539 28.2856 39.6359C28.3498 39.6179 28.4151 39.6039 28.4794 39.5859C28.5436 39.5678 28.6052 39.5407 28.6695 39.5227C28.7337 39.5047 28.79 39.4583 28.8542 39.4401C28.9185 39.422 28.9969 39.4543 29.0611 39.436C29.1254 39.4178 29.1793 39.3632 29.2435 39.345C29.3078 39.3269 29.3746 39.3176 29.4388 39.2995C29.503 39.2813 29.5642 39.2518 29.6284 39.2337C29.6927 39.2156 29.761 39.2115 29.8252 39.1933C29.8894 39.1752 29.9575 39.1697 30.0217 39.1516C30.0859 39.1335 30.1497 39.1128 30.2139 39.0947C30.278 39.0765 30.3441 39.0636 30.4083 39.0454C30.4725 39.0271 30.5404 39.0212 30.6046 39.0031C30.6688 38.9849 30.7325 38.9637 30.7967 38.9456C30.8608 38.9274 30.9116 38.8612 30.9757 38.8429C31.0399 38.8245 31.1176 38.8533 31.1817 38.8351C31.2457 38.8169 31.3078 38.7899 31.3719 38.7718C31.4359 38.7538 31.49 38.6981 31.554 38.68C31.618 38.6618 31.6961 38.6907 31.76 38.6726C31.824 38.6544 31.8781 38.5986 31.942 38.5804C32.006 38.5622 32.0678 38.5335 32.1318 38.5153C32.1957 38.4971 32.2607 38.4794 32.3247 38.4612C32.3888 38.443 32.4671 38.4724 32.5309 38.4542C32.5954 38.4358 32.6586 38.4138 32.7224 38.3955C32.787 38.3771 32.8456 38.3394 32.9094 38.3212C32.974 38.3028 33.0449 38.3083 33.1088 38.2901C33.1734 38.2716 33.2356 38.2466 33.2994 38.2285C33.3639 38.21 33.415 38.1459 33.4787 38.1276C33.5433 38.1091 33.6112 38.1038 33.6748 38.0856C33.7395 38.067 33.8097 38.0698 33.8733 38.0515C33.938 38.0329 33.9973 37.9976 34.0609 37.9793C34.1257 37.9606 34.1917 37.9489 34.2552 37.9307C34.32 37.912 34.3936 37.9263 34.457 37.9079C34.5219 37.8892 34.5715 37.8205 34.6348 37.8022C34.6997 37.7834 34.7651 37.7693 34.8283 37.751C34.8934 37.7321 34.9693 37.7539 35.0325 37.7356C35.0977 37.7166 35.1483 37.6515 35.2114 37.6332C35.2766 37.6141 35.3567 37.6505 35.4196 37.6321C35.4849 37.613 35.5487 37.5935 35.6114 37.5751C35.6771 37.5559 35.7332 37.5105 35.7957 37.4921C35.8614 37.4728 35.9213 37.4398 35.9836 37.4214C36.0495 37.4019 36.124 37.4184 36.1858 37.4C36.2522 37.3802 36.3129 37.3502 36.3744 37.3318C36.4412 37.3117 36.5079 37.3018 36.5688 37.2834C36.6364 37.2628 36.6956 37.2281 36.7555 37.2097C36.8245 37.1885 36.8953 37.1909 36.9535 37.1725C37.0257 37.1499 37.0755 37.0863 37.1301 37.0683C37.2156 37.0402 37.2775 37.0164 37.3169 37.0007C37.3778 36.9779 37.436 36.9485 37.4905 36.9131C37.541 36.8718 37.5884 36.827 37.6325 36.779C37.6798 36.736 37.7614 36.724 37.806 36.673C37.8484 36.6244 37.8893 36.57 37.9285 36.5154C37.9663 36.4626 37.9601 36.3801 37.9942 36.3228C38.0276 36.2665 38.0771 36.2201 38.1061 36.1604C38.1351 36.1008 38.1515 36.0376 38.1753 35.9762C38.199 35.9149 38.2465 35.8612 38.2646 35.7982C38.2829 35.7341 38.2605 35.6621 38.2718 35.5981C38.2837 35.5321 38.3386 35.4728 38.3423 35.4082C38.3452 35.3585 38.3086 35.2891 38.3114 35.2046C38.3134 35.1454 38.3397 35.0787 38.3416 35.0033C38.3431 34.9412 38.3645 34.8742 38.3662 34.8017C38.3676 34.7382 38.3557 34.6705 38.3571 34.5993C38.3583 34.535 38.3731 34.4678 38.3743 34.3974C38.3754 34.3326 38.3316 34.2644 38.3328 34.1946C38.3338 34.1294 38.3865 34.0628 38.3875 33.9933C38.3885 33.9276 38.3426 33.8597 38.3436 33.7906C38.3445 33.7248 38.3637 33.6576 38.3646 33.5887C38.3655 33.5227 38.3406 33.455 38.3415 33.3862C38.3423 33.3201 38.3858 33.2532 38.3866 33.1845C38.3874 33.1183 38.34 33.0503 38.3408 32.9818C38.3415 32.9155 38.4033 32.8487 38.4041 32.7803C38.4048 32.7139 38.365 32.6461 38.3658 32.5777C38.3665 32.5112 38.3928 32.4441 38.3935 32.3758C38.3942 32.3093 38.3989 32.2419 38.3996 32.1737C38.4003 32.1071 38.3961 32.0398 38.3968 31.9718C38.3974 31.9051 38.3572 31.8374 38.3578 31.7694C38.3585 31.7027 38.3816 31.6356 38.3822 31.5677C38.3828 31.5009 38.4027 31.4337 38.4033 31.3658C38.4039 31.299 38.3743 31.2314 38.3749 31.1635C38.3755 31.0967 38.4099 31.0296 38.4104 30.9618C38.411 30.8949 38.4213 30.8277 38.4218 30.7598C38.4223 30.6929 38.3959 30.6253 38.3965 30.5575C38.397 30.4906 38.3952 30.4232 38.3958 30.3554C38.3963 30.2885 38.3835 30.221 38.384 30.1533C38.3845 30.0863 38.3676 30.0188 38.3683 29.951C38.3688 29.884 38.4125 29.817 38.413 29.7492C38.4135 29.6822 38.4117 29.6148 38.4122 29.5471C38.4127 29.4801 38.4101 29.4126 38.4106 29.3449C38.4111 29.2779 38.4073 29.2105 38.4078 29.1428C38.4083 29.0757 38.3752 29.0081 38.3757 28.9404C38.3762 28.8728 38.4384 28.8064 38.4389 28.7387C38.4393 28.671 38.4304 28.6041 38.4307 28.5365C38.431 28.4688 38.4231 28.4019 38.4236 28.3343C38.424 28.2667 38.4149 28.1997 38.4154 28.132C38.4158 28.0644 38.3958 27.9973 38.3962 27.9297C38.3966 27.8621 38.3913 27.7951 38.3918 27.7275C38.3922 27.6599 38.4054 27.593 38.4058 27.5254C38.4062 27.4578 38.4305 27.3911 38.431 27.3236C38.4316 27.2561 38.4079 27.1889 38.4083 27.1214C38.4087 27.0539 38.4317 26.987 38.4321 26.9195C38.4325 26.852 38.3929 26.7847 38.3933 26.7172C38.3937 26.6497 38.4048 26.5826 38.4052 26.5152C38.4056 26.4477 38.4165 26.3806 38.4168 26.3131C38.4172 26.2456 38.4086 26.1784 38.409 26.1109C38.4094 26.0434 38.4161 25.9763 38.4165 25.9088C38.4169 25.8413 38.4265 25.7741 38.4269 25.7067C38.4273 25.6392 38.4076 25.5718 38.4079 25.5044C38.4083 25.4369 38.4305 25.3698 38.4308 25.3023C38.4311 25.2348 38.4233 25.1676 38.4237 25.1002C38.4241 25.0328 38.4442 24.9656 38.4448 24.8982C38.4453 24.8308 38.4375 24.7634 38.4379 24.696C38.4383 24.6286 38.4517 24.5613 38.4521 24.4939C38.4524 24.4265 38.4622 24.3591 38.4625 24.2916C38.4629 24.2242 38.4523 24.1567 38.4526 24.0893C38.4529 24.0218 38.4557 23.9544 38.456 23.8869C38.4563 23.8195 38.4634 23.752 38.4637 23.6846C38.4641 23.6171 38.4514 23.5495 38.4516 23.482C38.4518 23.4146 38.4173 23.3468 38.4176 23.2794C38.4179 23.2119 38.4088 23.1443 38.4091 23.0768C38.4094 23.0093 38.44 22.9419 38.4403 22.8744C38.4406 22.8069 38.4633 22.7396 38.4636 22.6722C38.4639 22.6049 38.4585 22.5373 38.4588 22.4699C38.4592 22.4025 38.4307 22.3348 38.431 22.2675C38.4314 22.2001 38.4712 22.1327 38.4715 22.0653C38.4719 21.998 38.4633 21.9303 38.4637 21.863C38.4641 21.7957 38.4551 21.728 38.4555 21.6606C38.456 21.5933 38.4339 21.5255 38.4342 21.4582C38.4346 21.3909 38.4365 21.3232 38.4368 21.2559C38.4371 21.1886 38.4264 21.1209 38.4267 21.0536C38.427 20.9863 38.4366 20.9186 38.4369 20.8514C38.4372 20.7841 38.4624 20.7164 38.4627 20.6492C38.463 20.5819 38.4269 20.514 38.4272 20.4468C38.4275 20.3796 38.4231 20.3117 38.4231 20.2445C38.4231 20.1772 38.4797 20.1096 38.4799 20.0424C38.4802 19.9752 38.4758 19.9073 38.4762 19.8401C38.4767 19.7729 38.4311 19.7048 38.4313 19.6376C38.4316 19.5704 38.4328 19.5025 38.4331 19.4353C38.4333 19.3681 38.4267 19.3001 38.4269 19.2329C38.4272 19.1657 38.4705 19.0979 38.4708 19.0307C38.4711 18.963 38.4884 18.8956 38.4886 18.8284C38.4889 18.7606 38.4475 18.6929 38.4479 18.6259C38.4482 18.5581 38.4841 18.4908 38.4843 18.4237C38.4846 18.3559 38.4452 18.2881 38.4455 18.2211C38.4458 18.1533 38.474 18.0859 38.4742 18.0188C38.4745 17.951 38.4892 17.8836 38.4894 17.8165C38.4897 17.7486 38.4873 17.6812 38.4875 17.6141C38.4878 17.5462 38.4763 17.4786 38.4766 17.4117C38.4768 17.3438 38.4625 17.2762 38.4627 17.2093C38.463 17.1413 38.4614 17.0738 38.4617 17.007C38.4619 16.9389 38.448 16.8714 38.4482 16.8046C38.4485 16.7366 38.4716 16.6691 38.4719 16.6024C38.4721 16.5344 38.4426 16.4669 38.4428 16.4001C38.443 16.332 38.4973 16.2648 38.4976 16.1981C38.4978 16.1299 38.4922 16.0625 38.4925 15.9959C38.4927 15.9276 38.4486 15.86 38.4488 15.7934C38.4491 15.7251 38.4602 15.6579 38.4604 15.5912C38.4606 15.5227 38.4855 15.4554 38.4857 15.389C38.4857 15.3205 38.4721 15.253 38.4723 15.1867C38.4726 15.1181 38.4569 15.0507 38.4571 14.9844C38.4574 14.9157 38.4823 14.8484 38.4825 14.7823C38.4825 14.7134 38.4779 14.646 38.4782 14.5801C38.4782 14.511 38.4724 14.4436 38.4726 14.3779C38.4726 14.3086 38.4685 14.2412 38.4689 14.1757C38.4692 14.1058 38.4737 14.0385 38.4739 13.9733C38.4741 13.9032 38.4679 13.8358 38.4681 13.7712C38.4684 13.7003 38.4834 13.6329 38.4836 13.5689C38.4836 13.4971 38.4616 13.4296 38.4618 13.3667C38.462 13.2931 38.4987 13.2258 38.4987 13.1648C38.4987 13.0868 38.4606 13.019 38.4607 12.9627C38.4611 12.8307 38.4623 12.8618 38.4626 12.7609C38.4622 12.7568 38.4575 12.7523 38.4574 12.7475ZM20.4539 16.8155C20.3715 16.7617 20.386 16.7394 20.3036 16.6856C20.2212 16.6318 20.2277 16.6219 20.1454 16.568C20.063 16.5142 20.0567 16.524 19.9743 16.4701C19.8919 16.4163 19.8757 16.4408 19.7936 16.387C19.7115 16.3332 19.7221 16.3164 19.6397 16.2626C19.5573 16.2088 19.5723 16.1859 19.4899 16.1321C19.4075 16.0783 19.3796 16.1211 19.2972 16.0672C19.2148 16.0134 19.2244 15.9989 19.1421 15.9452C19.0599 15.8914 19.0618 15.8882 18.9794 15.8342C18.8971 15.7803 18.9068 15.7656 18.8244 15.7118C18.7421 15.6581 18.7423 15.6576 18.6598 15.6038C18.5773 15.5499 18.5782 15.5489 18.4958 15.4951C18.4135 15.4412 18.4178 15.4343 18.3357 15.3804L18.1705 15.2727C18.088 15.2188 18.0921 15.2126 18.0097 15.1587C17.9272 15.1048 17.9153 15.1233 17.8327 15.0695C17.7502 15.0156 17.7383 15.034 17.6559 14.9801C17.5736 14.9263 17.5845 14.9095 17.502 14.8556C17.4196 14.8018 17.4158 14.8073 17.3337 14.7535C17.2516 14.6996 17.253 14.6966 17.1704 14.6425C17.0878 14.5884 16.9554 14.629 16.9752 14.5323C16.9957 14.4332 17.1045 14.5278 17.2029 14.5045C17.3013 14.4812 17.2997 14.4745 17.3981 14.4511C17.4964 14.4277 17.4985 14.4366 17.5969 14.4134C17.6952 14.3901 17.6921 14.3766 17.7904 14.3534C17.8888 14.3301 17.8896 14.3335 17.988 14.3102C18.0863 14.287 18.0824 14.2698 18.1807 14.2466C18.279 14.2233 18.2773 14.2157 18.3757 14.1925C18.4741 14.1692 18.4715 14.1581 18.57 14.135C18.6684 14.1118 18.6794 14.1585 18.7778 14.1353C18.8763 14.112 18.8733 14.0998 18.9718 14.0765C19.0702 14.0533 19.0733 14.0667 19.1717 14.0436C19.2701 14.0206 19.2664 14.0048 19.3647 13.9816C19.4629 13.9583 19.4698 13.9872 19.5683 13.964C19.6667 13.9407 19.6578 13.9031 19.7562 13.8798C19.8546 13.8565 19.8566 13.8652 19.9551 13.8419C20.0535 13.8186 20.0495 13.802 20.1481 13.7787C20.2466 13.7555 20.2437 13.7438 20.3421 13.7205C20.4405 13.6972 20.4527 13.7493 20.5511 13.726C20.6496 13.7027 20.6503 13.706 20.7487 13.6827C20.8471 13.6595 20.8355 13.6101 20.9339 13.5869C21.0323 13.5636 21.0425 13.6069 21.141 13.5837C21.2394 13.5604 21.2272 13.5094 21.3257 13.4861C21.4243 13.4629 21.4315 13.494 21.53 13.4708C21.6284 13.4475 21.6274 13.4434 21.7258 13.4201C21.8241 13.3969 21.8211 13.3838 21.9195 13.3606C22.0179 13.3373 22.0262 13.3732 22.1248 13.3499C22.2233 13.3266 22.2138 13.2866 22.3122 13.2633C22.4107 13.2401 22.4144 13.256 22.5128 13.2327C22.6113 13.2095 22.6055 13.1855 22.704 13.1623C22.8024 13.139 22.8015 13.1352 22.8999 13.1119C22.9983 13.0887 23.0104 13.1396 23.1088 13.1163C23.2073 13.093 23.1998 13.0616 23.2982 13.0382C23.3967 13.0148 23.3933 13.0005 23.4917 12.9773C23.5901 12.954 23.6018 13.0034 23.7002 12.9801C23.7986 12.9568 23.7958 12.9448 23.8943 12.9215C23.9927 12.8982 23.9914 12.8928 24.0898 12.8694C24.1883 12.8459 24.1865 12.839 24.285 12.816C24.3834 12.7929 24.3799 12.7778 24.4783 12.7546C24.5767 12.7313 24.5879 12.7784 24.6863 12.7552C24.7847 12.7319 24.7807 12.7158 24.8792 12.6925C24.9778 12.6693 24.9668 12.6237 25.0652 12.6005C25.1636 12.5772 25.1675 12.5939 25.2658 12.5707C25.3641 12.5474 25.3621 12.5388 25.4605 12.5155C25.5589 12.4923 25.5638 12.5127 25.6622 12.4895C25.7607 12.4662 25.7661 12.4891 25.8645 12.4659C25.9629 12.4426 25.9519 12.3963 26.0503 12.3731C26.1487 12.3498 26.1479 12.3466 26.2463 12.3234C26.3447 12.3002 26.3522 12.3321 26.4507 12.3089C26.5491 12.2856 26.55 12.2885 26.6486 12.2652C26.7471 12.2419 26.752 12.2633 26.8504 12.2401C26.9488 12.2168 26.9373 12.1679 27.0357 12.1447C27.1341 12.1214 27.1383 12.1383 27.2365 12.1151C27.3347 12.0918 27.3379 12.104 27.4363 12.0807C27.5348 12.0574 27.5382 12.072 27.6366 12.0487C27.7351 12.0255 27.7298 12.0035 27.8283 11.9802C27.9268 11.9569 27.9268 11.9577 28.0254 11.9344C28.1239 11.9111 28.1278 11.9281 28.2262 11.9049C28.3246 11.8816 28.3217 11.8687 28.4201 11.8454C28.5186 11.8222 28.5143 11.8037 28.6127 11.7804C28.7112 11.7571 28.7148 11.7722 28.8132 11.7492C28.9117 11.7261 28.9164 11.7457 29.0149 11.7224C29.1133 11.6991 29.1106 11.6875 29.2091 11.6643C29.3077 11.641 29.3051 11.6306 29.4036 11.6073C29.5021 11.5841 29.5049 11.5957 29.6034 11.5725C29.7019 11.5492 29.6925 11.5093 29.791 11.4862C29.8895 11.4631 29.8948 11.4853 29.9933 11.462C30.0918 11.4387 30.086 11.4147 30.1844 11.3915C30.2828 11.3682 30.2837 11.3713 30.3822 11.348C30.4806 11.3247 30.4874 11.3537 30.5858 11.3304C30.6842 11.3071 30.6885 11.325 30.787 11.3017C30.8855 11.2783 30.8835 11.2697 30.982 11.2464C31.0806 11.2231 31.0728 11.1901 31.1713 11.1668C31.2697 11.1435 31.2739 11.1608 31.3724 11.1375C31.471 11.1142 31.4651 11.0893 31.5635 11.066C31.662 11.0428 31.6719 11.0845 31.7705 11.0613C31.869 11.038 31.8672 11.03 31.9658 11.0067C32.0644 10.9835 32.0597 10.9631 32.1583 10.9398C32.257 10.9165 32.2594 10.9264 32.3584 10.9043C32.4178 10.8936 32.4867 10.8634 32.5622 10.8628C32.6253 10.8623 32.6951 10.8782 32.7675 10.8842C32.8318 10.8894 32.8989 10.9077 32.9696 10.9175C33.0344 10.9265 33.0964 10.9678 33.1656 10.9804C33.2305 10.9922 33.3058 10.962 33.374 10.9768C33.4391 10.9908 33.508 10.9977 33.5752 11.0141C33.6402 11.03 33.7008 11.0696 33.7674 11.0875C33.8324 11.1049 33.8974 11.1256 33.9634 11.145C34.0282 11.1639 34.0903 11.1935 34.1556 11.2139C34.2208 11.2343 34.2778 11.2767 34.3425 11.2983C34.4071 11.3198 34.4763 11.3267 34.5404 11.3493C34.6044 11.372 34.6646 11.4058 34.728 11.4296C34.7923 11.4536 34.8616 11.4624 34.9243 11.4873C34.9883 11.5128 35.0462 11.5504 35.108 11.5765C35.1718 11.6034 35.241 11.6144 35.3019 11.6418C35.3655 11.6706 35.4384 11.676 35.4982 11.7049C35.5614 11.7354 35.6278 11.7571 35.6859 11.7877C35.7488 11.8205 35.7788 11.9072 35.8348 11.9399C35.8907 11.9726 35.9411 12.0077 35.9905 12.0405C36.0454 12.0769 36.1086 12.0931 36.1556 12.1286C36.2086 12.1687 36.2498 12.2153 36.2937 12.2534C36.3447 12.2977 36.4039 12.3246 36.4443 12.3651C36.4935 12.4144 36.5407 12.4555 36.5771 12.4972C36.6264 12.5535 36.6396 12.6226 36.6725 12.6596C36.6116 12.651 36.5495 12.6562 36.4909 12.6749C36.4365 12.689 36.374 12.7167 36.2985 12.7362C36.2394 12.7513 36.1804 12.7924 36.1092 12.8107C36.0484 12.8263 35.9749 12.8107 35.9056 12.8284C35.8436 12.8443 35.7828 12.8783 35.7145 12.8959C35.652 12.9119 35.5902 12.942 35.5225 12.9594C35.4596 12.9755 35.3893 12.9725 35.3221 12.9898C35.2588 13.006 35.2014 13.0531 35.1344 13.0703C35.0708 13.0867 35.0072 13.109 34.9404 13.1261C34.8766 13.1425 34.811 13.1575 34.7445 13.1745C34.6806 13.191 34.61 13.1863 34.5436 13.2033C34.4796 13.2197 34.4052 13.2003 34.339 13.2173C34.2748 13.2337 34.2101 13.252 34.144 13.269C34.0798 13.2854 34.026 13.3464 33.9599 13.3635C33.8957 13.3799 33.8327 13.4048 33.7667 13.4217C33.7022 13.4381 33.6346 13.4449 33.5687 13.4618C33.5042 13.4782 33.4422 13.5069 33.3764 13.5239C33.3119 13.5403 33.2376 13.5216 33.1719 13.5384C33.1073 13.5548 33.0469 13.5903 32.9812 13.6071C32.9166 13.6236 32.8564 13.6597 32.7908 13.6765C32.7261 13.693 32.6505 13.669 32.5849 13.6858C32.5202 13.7022 32.466 13.7621 32.4004 13.7789C32.3357 13.7954 32.2649 13.7907 32.1993 13.8075L32.0038 13.8575C31.939 13.8739 31.8636 13.8508 31.7981 13.8676C31.7326 13.8843 31.6714 13.9138 31.6059 13.9306C31.541 13.9472 31.4832 13.9926 31.4178 14.0093C31.3524 14.0261 31.2831 14.0242 31.2176 14.0409C31.1522 14.0577 31.0856 14.0663 31.0202 14.0831C30.9548 14.0998 30.8919 14.1234 30.8265 14.1401C30.7611 14.1569 30.7055 14.209 30.6401 14.2257C30.5747 14.2424 30.5048 14.239 30.4395 14.2557C30.3741 14.2725 30.3111 14.2962 30.2458 14.3129C30.1804 14.3296 30.1121 14.3328 30.0468 14.3495C29.9815 14.3662 29.9113 14.3628 29.8462 14.3796C29.781 14.3963 29.7271 14.4568 29.6618 14.4735C29.5965 14.4901 29.5269 14.488 29.4617 14.5046C29.3966 14.5213 29.3303 14.534 29.2653 14.5507C29.2003 14.5674 29.1302 14.5652 29.065 14.5819C28.9998 14.5985 28.946 14.6591 28.8808 14.6758C28.8157 14.6924 28.7392 14.6651 28.6739 14.6818C28.6087 14.6984 28.5467 14.7268 28.4813 14.7434C28.4159 14.76 28.353 14.785 28.2878 14.8017C28.2226 14.8184 28.1637 14.8601 28.0985 14.8769C28.0333 14.8936 27.9684 14.9122 27.9032 14.9289C27.838 14.9455 27.7651 14.9326 27.6999 14.9494C27.6348 14.9662 27.5767 15.0117 27.5115 15.0284C27.4462 15.045 27.3686 15.0138 27.3034 15.0304C27.2382 15.0471 27.1806 15.0947 27.1154 15.1114C27.0503 15.1281 26.9866 15.1516 26.9216 15.1682C26.8565 15.1848 26.7798 15.1578 26.7148 15.1744C26.6497 15.1911 26.5845 15.2091 26.5195 15.2257C26.4545 15.2423 26.3931 15.276 26.3282 15.2927C26.2632 15.3093 26.207 15.3633 26.142 15.3799C26.077 15.3965 25.9995 15.3667 25.9345 15.3833C25.8695 15.4 25.8145 15.4586 25.7497 15.4753C25.6849 15.4919 25.6162 15.4978 25.5513 15.5144C25.4864 15.531 25.4143 15.5236 25.3495 15.5402C25.2838 15.557 25.2232 15.5916 25.1584 15.6082C25.0927 15.6249 25.018 15.6044 24.9531 15.621C24.8874 15.6378 24.8324 15.694 24.7676 15.7106C24.7019 15.7274 24.6302 15.7182 24.5654 15.7348C24.4997 15.7516 24.4431 15.8018 24.3784 15.8183C24.3127 15.8351 24.2447 15.8409 24.18 15.8574C24.1143 15.8742 24.0552 15.9146 23.9906 15.9312C23.9249 15.948 23.8484 15.9208 23.7838 15.9373C23.7181 15.9542 23.6604 16.0006 23.5959 16.0171C23.53 16.034 23.4663 16.0568 23.4019 16.0733C23.3359 16.0902 23.2586 16.0596 23.1942 16.0761C23.1282 16.093 23.0736 16.1516 23.0095 16.168C22.9433 16.1849 22.8814 16.2146 22.8172 16.231C22.751 16.248 22.6831 16.2539 22.619 16.2703C22.5526 16.2873 22.4875 16.3039 22.4235 16.3202C22.3569 16.3372 22.2913 16.3522 22.2275 16.3685C22.1607 16.3856 22.0927 16.391 22.0291 16.4072C21.9621 16.4244 21.8945 16.4319 21.8311 16.448C21.7638 16.4653 21.6952 16.4691 21.6321 16.4852C21.5644 16.5026 21.5004 16.5237 21.4379 16.5397C21.3695 16.5572 21.2993 16.5543 21.2373 16.5701C21.168 16.5879 21.1084 16.6269 21.0475 16.6424C20.9764 16.6606 20.9063 16.6581 20.8473 16.6732C20.7718 16.6925 20.7193 16.7594 20.6648 16.7735C20.5954 16.7918 20.525 16.8058 20.4539 16.8155ZM19.6122 39.6196C19.5256 39.667 19.5271 39.54 19.4464 39.4832C19.3656 39.4265 19.3725 39.4167 19.2916 39.36C19.2107 39.3033 19.2041 39.3127 19.1233 39.2559C19.0424 39.1991 19.0257 39.223 18.9449 39.1662C18.8641 39.1094 18.8755 39.0931 18.7947 39.0363C18.7139 38.9795 18.7296 38.9571 18.6488 38.9003C18.568 38.8435 18.5386 38.8853 18.4578 38.8285C18.377 38.7717 18.387 38.7575 18.3062 38.7007C18.2255 38.6439 18.2277 38.6409 18.147 38.5841C18.0663 38.5274 18.0764 38.5128 17.9956 38.456C17.9148 38.3992 17.9151 38.3989 17.8343 38.3421C17.7535 38.2854 17.7542 38.2842 17.6734 38.2274C17.5926 38.1705 17.5974 38.1638 17.5166 38.107L17.355 37.9933C17.2741 37.9365 17.2784 37.9304 17.1976 37.8735C17.1167 37.8167 17.104 37.8347 17.0231 37.7779C16.9423 37.721 16.9297 37.739 16.8489 37.6821C16.768 37.6253 16.7795 37.6089 16.6987 37.552C16.6179 37.4952 16.614 37.5006 16.5332 37.4438C16.4523 37.387 16.4543 37.3842 16.3734 37.3273C16.2925 37.2704 16.2738 37.297 16.1927 37.24C16.1117 37.183 16.1046 37.1846 16.0589 37.0967C16.0128 37.0078 16.053 37.0026 16.0524 36.9025C16.0518 36.8023 16.0606 36.8023 16.0603 36.7021C16.0599 36.602 16.0458 36.602 16.0453 36.5019C16.0447 36.4017 16.0481 36.4016 16.0475 36.3015C16.047 36.2013 16.0294 36.2013 16.0288 36.1012C16.0282 36.001 16.0206 36.001 16.0199 35.9007C16.0192 35.8005 16.0079 35.8005 16.0073 35.7003C16.0068 35.6 16.0548 35.5998 16.0543 35.4995C16.0538 35.3993 16.0411 35.3994 16.0406 35.2992C16.04 35.1989 16.0539 35.1989 16.0533 35.0987C16.0527 34.9985 16.0369 34.9986 16.0362 34.8984C16.0355 34.7982 16.0653 34.7981 16.0649 34.6979C16.0645 34.5977 16.0256 34.598 16.0251 34.4978C16.0245 34.3976 16.0333 34.3976 16.0328 34.2974C16.0322 34.1972 16.0151 34.1973 16.0146 34.0971C16.014 33.997 16.002 33.997 16.0014 33.8968C16.0009 33.7966 16.0542 33.7963 16.0536 33.6961C16.053 33.5959 16.0564 33.5958 16.0558 33.4956C16.0553 33.3954 16.0046 33.3956 16.0041 33.2953C16.0035 33.195 16.048 33.1948 16.0474 33.0946C16.0468 32.9944 15.9944 32.9947 15.994 32.8945C15.9937 32.7943 16.0255 32.7941 16.025 32.6939C16.0244 32.5937 16.0201 32.5937 16.0196 32.4935C16.019 32.3933 16.0056 32.3934 16.005 32.2932C16.0045 32.193 16.0413 32.1928 16.0407 32.0926C16.0401 31.9924 15.999 31.9927 15.9985 31.8924C15.9979 31.7922 16.0142 31.7921 16.0137 31.6919C16.0131 31.5917 15.9885 31.5918 15.988 31.4915C15.9874 31.3913 15.9834 31.3913 15.9829 31.291C15.9823 31.1908 16.0346 31.1905 16.034 31.0902C16.0334 30.99 16.0012 30.9902 16.0006 30.89C16.0001 30.7897 15.9852 30.7899 15.9847 30.6896C15.9841 30.5894 16.0347 30.5891 16.0342 30.489C16.0337 30.3888 16.0213 30.3888 16.0207 30.2886C16.0201 30.1883 16.0144 30.1884 16.0138 30.0882C16.0132 29.988 16.0059 29.988 16.0054 29.8877C16.0048 29.7874 15.9895 29.7875 15.9889 29.6873C15.9884 29.587 16.0367 29.5867 16.0362 29.4865C16.0357 29.3863 16.019 29.3864 16.0185 29.2861C16.0179 29.1859 15.9711 29.1861 15.9706 29.0859C15.97 28.9857 15.987 28.9856 15.9865 28.8854C15.9861 28.7852 15.9771 28.7852 15.9765 28.685C15.976 28.5848 15.9971 28.5846 15.9965 28.4844C15.9958 28.3841 16.0194 28.384 16.0188 28.2837C16.0183 28.1834 15.9707 28.1837 15.9702 28.0834C15.9696 27.9832 15.9661 27.9832 15.9657 27.883C15.9653 27.7827 15.998 27.7825 15.9974 27.6823C15.9969 27.5821 15.9999 27.5821 15.9993 27.4818C15.9988 27.3816 16.0207 27.3815 16.0201 27.2812C16.0196 27.1809 15.9694 27.1812 15.9688 27.0809C15.9682 26.9807 15.9856 26.9806 15.9852 26.8803C15.9848 26.78 15.9972 26.78 15.9966 26.6797C15.9961 26.5795 16.0109 26.5794 16.0103 26.4792C16.0098 26.3789 15.9872 26.3791 15.9866 26.2788C15.9861 26.1785 15.9869 26.1785 15.9863 26.0782C15.9857 25.978 16.0031 25.9779 16.0027 25.8776C16.0023 25.7773 15.9889 25.7774 15.9884 25.6771C15.9878 25.5769 15.9689 25.577 15.9683 25.4768C15.9677 25.3765 15.9834 25.3764 15.9828 25.2762C15.9823 25.1759 16.0026 25.1758 16.002 25.0755C16.0015 24.9751 15.9897 24.9753 15.989 24.875C15.9882 24.7747 15.9777 24.7748 15.9772 24.6745C15.9766 24.5743 15.9886 24.5742 15.988 24.4739C15.9875 24.3737 15.9466 24.3739 15.946 24.2736C15.9454 24.1733 15.9684 24.1732 15.9678 24.0729C15.9672 23.9726 15.9426 23.9728 15.942 23.8725C15.9414 23.7723 15.9446 23.7722 15.944 23.6719C15.9435 23.5717 15.9732 23.5715 15.9728 23.4712C15.9724 23.371 15.9905 23.371 15.99 23.2707C15.9894 23.1705 15.9805 23.1706 15.9799 23.0704C15.9793 22.9702 15.9455 22.9705 15.9449 22.8703C15.9443 22.7701 15.962 22.77 15.9613 22.6698C15.9606 22.5696 15.9352 22.5696 15.9346 22.4694C15.934 22.3691 15.9769 22.3688 15.9764 22.2686C15.9758 22.1683 15.9677 22.1684 15.9671 22.0682C15.9666 21.9679 15.9457 21.9681 15.9451 21.8679C15.9446 21.7676 15.956 21.7676 15.9554 21.6673C15.9549 21.5671 15.9302 21.5671 15.9297 21.4668C15.9291 21.3665 15.942 21.3665 15.9415 21.2663C15.9411 21.166 15.9515 21.166 15.951 21.0657C15.9505 20.9655 15.9813 20.9653 15.9807 20.865C15.9801 20.7647 15.9358 20.7649 15.9352 20.6647C15.9347 20.5644 15.9259 20.5644 15.9253 20.4642C15.9247 20.364 15.948 20.3638 15.9474 20.2635C15.9469 20.1632 15.9492 20.1632 15.9487 20.0629C15.9481 19.9625 15.9585 19.9625 15.9579 19.8622C15.9573 19.7619 15.9802 19.7618 15.9796 19.6615C15.979 19.5612 15.9632 19.5613 15.9625 19.461C15.9618 19.3606 15.973 19.3606 15.9724 19.2603C15.9719 19.16 15.9552 19.1601 15.9546 19.0598C15.954 18.9595 15.9669 18.9593 15.9663 18.859C15.9657 18.7587 15.9483 18.7588 15.9477 18.6585C15.9471 18.5582 15.9214 18.5583 15.9208 18.458C15.9203 18.3577 15.9097 18.3577 15.9092 18.2573C15.9086 18.1569 15.9697 18.1566 15.9692 18.0563C15.9687 17.956 15.9717 17.956 15.9712 17.8558C15.9706 17.7556 15.9473 17.7556 15.9465 17.6552C15.9458 17.5549 15.9559 17.5549 15.9554 17.4547C15.9549 17.3544 15.9338 17.3545 15.9332 17.2541C15.9326 17.1537 15.9255 17.1538 15.925 17.0534C15.9244 16.9531 15.9578 16.9529 15.9573 16.8525C15.9568 16.7522 15.954 16.7522 15.9535 16.6518C15.9529 16.5514 15.9416 16.5515 15.9412 16.4512C15.9407 16.3509 15.9155 16.3509 15.915 16.2506C15.9144 16.1502 15.9478 16.1499 15.9472 16.0495C15.9467 15.9491 15.9288 15.9491 15.9283 15.8486C15.9278 15.7481 15.8323 15.6846 15.9201 15.6359C16.0079 15.5872 16.0063 15.7081 16.0897 15.7626C16.1732 15.8172 16.1904 15.7909 16.274 15.8455C16.3576 15.9001 16.3607 15.8952 16.4443 15.9498C16.5278 16.0044 16.5269 16.0058 16.6105 16.0604C16.694 16.115 16.682 16.1334 16.7655 16.188C16.8491 16.2426 16.8287 16.2738 16.9123 16.3284C16.9959 16.383 16.9968 16.3815 17.0803 16.4361C17.1639 16.4907 17.1889 16.4526 17.2725 16.507C17.3561 16.5615 17.3605 16.5545 17.444 16.609C17.5274 16.6636 17.522 16.6723 17.6055 16.7269C17.689 16.7814 17.6958 16.7709 17.7793 16.8254C17.8628 16.88 17.8428 16.9108 17.9264 16.9654C18.01 17.02 18.0205 17.0039 18.104 17.0584C18.1875 17.113 18.1984 17.0964 18.2821 17.151C18.3657 17.2056 18.3427 17.2408 18.4263 17.2954C18.5099 17.3501 18.5342 17.3128 18.6178 17.3675C18.7014 17.4221 18.6893 17.4407 18.7729 17.4953C18.8566 17.55 18.8565 17.55 18.9401 17.6046C19.0236 17.6592 19.0011 17.6937 19.0847 17.7484C19.1683 17.803 19.1756 17.7918 19.2593 17.8464C19.3429 17.9011 19.3592 17.8764 19.443 17.9311C19.5267 17.9858 19.5502 17.9658 19.5977 18.0539C19.6452 18.142 19.5887 18.1512 19.5887 18.2518C19.5887 18.3524 19.5959 18.3524 19.5959 18.453C19.5959 18.5537 19.6326 18.5536 19.6326 18.6543C19.6326 18.755 19.6121 18.755 19.6121 18.8556C19.6121 18.9563 19.6195 18.9563 19.6195 19.0569C19.6195 19.1576 19.6055 19.1576 19.6055 19.2582C19.6055 19.3588 19.585 19.3589 19.585 19.4595C19.585 19.56 19.6301 19.5602 19.6301 19.6608C19.6301 19.7614 19.6107 19.7614 19.6107 19.8621C19.6107 19.9627 19.6066 19.9627 19.6066 20.0633C19.6066 20.164 19.5872 20.164 19.5872 20.2646C19.5872 20.3653 19.6323 20.3652 19.6323 20.4659C19.6323 20.5666 19.5869 20.5665 19.5869 20.6672C19.5869 20.7679 19.5989 20.7679 19.5989 20.8685C19.5989 20.9691 19.6074 20.9691 19.6074 21.0698C19.6074 21.1704 19.6333 21.1704 19.6333 21.2711C19.6333 21.3717 19.6352 21.3718 19.6352 21.4724C19.6352 21.573 19.6047 21.5731 19.6047 21.6737C19.6047 21.7742 19.6344 21.7744 19.6344 21.8749C19.6344 21.9755 19.5849 21.9756 19.5849 22.0762C19.5849 22.1768 19.6167 22.1769 19.6167 22.2775C19.6167 22.3782 19.6236 22.3782 19.6236 22.4788C19.6236 22.5794 19.5785 22.5794 19.5785 22.6801C19.5785 22.7807 19.5798 22.7807 19.5798 22.8814C19.5798 22.982 19.5972 22.982 19.5972 23.0827C19.5972 23.1833 19.6355 23.1834 19.6355 23.284C19.6355 23.3846 19.5869 23.3853 19.5869 23.486C19.5869 23.5867 19.6301 23.5867 19.6301 23.6873C19.6301 23.7879 19.6189 23.788 19.6189 23.8886C19.6189 23.9891 19.5939 23.9892 19.5939 24.0898C19.5939 24.1904 19.6123 24.1905 19.6123 24.2911C19.6123 24.3918 19.5739 24.3918 19.5739 24.4924C19.5739 24.593 19.6147 24.5931 19.6147 24.6937C19.6147 24.7943 19.588 24.7944 19.588 24.895C19.588 24.9956 19.6226 24.9957 19.6226 25.0963C19.6226 25.1969 19.6113 25.197 19.6113 25.2976C19.6113 25.3982 19.6359 25.3983 19.6359 25.4991C19.6359 25.5998 19.5908 25.5998 19.5908 25.7004C19.5908 25.801 19.6214 25.801 19.6214 25.9016C19.6214 26.0022 19.6277 26.0023 19.6277 26.1029C19.6277 26.2035 19.5791 26.2036 19.5791 26.3042C19.5791 26.4048 19.6222 26.4049 19.6222 26.5055C19.6222 26.6062 19.6356 26.6062 19.6356 26.7068C19.6356 26.8074 19.6245 26.8075 19.6245 26.9081C19.6245 27.0086 19.6245 27.0088 19.6245 27.1094C19.6245 27.2099 19.6228 27.2101 19.6228 27.3107C19.6228 27.4113 19.6111 27.4113 19.6111 27.5119C19.6111 27.6126 19.6016 27.6126 19.6016 27.7132C19.6016 27.8138 19.5883 27.8139 19.5883 27.9145C19.5883 28.0151 19.593 28.0152 19.593 28.1158C19.593 28.2164 19.5727 28.2165 19.5727 28.3171C19.5727 28.4177 19.5958 28.4178 19.5958 28.5184C19.5958 28.619 19.5759 28.6191 19.5759 28.7197C19.5759 28.8203 19.6278 28.8204 19.6278 28.921C19.6278 29.0216 19.5994 29.0217 19.5994 29.1223C19.5994 29.2228 19.5811 29.223 19.5811 29.3235C19.5811 29.4241 19.6185 29.4243 19.6185 29.5248C19.6185 29.6254 19.6235 29.6256 19.6235 29.7261C19.6235 29.8267 19.5813 29.8268 19.5813 29.9274C19.5813 30.028 19.6103 30.0281 19.6103 30.1287C19.6103 30.2293 19.5765 30.2294 19.5765 30.33C19.5765 30.4305 19.5772 30.4307 19.5772 30.5313C19.5772 30.6318 19.6064 30.632 19.6064 30.7326C19.6064 30.8331 19.5779 30.8333 19.5779 30.9338C19.5779 31.0344 19.5875 31.0346 19.5875 31.1351C19.5875 31.2357 19.6139 31.2359 19.6139 31.3364C19.6139 31.437 19.5821 31.4371 19.5821 31.5377C19.5821 31.6383 19.6348 31.6384 19.6348 31.739C19.6348 31.8396 19.6172 31.8397 19.6172 31.9403C19.6172 32.0409 19.6205 32.0409 19.6205 32.1416C19.6205 32.2422 19.5876 32.2422 19.5876 32.3429C19.5876 32.4435 19.5958 32.4435 19.5958 32.5441C19.5958 32.6448 19.6235 32.6449 19.6235 32.7454C19.6235 32.846 19.6329 32.8462 19.6329 32.9467C19.6329 33.0473 19.6278 33.0474 19.6278 33.148C19.6278 33.2486 19.6029 33.2487 19.6029 33.3493C19.6029 33.4499 19.6063 33.45 19.6063 33.5506C19.6063 33.6511 19.6227 33.6514 19.6227 33.7522C19.6227 33.853 19.6346 33.8528 19.6346 33.9535C19.6346 34.0541 19.6069 34.0541 19.6069 34.1547C19.6069 34.2553 19.6262 34.2555 19.6262 34.356C19.6262 34.4566 19.5724 34.4568 19.5724 34.5576C19.5724 34.6583 19.6217 34.6582 19.6217 34.7588C19.6217 34.8595 19.6072 34.8596 19.6072 34.9601C19.6072 35.0607 19.5837 35.0609 19.5837 35.1617C19.5837 35.2625 19.5854 35.2624 19.5854 35.363C19.5854 35.4636 19.6011 35.4638 19.6011 35.5645C19.6011 35.6653 19.6355 35.6653 19.6355 35.7658C19.6355 35.8663 19.6173 35.8666 19.6173 35.9674C19.6173 36.0682 19.6224 36.0681 19.6224 36.1687C19.6224 36.2692 19.628 36.2695 19.628 36.3703C19.628 36.4711 19.6129 36.471 19.6129 36.5716C19.6129 36.6722 19.6208 36.6724 19.6208 36.7732C19.6208 36.874 19.5885 36.874 19.5885 36.9748C19.5885 37.0756 19.5783 37.0756 19.5783 37.1764C19.5783 37.2772 19.6196 37.2771 19.6196 37.3777C19.6196 37.4783 19.5771 37.4785 19.5771 37.5793C19.5771 37.6801 19.6155 37.68 19.6155 37.7806C19.6155 37.8811 19.6073 37.8814 19.6073 37.9821C19.6073 38.0829 19.6014 38.0829 19.6014 38.1838C19.6014 38.2846 19.5976 38.2846 19.5976 38.3854C19.5976 38.4863 19.5798 38.4863 19.5798 38.5871C19.5798 38.6879 19.6024 38.6879 19.6024 38.7887C19.6024 38.8895 19.5762 38.8895 19.5762 38.9903C19.5762 39.0911 19.6162 39.0912 19.6162 39.1921C19.6162 39.293 19.5584 39.3016 19.584 39.3993C19.6137 39.5229 19.7008 39.5712 19.6122 39.6196Z" fill="white"/>
</g>
<defs>
<clipPath id="clip0">
<rect x="14.333" y="9.33325" width="24.1667" height="32.5" fill="white"/>
</clipPath>
</defs>
</svg>
