<svg width="60" height="60" viewBox="0 0 60 60" fill="none" xmlns="http://www.w3.org/2000/svg">
<circle cx="30" cy="30" r="30" fill="white"/>
<path d="M43.6522 41.9259L34.4078 32.6811C36.0327 30.616 36.8076 28.0081 36.5739 25.3907C36.3402 22.7733 35.1156 20.344 33.1505 18.5994C31.1854 16.8547 28.6281 15.9266 26.0015 16.0045C23.3748 16.0825 20.8771 17.1608 19.019 19.019C17.1608 20.8771 16.0825 23.3748 16.0045 26.0015C15.9266 28.6281 16.8547 31.1854 18.5994 33.1505C20.344 35.1156 22.7733 36.3402 25.3907 36.5739C28.0081 36.8076 30.616 36.0327 32.6811 34.4078L41.9259 43.6522C42.1557 43.8768 42.4648 44.0018 42.7862 44C43.1075 43.9982 43.4152 43.8697 43.6424 43.6424C43.8697 43.4152 43.9982 43.1075 44 42.7862C44.0018 42.4648 43.8768 42.1557 43.6522 41.9259ZM31.8716 31.8716C30.5878 33.1536 28.8992 33.9508 27.0936 34.1275C25.2879 34.3041 23.4768 33.8492 21.9689 32.8403C20.461 31.8314 19.3496 30.3309 18.8239 28.5945C18.2983 26.858 18.3909 24.993 19.0861 23.3172C19.7813 21.6414 21.036 20.2584 22.6365 19.404C24.237 18.5495 26.0842 18.2764 27.8635 18.6312C29.6428 18.9859 31.244 19.9466 32.3944 21.3495C33.5448 22.7525 34.1732 24.5109 34.1725 26.3252C34.1731 27.3557 33.9702 28.3762 33.5754 29.3281C33.1805 30.2799 32.6015 31.1444 31.8716 31.8719V31.8716Z" fill="#15923B" stroke="#15923B"/>
</svg>
