<svg width="24" height="26" viewBox="0 0 24 26" fill="none" xmlns="http://www.w3.org/2000/svg">
<path fill-rule="evenodd" clip-rule="evenodd" d="M20.0886 7.05919H21.7384C22.4177 7.05919 23 7.58323 23.0323 8.2614V23.7978C23.0323 24.476 22.4501 25.0308 21.7384 25.0308H1.29395C0.582278 25.0308 0 24.476 0 23.7978V8.29223C0 7.61406 0.582278 7.05919 1.29395 7.05919H2.94374C3.55837 3.05179 7.18143 0 11.5162 0C15.8509 0 19.4416 3.05179 20.0886 7.05919ZM17.5007 7.02836C16.8861 4.40814 14.4599 2.43527 11.5162 2.43527C8.57243 2.43527 6.11392 4.40814 5.53165 7.02836H17.5007ZM2.55556 22.5647H20.4444V9.49445H2.55556V22.5647ZM9.38086 14.5189C9.38086 13.4092 10.3513 12.4844 11.5159 12.4844C12.6804 12.4844 13.6186 13.4092 13.6509 14.5189C13.6509 15.1662 13.3274 15.7519 12.8098 16.1219V18.8654C12.8098 19.5436 12.2276 20.0984 11.5159 20.0984C10.8042 20.0984 10.2219 19.5436 10.2219 18.8654V16.1219C9.70435 15.7519 9.38086 15.1662 9.38086 14.5189Z" fill="#15923B"/>
</svg>
