<svg width="375" height="155" viewBox="0 0 375 155" fill="none" xmlns="http://www.w3.org/2000/svg">
<g clip-path="url(#clip0)">
<path d="M0 20C0 8.95431 8.95431 0 20 0H355C366.046 0 375 8.95431 375 20V155H0V20Z" fill="white"/>
<g filter="url(#filter0_d)">
<path d="M25 115C25 103.954 33.9543 95 45 95H91C102.046 95 111 103.954 111 115V115C111 126.046 102.046 135 91 135H45C33.9543 135 25 126.046 25 115V115Z" fill="#3290FF"/>
<path d="M56.7795 106.34V121.76C56.7795 122.14 56.6195 122.28 56.1795 122.28C55.7395 122.3 54.2595 122.3 52.9595 122.24C53.3195 122.9 53.7595 124.02 53.8995 124.72C55.8395 124.72 57.1995 124.64 58.1395 124.26C59.0195 123.88 59.3595 123.22 59.3595 121.76V106.34H56.7795ZM61.5395 111.56C63.1195 114.48 64.6395 118.24 65.0395 120.66L67.6395 119.64C67.1395 117.14 65.4995 113.52 63.8795 110.68L61.5395 111.56ZM51.5395 110.9C51.1195 113.5 50.1195 117 48.5195 119.02C49.1395 119.3 50.2395 119.86 50.8395 120.26C52.4995 118.06 53.5795 114.34 54.2595 111.36L51.5395 110.9Z" fill="white"/>
<path d="M75.3595 106.68H69.7195V108.48H75.3595V106.68ZM76.0795 109.44H68.6595V111.32H76.0795V109.44ZM75.3595 112.3H69.5995V114.08H75.3595V112.3ZM69.5995 116.88H75.3595V115.08H69.5995V116.88ZM84.2395 114.64H79.0395V111.72H84.2395V114.64ZM73.4795 122.06H71.5395V119.78H73.4795V122.06ZM84.5595 122.48C84.2795 122.48 84.2595 122.4 84.2595 121.82V116.66H86.6795V109.68H84.9395C85.3595 108.86 85.8995 107.76 86.3795 106.64L83.9195 106.04C83.6795 107.04 83.1595 108.44 82.7395 109.36L83.8395 109.68H79.6195L80.6395 109.32C80.3795 108.42 79.7595 107.12 79.0995 106.14L77.0195 106.82C77.5195 107.7 78.0395 108.82 78.3195 109.68H76.7795V116.66H78.5995C78.3995 119.18 77.9795 121.42 75.4995 122.82V117.9H69.5395V124.72H71.5395V123.94H75.4995V123.06C76.0395 123.54 76.6195 124.28 76.8795 124.82C80.0195 122.98 80.7195 120.04 80.9595 116.66H81.9995V121.84C81.9995 123.88 82.3995 124.58 84.1595 124.58H85.4595C86.9195 124.58 87.4595 123.74 87.6395 120.54C87.0395 120.38 86.0795 120 85.6395 119.64C85.5995 122.12 85.5195 122.48 85.1995 122.48H84.5595Z" fill="white"/>
</g>
<g filter="url(#filter1_d)">
<path d="M126 115C126 103.954 134.954 95 146 95H192C203.046 95 212 103.954 212 115V115C212 126.046 203.046 135 192 135H146C134.954 135 126 126.046 126 115V115Z" fill="#FF993A"/>
<path d="M159.299 112.18C160.559 110.96 161.639 109.6 162.379 108.46C163.199 109.6 164.399 111 165.679 112.18H159.299ZM158.919 114.24H166.139V112.6C166.519 112.94 166.919 113.26 167.299 113.54C167.679 112.82 168.219 111.98 168.719 111.4C166.799 110.28 164.779 108.14 163.399 106.18H161.199C160.219 107.96 158.159 110.36 156.139 111.72C156.579 112.22 157.159 113.12 157.459 113.74C157.959 113.38 158.439 112.98 158.919 112.54V114.24ZM150.419 117.76C150.259 119.44 149.939 121.22 149.359 122.4C149.879 122.58 150.759 123 151.179 123.26C151.759 121.98 152.179 119.98 152.379 118.1L150.419 117.76ZM154.759 118.12C155.219 119.3 155.739 120.84 155.919 121.84L157.679 121.2C157.459 120.2 156.939 118.74 156.439 117.6L154.759 118.12ZM163.459 119.58C163.899 120.18 164.359 120.88 164.799 121.6C163.579 121.68 162.339 121.78 161.179 121.86C161.699 120.68 162.259 119.24 162.759 117.86H167.999V115.78H157.619V116.48C157.339 115.36 156.619 113.78 155.919 112.52L154.339 113.18C154.579 113.62 154.819 114.12 155.039 114.62L153.119 114.7C154.379 113.08 155.759 111.06 156.859 109.32L154.919 108.42C154.459 109.4 153.819 110.54 153.139 111.66C152.939 111.42 152.719 111.14 152.459 110.86C153.179 109.74 153.979 108.2 154.699 106.84L152.639 106.08C152.299 107.14 151.739 108.46 151.179 109.56C151.019 109.42 150.859 109.28 150.719 109.16L149.579 110.78C150.399 111.58 151.359 112.64 151.939 113.5C151.619 113.96 151.299 114.4 150.999 114.78L149.559 114.84L149.759 116.9L152.659 116.72V124.76H154.719V116.58L155.739 116.5C155.859 116.88 155.939 117.22 155.999 117.52L157.619 116.78V117.86H160.139C159.779 119.24 159.239 120.86 158.719 122.04C157.979 122.08 157.299 122.12 156.699 122.16L157.079 124.32C159.479 124.08 162.759 123.82 165.859 123.52C166.099 124.02 166.319 124.48 166.459 124.88L168.459 123.8C167.879 122.34 166.579 120.22 165.319 118.64L163.459 119.58Z" fill="white"/>
<path d="M180.239 118.94V114.54C181.139 116.16 182.219 117.66 183.419 118.94H180.239ZM174.599 118.94C175.779 117.66 176.839 116.18 177.739 114.58V118.94H174.599ZM187.819 112.34V109.94H180.239V106.08H177.739V109.94H170.219V112.34H176.319C174.779 115.42 172.259 118.3 169.439 119.84C169.999 120.3 170.759 121.22 171.179 121.82C172.279 121.12 173.339 120.26 174.299 119.26V121.36H177.739V124.74H180.239V121.36H183.559V119.08C184.559 120.14 185.659 121.04 186.819 121.76C187.239 121.08 188.059 120.08 188.659 119.6C185.799 118.1 183.239 115.34 181.679 112.34H187.819Z" fill="white"/>
</g>
<g filter="url(#filter2_d)">
<path d="M227 115C227 103.954 235.954 95 247 95H293C304.046 95 313 103.954 313 115V115C313 126.046 304.046 135 293 135H247C235.954 135 227 126.046 227 115V115Z" fill="#BB6BD9"/>
<path d="M256.861 108.2C256.041 107.5 254.381 106.62 253.101 106.14L251.801 107.9C253.081 108.46 254.721 109.42 255.461 110.14L256.861 108.2ZM255.661 113.5C254.841 112.82 253.141 111.98 251.881 111.5L250.641 113.28C251.921 113.84 253.561 114.76 254.341 115.46L255.661 113.5ZM254.921 116.64C253.761 118.94 252.321 121.42 251.301 122.92L253.341 124.48C254.501 122.56 255.701 120.28 256.701 118.18L254.921 116.64ZM269.321 118.26H264.141V116.16H268.201V113.96H264.141V111.94H268.921V109.7H266.501C267.001 108.9 267.581 107.86 268.141 106.8L265.561 106.04C265.221 107.08 264.581 108.48 264.021 109.4L264.941 109.7H260.981L261.881 109.32C261.581 108.38 260.801 107.08 260.041 106.08L257.921 106.96C258.501 107.8 259.081 108.86 259.401 109.7H257.101V111.94H261.661V113.96H257.781V116.16H261.661V118.26H256.701V120.54H261.661V124.74H264.141V120.54H269.321V118.26Z" fill="white"/>
<path d="M284.381 119.82V120.54H275.821V119.82H284.381ZM275.821 122.7V121.92H284.381V122.7H275.821ZM273.521 124.8H275.821V124.2H284.381V124.78H286.781V118.3H273.521V124.8ZM281.101 111.02H284.321V111.78H281.101V111.02ZM281.101 108.64H284.321V109.38H281.101V108.64ZM286.681 113.16V111.02H288.961V109.38H286.681V107.26H281.101V106H278.721V107.26H273.081V108.64H278.721V109.38H271.041V111.02H278.721V111.78H272.861V113.16H278.721V113.86H272.421V115.3H278.721V116.02H271.021V117.68H288.961V116.02H281.101V115.3H287.501V113.86H281.101V113.16H286.681Z" fill="white"/>
</g>
<g filter="url(#filter3_d)">
<path d="M328 115C328 103.954 336.954 95 348 95H394C405.046 95 414 103.954 414 115V115C414 126.046 405.046 135 394 135H348C336.954 135 328 126.046 328 115V115Z" fill="#FF7E7E"/>
<path d="M345.899 107.7L346.019 110.26C346.659 110.18 347.319 110.12 347.819 110.08C348.639 110 351.099 109.88 351.919 109.82C350.679 110.92 348.079 113.2 346.299 114.36C345.239 114.48 343.839 114.66 342.779 114.76L343.019 117.18C345.019 116.84 347.259 116.54 349.099 116.38C348.339 117.08 347.639 118.32 347.639 119.54C347.639 122.88 350.619 124.42 355.739 124.2L356.279 121.58C355.519 121.64 354.339 121.64 353.219 121.52C351.439 121.32 350.199 120.7 350.199 119.12C350.199 117.48 351.719 116.18 353.559 115.94C354.779 115.76 356.779 115.78 358.699 115.88V113.52C356.259 113.52 352.939 113.74 350.259 114C351.639 112.94 353.599 111.28 355.019 110.14C355.439 109.8 356.179 109.32 356.599 109.04L355.019 107.2C354.739 107.3 354.279 107.38 353.639 107.46C352.419 107.58 348.659 107.76 347.799 107.76C347.119 107.76 346.539 107.74 345.899 107.7Z" fill="white"/>
<path d="M379.539 115.96C379.539 111.6 376.419 108.16 371.459 108.16C366.279 108.16 362.279 112.1 362.279 116.72C362.279 120.1 364.119 122.54 366.339 122.54C368.519 122.54 370.239 120.06 371.439 116.02C372.019 114.14 372.359 112.3 372.639 110.6C375.339 111.06 376.839 113.12 376.839 115.88C376.839 118.8 374.839 120.64 372.279 121.24C371.739 121.36 371.179 121.48 370.419 121.56L371.919 123.94C376.959 123.16 379.539 120.18 379.539 115.96ZM364.839 116.46C364.839 114.26 366.619 111.34 369.919 110.66C369.699 112.32 369.319 114.02 368.859 115.5C368.039 118.2 367.259 119.46 366.419 119.46C365.639 119.46 364.839 118.48 364.839 116.46Z" fill="white"/>
<path d="M385.879 106.12C384.879 108.98 383.139 111.82 381.319 113.62C381.719 114.18 382.379 115.48 382.599 116.02C383.019 115.58 383.439 115.08 383.859 114.52V124.7H386.219V110.86C386.919 109.56 387.559 108.18 388.079 106.84L385.879 106.12ZM392.699 122.3C391.399 122.3 391.199 122.12 391.199 120.92V114.52L393.139 113.76V120H395.359V112.88L397.439 112.06C397.419 114.68 397.379 116 397.319 116.34C397.219 116.74 397.079 116.82 396.799 116.82C396.579 116.82 396.019 116.8 395.579 116.78C395.859 117.3 396.059 118.3 396.099 118.96C396.799 118.98 397.759 118.96 398.339 118.68C399.019 118.4 399.379 117.88 399.479 116.88C399.599 116 399.639 113.6 399.659 110.12L399.739 109.76L398.119 109.14L397.359 109.68L395.359 110.46V106.14H393.139V111.32L391.199 112.08V108.28H388.839V113L386.419 113.94L387.339 116.04L388.839 115.46V120.92C388.839 123.66 389.639 124.44 392.499 124.44H396.919C399.439 124.44 400.139 123.44 400.439 120.48C399.799 120.32 398.839 119.92 398.319 119.56C398.119 121.82 397.919 122.3 396.739 122.3H392.699Z" fill="white"/>
</g>
<path d="M33.0197 75.5801C33.9797 73.9801 35.0397 72.1001 35.8797 70.4001L34.2397 69.0201C33.2397 70.9201 31.9797 72.9201 31.0997 74.1601L33.0197 75.5801ZM35.2997 66.6001C34.5597 66.0201 33.0797 65.2601 31.9397 64.8601L30.6797 66.4801C31.7997 66.9801 33.2397 67.8001 33.9597 68.4001L35.2997 66.6001ZM31.5397 62.7801C32.6397 63.2601 34.0197 64.0801 34.6997 64.6601L36.0597 62.9001C35.3397 62.3201 33.8997 61.5801 32.8597 61.1601L31.5397 62.7801ZM45.9797 67.2401V68.1801H43.5397V67.2401H45.9797ZM43.5397 70.8201V69.8401H45.9797V70.8201H43.5397ZM39.0997 70.8201V69.8401H41.2997V70.8201H39.0997ZM41.2997 67.2401V68.1801H39.0997V67.2401H41.2997ZM49.0197 64.4201V62.5401H47.4397L48.0797 61.7201C47.4997 61.2601 46.4597 60.6601 45.5797 60.3001L44.5397 61.5401C45.0797 61.7801 45.7197 62.1601 46.2397 62.5401H43.5397V61.3601H44.4797V60.1601H48.9397V58.1001H44.4797V57.0801H42.0997V58.1001H37.8397V57.0801H35.4797V58.1001H31.0997V60.1601H35.4797V61.3601H37.8397V60.1601H42.0997V61.0801H41.2997V62.5401H36.1597V64.4201H41.2997V65.4801H36.8597V75.6801H39.0997V72.4801H41.2997V75.6201H43.5397V72.4801H45.9797V73.5601C45.9797 73.7801 45.8997 73.8401 45.6797 73.8601C45.4597 73.8601 44.7397 73.8601 44.0997 73.8201C44.3597 74.3601 44.6397 75.1201 44.7197 75.7001C45.8997 75.7001 46.7997 75.6801 47.4397 75.3601C48.0797 75.0401 48.2797 74.5601 48.2797 73.5801V65.4801H43.5397V64.4201H49.0197Z" fill="#333333"/>
<path d="M61.0797 71.9001V67.4601H65.8797V71.9001H61.0797ZM54.0597 67.4601H58.6597V71.9001H54.0597V67.4601ZM58.6597 60.6801V65.0801H54.0597V60.6801H58.6597ZM65.8797 65.0801H61.0797V60.6801H65.8797V65.0801ZM51.6797 58.3801V75.5201H54.0597V74.3001H65.8797V75.5201H68.3597V58.3801H51.6797Z" fill="#333333"/>
<path d="M80.6397 57.9601H77.6997C77.7797 58.4401 77.8397 59.3601 77.8397 59.8001C77.8397 60.4001 77.8197 60.9801 77.7997 61.5401H74.9397C74.1797 61.5401 73.1397 61.4801 72.2997 61.4001V64.0201C73.1597 63.9401 74.2597 63.9401 74.9397 63.9401H77.5797C77.1397 66.9801 76.1397 69.2201 74.2797 71.0601C73.4797 71.8801 72.4797 72.5601 71.6597 73.0201L73.9797 74.9001C77.5597 72.3601 79.4597 69.2201 80.1997 63.9401H84.6997C84.6997 66.1001 84.4397 70.1001 83.8597 71.3601C83.6397 71.8401 83.3597 72.0601 82.7197 72.0601C81.9397 72.0601 80.8997 71.9601 79.9197 71.7801L80.2397 74.4601C81.1997 74.5401 82.3997 74.6201 83.5397 74.6201C84.9197 74.6201 85.6797 74.1001 86.1197 73.0801C86.9797 71.0401 87.2197 65.4601 87.2997 63.3001C87.2997 63.0801 87.3797 62.5601 87.4397 62.2401L85.6997 61.4001C85.2197 61.4801 84.6997 61.5401 84.1997 61.5401H80.4397C80.4797 60.9601 80.4997 60.3601 80.5197 59.7401C80.5397 59.2601 80.5797 58.4201 80.6397 57.9601Z" fill="#333333"/>
<path d="M107.78 60.6801L105.82 59.4201C105.28 59.5601 104.64 59.5801 104.24 59.5801H94.9997C94.3397 59.5801 93.1997 59.4801 92.5997 59.4201V62.2401C93.1197 62.2001 94.0797 62.1601 94.9797 62.1601H104.3C104.04 63.8601 103.28 66.1401 101.96 67.8001C100.34 69.8201 98.0797 71.5601 94.1197 72.5001L96.2997 74.8801C99.8597 73.7401 102.52 71.7601 104.34 69.3601C106 67.1401 106.88 64.0401 107.34 62.0801C107.44 61.6601 107.6 61.0801 107.78 60.6801Z" fill="#333333"/>
<path d="M113.94 63.1601V65.6801C114.38 65.6401 115.1 65.6001 115.52 65.6001H118.64V72.0401H114.56C114.06 72.0401 113.44 71.9801 112.92 71.9201V74.5401C113.46 74.4601 114.08 74.4401 114.56 74.4401H125.62C125.96 74.4401 126.7 74.4601 127.14 74.5401V71.9201C126.72 71.9601 126.16 72.0401 125.62 72.0401H121.26V65.6001H124.68C125.14 65.6001 125.74 65.6401 126.24 65.6801V63.1601C125.76 63.2201 125.16 63.2601 124.68 63.2601H115.52C115.08 63.2601 114.38 63.2401 113.94 63.1601Z" fill="#333333"/>
<path d="M28.0808 28.8718V33.7158H27.1428V28.8718H28.0808ZM29.3408 35.1998V27.3878H25.8828V36.3058H27.1428V35.1998H29.3408ZM38.3148 35.6478V34.2198H34.5768C34.6328 33.8418 34.6608 33.4358 34.6888 33.0158H34.2268C35.5428 32.0358 35.8788 30.4958 35.9908 28.3538H36.8868C36.8308 30.6078 36.7468 31.4478 36.5928 31.6858C36.4948 31.8118 36.3968 31.8398 36.2568 31.8398C36.0888 31.8398 35.8228 31.8398 35.4868 31.7978C35.6828 32.1338 35.8088 32.6798 35.8228 33.0718C36.2988 33.0858 36.7328 33.0718 36.9988 33.0158C37.3208 32.9598 37.5728 32.8478 37.7968 32.5538C38.1048 32.1338 38.2028 30.8878 38.2728 27.5838C38.2868 27.4298 38.2868 27.0518 38.2868 27.0518H33.8628V28.3538H34.6188C34.5628 29.8378 34.3808 30.9158 33.6668 31.6858L33.6248 31.1398L32.4348 31.3078V30.4538H33.5828V29.2918H32.4348V28.4938H33.6248V27.2898H32.4348V26.2258H31.0488V27.2898H29.7188V28.4938H31.0488V29.2918H29.8448V30.4538H31.0488V31.5038C30.4468 31.5878 29.9008 31.6578 29.4388 31.6998L29.6768 33.0858C30.6568 32.9038 31.8468 32.6798 33.0648 32.4418C33.2188 32.6098 33.4008 32.8198 33.5268 33.0158H33.0228C32.9948 33.4498 32.9668 33.8558 32.9108 34.2198H29.5368V35.6478H32.5328C32.0428 36.7258 31.0068 37.4258 28.7248 37.8738C29.0468 38.2098 29.4668 38.8258 29.6068 39.2318C32.0008 38.6858 33.2328 37.8318 33.9048 36.5998C34.6608 37.9858 35.8088 38.8398 37.7128 39.2318C37.9228 38.7838 38.3568 38.1118 38.7068 37.7758C36.8448 37.5238 35.6828 36.8098 35.0388 35.6478H38.3148Z" fill="black" fill-opacity="0.2"/>
<path d="M42.5568 29.9498H44.2088V28.7178H47.6528V29.9498H49.3188V28.7178H52.2168V27.1918H49.3188V26.1558H47.6528V27.1918H44.2088V26.1558H42.5568V27.1918H39.8128V28.7178H42.5568V29.9498ZM42.3748 35.4938C41.8568 36.4318 40.8628 37.3418 39.8268 37.9018C40.2328 38.1538 40.9608 38.6718 41.2828 39.0078C42.3188 38.3078 43.4528 37.1738 44.1108 35.9838L42.3748 35.4938ZM41.9548 33.5758C43.6208 32.7918 45.1468 31.7558 45.9728 30.7198C46.8968 31.8118 48.5488 32.8478 50.1868 33.5758H46.7708V32.1898H45.0908V33.5758H41.9548ZM50.4248 35.1158V33.6738C50.9008 33.8838 51.3628 34.0518 51.8108 34.1918C52.0348 33.7298 52.3708 33.0998 52.7488 32.6798C50.5228 32.1758 48.2828 31.0558 46.7568 29.2918H45.0488C43.9288 30.7338 41.7448 32.1618 39.3648 32.8478C39.6588 33.2118 40.0368 33.8418 40.2048 34.2758C40.6668 34.1218 41.1288 33.9398 41.5908 33.7438V35.1158H45.0908V39.2178H46.7708V35.1158H50.4248ZM47.8068 36.3058C48.7868 37.0898 50.0048 38.2098 50.5508 38.9098L52.0068 37.9438C51.3768 37.2158 50.1168 36.1518 49.1648 35.4518L47.8068 36.3058Z" fill="black" fill-opacity="0.2"/>
<path d="M63.6828 37.2438H58.7128V35.3398H63.6828V37.2438ZM61.8488 29.5578H60.1548V33.8698H57.0888V39.2178H58.7128V38.6998H63.6828V39.2038H65.3908V33.8698H61.8488V32.3438H66.2168V30.8738H61.8488V29.5578ZM61.3028 27.7658V26.1558H59.5668V27.7658H54.5828V31.2938C54.5828 33.3098 54.4848 36.2498 53.3368 38.2518C53.7288 38.4338 54.4708 38.9098 54.7788 39.1898C56.0388 37.0058 56.2488 33.5478 56.2488 31.2938V29.3478H66.3988V27.7658H61.3028Z" fill="black" fill-opacity="0.2"/>
<path d="M350 33C350 42.9411 341.941 51 332 51C322.059 51 314 42.9411 314 33C314 23.0589 322.059 15 332 15C341.941 15 350 23.0589 350 33Z" fill="black" fill-opacity="0.2"/>
<path d="M342.63 41.071L339.689 36.9448V30.4445C339.689 26.7987 336.926 23.7181 333.162 23.1811V21.9093C333.162 21.3158 332.662 20.8071 332.015 20.8071C331.398 20.8071 330.869 21.2876 330.869 21.9093V23.1811C327.134 23.7181 324.341 26.8269 324.341 30.4445V36.9448L321.401 41.071C321.048 41.5797 321.166 42.258 321.695 42.5972C321.871 42.7102 322.107 42.795 322.342 42.795H328.075C328.193 44.8864 330.045 46.4691 332.221 46.3278C334.191 46.2147 335.779 44.6886 335.896 42.795H341.63C342.247 42.795 342.777 42.3146 342.777 41.6928C342.835 41.4667 342.777 41.2406 342.63 41.071ZM332.045 25.2725C335.014 25.2725 337.425 27.59 337.425 30.4445V36.21H326.664V30.4445C326.664 27.59 329.075 25.2725 332.045 25.2725ZM333.515 43.2472C333.133 44.0385 332.133 44.3494 331.31 43.982C330.927 43.8124 330.604 43.4733 330.486 43.0776C330.457 42.9646 330.428 42.8798 330.398 42.7668H333.632C333.632 42.9363 333.603 43.1059 333.515 43.2472ZM324.547 40.5906L326.105 38.3861H337.955L339.513 40.5906H324.547Z" fill="white"/>
</g>
<defs>
<filter id="filter0_d" x="15" y="85" width="106" height="60" filterUnits="userSpaceOnUse" color-interpolation-filters="sRGB">
<feFlood flood-opacity="0" result="BackgroundImageFix"/>
<feColorMatrix in="SourceAlpha" type="matrix" values="0 0 0 0 0 0 0 0 0 0 0 0 0 0 0 0 0 0 127 0"/>
<feOffset/>
<feGaussianBlur stdDeviation="5"/>
<feColorMatrix type="matrix" values="0 0 0 0 0 0 0 0 0 0 0 0 0 0 0 0 0 0 0.1 0"/>
<feBlend mode="normal" in2="BackgroundImageFix" result="effect1_dropShadow"/>
<feBlend mode="normal" in="SourceGraphic" in2="effect1_dropShadow" result="shape"/>
</filter>
<filter id="filter1_d" x="116" y="85" width="106" height="60" filterUnits="userSpaceOnUse" color-interpolation-filters="sRGB">
<feFlood flood-opacity="0" result="BackgroundImageFix"/>
<feColorMatrix in="SourceAlpha" type="matrix" values="0 0 0 0 0 0 0 0 0 0 0 0 0 0 0 0 0 0 127 0"/>
<feOffset/>
<feGaussianBlur stdDeviation="5"/>
<feColorMatrix type="matrix" values="0 0 0 0 0 0 0 0 0 0 0 0 0 0 0 0 0 0 0.1 0"/>
<feBlend mode="normal" in2="BackgroundImageFix" result="effect1_dropShadow"/>
<feBlend mode="normal" in="SourceGraphic" in2="effect1_dropShadow" result="shape"/>
</filter>
<filter id="filter2_d" x="217" y="85" width="106" height="60" filterUnits="userSpaceOnUse" color-interpolation-filters="sRGB">
<feFlood flood-opacity="0" result="BackgroundImageFix"/>
<feColorMatrix in="SourceAlpha" type="matrix" values="0 0 0 0 0 0 0 0 0 0 0 0 0 0 0 0 0 0 127 0"/>
<feOffset/>
<feGaussianBlur stdDeviation="5"/>
<feColorMatrix type="matrix" values="0 0 0 0 0 0 0 0 0 0 0 0 0 0 0 0 0 0 0.1 0"/>
<feBlend mode="normal" in2="BackgroundImageFix" result="effect1_dropShadow"/>
<feBlend mode="normal" in="SourceGraphic" in2="effect1_dropShadow" result="shape"/>
</filter>
<filter id="filter3_d" x="318" y="85" width="106" height="60" filterUnits="userSpaceOnUse" color-interpolation-filters="sRGB">
<feFlood flood-opacity="0" result="BackgroundImageFix"/>
<feColorMatrix in="SourceAlpha" type="matrix" values="0 0 0 0 0 0 0 0 0 0 0 0 0 0 0 0 0 0 127 0"/>
<feOffset/>
<feGaussianBlur stdDeviation="5"/>
<feColorMatrix type="matrix" values="0 0 0 0 0 0 0 0 0 0 0 0 0 0 0 0 0 0 0.1 0"/>
<feBlend mode="normal" in2="BackgroundImageFix" result="effect1_dropShadow"/>
<feBlend mode="normal" in="SourceGraphic" in2="effect1_dropShadow" result="shape"/>
</filter>
<clipPath id="clip0">
<rect width="375" height="155" fill="white"/>
</clipPath>
</defs>
</svg>
