<svg width="375" height="220" viewBox="0 0 375 220" fill="none" xmlns="http://www.w3.org/2000/svg">
<g clip-path="url(#clip0)">
<path d="M0 0H375V220H0V0Z" fill="white"/>
<path d="M350 33C350 42.9411 341.941 51 332 51C322.059 51 314 42.9411 314 33C314 23.0589 322.059 15 332 15C341.941 15 350 23.0589 350 33Z" fill="black" fill-opacity="0.2"/>
<path d="M342.631 41.0708L339.69 36.9445V30.4442C339.69 26.7984 336.927 23.7179 333.163 23.1809V21.9091C333.163 21.3156 332.663 20.8069 332.016 20.8069C331.399 20.8069 330.87 21.2873 330.87 21.9091V23.1809C327.135 23.7179 324.342 26.8267 324.342 30.4442V36.9445L321.402 41.0708C321.049 41.5795 321.167 42.2578 321.696 42.5969C321.872 42.71 322.108 42.7948 322.343 42.7948H328.076C328.194 44.8862 330.046 46.4688 332.222 46.3275C334.192 46.2145 335.78 44.6883 335.897 42.7948H341.631C342.248 42.7948 342.778 42.3143 342.778 41.6926C342.836 41.4665 342.778 41.2404 342.631 41.0708ZM332.046 25.2723C335.015 25.2723 337.426 27.5898 337.426 30.4442V36.2097H326.665V30.4442C326.665 27.5898 329.076 25.2723 332.046 25.2723ZM333.516 43.247C333.134 44.0383 332.134 44.3492 331.311 43.9818C330.928 43.8122 330.605 43.4731 330.487 43.0774C330.458 42.9643 330.429 42.8796 330.399 42.7665H333.633C333.633 42.9361 333.604 43.1057 333.516 43.247ZM324.548 40.5903L326.106 38.3859H337.956L339.514 40.5903H324.548Z" fill="white"/>
<g filter="url(#filter0_d)">
<path d="M25 115C25 103.954 33.9543 95 45 95H91C102.046 95 111 103.954 111 115V115C111 126.046 102.046 135 91 135H45C33.9543 135 25 126.046 25 115V115Z" fill="#3290FF"/>
<path d="M56.7795 106.34V121.76C56.7795 122.14 56.6195 122.28 56.1795 122.28C55.7395 122.3 54.2595 122.3 52.9595 122.24C53.3195 122.9 53.7595 124.02 53.8995 124.72C55.8395 124.72 57.1995 124.64 58.1395 124.26C59.0195 123.88 59.3595 123.22 59.3595 121.76V106.34H56.7795ZM61.5395 111.56C63.1195 114.48 64.6395 118.24 65.0395 120.66L67.6395 119.64C67.1395 117.14 65.4995 113.52 63.8795 110.68L61.5395 111.56ZM51.5395 110.9C51.1195 113.5 50.1195 117 48.5195 119.02C49.1395 119.3 50.2395 119.86 50.8395 120.26C52.4995 118.06 53.5795 114.34 54.2595 111.36L51.5395 110.9Z" fill="white"/>
<path d="M75.3595 106.68H69.7195V108.48H75.3595V106.68ZM76.0795 109.44H68.6595V111.32H76.0795V109.44ZM75.3595 112.3H69.5995V114.08H75.3595V112.3ZM69.5995 116.88H75.3595V115.08H69.5995V116.88ZM84.2395 114.64H79.0395V111.72H84.2395V114.64ZM73.4795 122.06H71.5395V119.78H73.4795V122.06ZM84.5595 122.48C84.2795 122.48 84.2595 122.4 84.2595 121.82V116.66H86.6795V109.68H84.9395C85.3595 108.86 85.8995 107.76 86.3795 106.64L83.9195 106.04C83.6795 107.04 83.1595 108.44 82.7395 109.36L83.8395 109.68H79.6195L80.6395 109.32C80.3795 108.42 79.7595 107.12 79.0995 106.14L77.0195 106.82C77.5195 107.7 78.0395 108.82 78.3195 109.68H76.7795V116.66H78.5995C78.3995 119.18 77.9795 121.42 75.4995 122.82V117.9H69.5395V124.72H71.5395V123.94H75.4995V123.06C76.0395 123.54 76.6195 124.28 76.8795 124.82C80.0195 122.98 80.7195 120.04 80.9595 116.66H81.9995V121.84C81.9995 123.88 82.3995 124.58 84.1595 124.58H85.4595C86.9195 124.58 87.4595 123.74 87.6395 120.54C87.0395 120.38 86.0795 120 85.6395 119.64C85.5995 122.12 85.5195 122.48 85.1995 122.48H84.5595Z" fill="white"/>
</g>
<g filter="url(#filter1_d)">
<path d="M126 115C126 103.954 134.954 95 146 95H192C203.046 95 212 103.954 212 115V115C212 126.046 203.046 135 192 135H146C134.954 135 126 126.046 126 115V115Z" fill="#FF993A"/>
<path d="M159.3 112.18C160.56 110.96 161.64 109.6 162.38 108.46C163.2 109.6 164.4 111 165.68 112.18H159.3ZM158.92 114.24H166.14V112.6C166.52 112.94 166.92 113.26 167.3 113.54C167.68 112.82 168.22 111.98 168.72 111.4C166.8 110.28 164.78 108.14 163.4 106.18H161.2C160.22 107.96 158.16 110.36 156.14 111.72C156.58 112.22 157.16 113.12 157.46 113.74C157.96 113.38 158.44 112.98 158.92 112.54V114.24ZM150.42 117.76C150.26 119.44 149.94 121.22 149.36 122.4C149.88 122.58 150.76 123 151.18 123.26C151.76 121.98 152.18 119.98 152.38 118.1L150.42 117.76ZM154.76 118.12C155.22 119.3 155.74 120.84 155.92 121.84L157.68 121.2C157.46 120.2 156.94 118.74 156.44 117.6L154.76 118.12ZM163.46 119.58C163.9 120.18 164.36 120.88 164.8 121.6C163.58 121.68 162.34 121.78 161.18 121.86C161.7 120.68 162.26 119.24 162.76 117.86H168V115.78H157.62V116.48C157.34 115.36 156.62 113.78 155.92 112.52L154.34 113.18C154.58 113.62 154.82 114.12 155.04 114.62L153.12 114.7C154.38 113.08 155.76 111.06 156.86 109.32L154.92 108.42C154.46 109.4 153.82 110.54 153.14 111.66C152.94 111.42 152.72 111.14 152.46 110.86C153.18 109.74 153.98 108.2 154.7 106.84L152.64 106.08C152.3 107.14 151.74 108.46 151.18 109.56C151.02 109.42 150.86 109.28 150.72 109.16L149.58 110.78C150.4 111.58 151.36 112.64 151.94 113.5C151.62 113.96 151.3 114.4 151 114.78L149.56 114.84L149.76 116.9L152.66 116.72V124.76H154.72V116.58L155.74 116.5C155.86 116.88 155.94 117.22 156 117.52L157.62 116.78V117.86H160.14C159.78 119.24 159.24 120.86 158.72 122.04C157.98 122.08 157.3 122.12 156.7 122.16L157.08 124.32C159.48 124.08 162.76 123.82 165.86 123.52C166.1 124.02 166.32 124.48 166.46 124.88L168.46 123.8C167.88 122.34 166.58 120.22 165.32 118.64L163.46 119.58Z" fill="white"/>
<path d="M180.24 118.94V114.54C181.14 116.16 182.22 117.66 183.42 118.94H180.24ZM174.6 118.94C175.78 117.66 176.84 116.18 177.74 114.58V118.94H174.6ZM187.82 112.34V109.94H180.24V106.08H177.74V109.94H170.22V112.34H176.32C174.78 115.42 172.26 118.3 169.44 119.84C170 120.3 170.76 121.22 171.18 121.82C172.28 121.12 173.34 120.26 174.3 119.26V121.36H177.74V124.74H180.24V121.36H183.56V119.08C184.56 120.14 185.66 121.04 186.82 121.76C187.24 121.08 188.06 120.08 188.66 119.6C185.8 118.1 183.24 115.34 181.68 112.34H187.82Z" fill="white"/>
</g>
<g filter="url(#filter2_d)">
<path d="M227 115C227 103.954 235.954 95 247 95H293C304.046 95 313 103.954 313 115V115C313 126.046 304.046 135 293 135H247C235.954 135 227 126.046 227 115V115Z" fill="#BB6BD9"/>
<path d="M256.86 108.2C256.04 107.5 254.38 106.62 253.1 106.14L251.8 107.9C253.08 108.46 254.72 109.42 255.46 110.14L256.86 108.2ZM255.66 113.5C254.84 112.82 253.14 111.98 251.88 111.5L250.64 113.28C251.92 113.84 253.56 114.76 254.34 115.46L255.66 113.5ZM254.92 116.64C253.76 118.94 252.32 121.42 251.3 122.92L253.34 124.48C254.5 122.56 255.7 120.28 256.7 118.18L254.92 116.64ZM269.32 118.26H264.14V116.16H268.2V113.96H264.14V111.94H268.92V109.7H266.5C267 108.9 267.58 107.86 268.14 106.8L265.56 106.04C265.22 107.08 264.58 108.48 264.02 109.4L264.94 109.7H260.98L261.88 109.32C261.58 108.38 260.8 107.08 260.04 106.08L257.92 106.96C258.5 107.8 259.08 108.86 259.4 109.7H257.1V111.94H261.66V113.96H257.78V116.16H261.66V118.26H256.7V120.54H261.66V124.74H264.14V120.54H269.32V118.26Z" fill="white"/>
<path d="M284.38 119.82V120.54H275.82V119.82H284.38ZM275.82 122.7V121.92H284.38V122.7H275.82ZM273.52 124.8H275.82V124.2H284.38V124.78H286.78V118.3H273.52V124.8ZM281.1 111.02H284.32V111.78H281.1V111.02ZM281.1 108.64H284.32V109.38H281.1V108.64ZM286.68 113.16V111.02H288.96V109.38H286.68V107.26H281.1V106H278.72V107.26H273.08V108.64H278.72V109.38H271.04V111.02H278.72V111.78H272.86V113.16H278.72V113.86H272.42V115.3H278.72V116.02H271.02V117.68H288.96V116.02H281.1V115.3H287.5V113.86H281.1V113.16H286.68Z" fill="white"/>
</g>
<g filter="url(#filter3_d)">
<path d="M328 115C328 103.954 336.954 95 348 95H394C405.046 95 414 103.954 414 115V115C414 126.046 405.046 135 394 135H348C336.954 135 328 126.046 328 115V115Z" fill="#FF7E7E"/>
<path d="M345.9 107.7L346.02 110.26C346.66 110.18 347.32 110.12 347.82 110.08C348.64 110 351.1 109.88 351.92 109.82C350.68 110.92 348.08 113.2 346.3 114.36C345.24 114.48 343.84 114.66 342.78 114.76L343.02 117.18C345.02 116.84 347.26 116.54 349.1 116.38C348.34 117.08 347.64 118.32 347.64 119.54C347.64 122.88 350.62 124.42 355.74 124.2L356.28 121.58C355.52 121.64 354.34 121.64 353.22 121.52C351.44 121.32 350.2 120.7 350.2 119.12C350.2 117.48 351.72 116.18 353.56 115.94C354.78 115.76 356.78 115.78 358.7 115.88V113.52C356.26 113.52 352.94 113.74 350.26 114C351.64 112.94 353.6 111.28 355.02 110.14C355.44 109.8 356.18 109.32 356.6 109.04L355.02 107.2C354.74 107.3 354.28 107.38 353.64 107.46C352.42 107.58 348.66 107.76 347.8 107.76C347.12 107.76 346.54 107.74 345.9 107.7Z" fill="white"/>
<path d="M379.54 115.96C379.54 111.6 376.42 108.16 371.46 108.16C366.28 108.16 362.28 112.1 362.28 116.72C362.28 120.1 364.12 122.54 366.34 122.54C368.52 122.54 370.24 120.06 371.44 116.02C372.02 114.14 372.36 112.3 372.64 110.6C375.34 111.06 376.84 113.12 376.84 115.88C376.84 118.8 374.84 120.64 372.28 121.24C371.74 121.36 371.18 121.48 370.42 121.56L371.92 123.94C376.96 123.16 379.54 120.18 379.54 115.96ZM364.84 116.46C364.84 114.26 366.62 111.34 369.92 110.66C369.7 112.32 369.32 114.02 368.86 115.5C368.04 118.2 367.26 119.46 366.42 119.46C365.64 119.46 364.84 118.48 364.84 116.46Z" fill="white"/>
<path d="M385.88 106.12C384.88 108.98 383.14 111.82 381.32 113.62C381.72 114.18 382.38 115.48 382.6 116.02C383.02 115.58 383.44 115.08 383.86 114.52V124.7H386.22V110.86C386.92 109.56 387.56 108.18 388.08 106.84L385.88 106.12ZM392.7 122.3C391.4 122.3 391.2 122.12 391.2 120.92V114.52L393.14 113.76V120H395.36V112.88L397.44 112.06C397.42 114.68 397.38 116 397.32 116.34C397.22 116.74 397.08 116.82 396.8 116.82C396.58 116.82 396.02 116.8 395.58 116.78C395.86 117.3 396.06 118.3 396.1 118.96C396.8 118.98 397.76 118.96 398.34 118.68C399.02 118.4 399.38 117.88 399.48 116.88C399.6 116 399.64 113.6 399.66 110.12L399.74 109.76L398.12 109.14L397.36 109.68L395.36 110.46V106.14H393.14V111.32L391.2 112.08V108.28H388.84V113L386.42 113.94L387.34 116.04L388.84 115.46V120.92C388.84 123.66 389.64 124.44 392.5 124.44H396.92C399.44 124.44 400.14 123.44 400.44 120.48C399.8 120.32 398.84 119.92 398.32 119.56C398.12 121.82 397.92 122.3 396.74 122.3H392.7Z" fill="white"/>
</g>
<path d="M33.0197 75.5801C33.9797 73.9801 35.0397 72.1001 35.8797 70.4001L34.2397 69.0201C33.2397 70.9201 31.9797 72.9201 31.0997 74.1601L33.0197 75.5801ZM35.2997 66.6001C34.5597 66.0201 33.0797 65.2601 31.9397 64.8601L30.6797 66.4801C31.7997 66.9801 33.2397 67.8001 33.9597 68.4001L35.2997 66.6001ZM31.5397 62.7801C32.6397 63.2601 34.0197 64.0801 34.6997 64.6601L36.0597 62.9001C35.3397 62.3201 33.8997 61.5801 32.8597 61.1601L31.5397 62.7801ZM45.9797 67.2401V68.1801H43.5397V67.2401H45.9797ZM43.5397 70.8201V69.8401H45.9797V70.8201H43.5397ZM39.0997 70.8201V69.8401H41.2997V70.8201H39.0997ZM41.2997 67.2401V68.1801H39.0997V67.2401H41.2997ZM49.0197 64.4201V62.5401H47.4397L48.0797 61.7201C47.4997 61.2601 46.4597 60.6601 45.5797 60.3001L44.5397 61.5401C45.0797 61.7801 45.7197 62.1601 46.2397 62.5401H43.5397V61.3601H44.4797V60.1601H48.9397V58.1001H44.4797V57.0801H42.0997V58.1001H37.8397V57.0801H35.4797V58.1001H31.0997V60.1601H35.4797V61.3601H37.8397V60.1601H42.0997V61.0801H41.2997V62.5401H36.1597V64.4201H41.2997V65.4801H36.8597V75.6801H39.0997V72.4801H41.2997V75.6201H43.5397V72.4801H45.9797V73.5601C45.9797 73.7801 45.8997 73.8401 45.6797 73.8601C45.4597 73.8601 44.7397 73.8601 44.0997 73.8201C44.3597 74.3601 44.6397 75.1201 44.7197 75.7001C45.8997 75.7001 46.7997 75.6801 47.4397 75.3601C48.0797 75.0401 48.2797 74.5601 48.2797 73.5801V65.4801H43.5397V64.4201H49.0197Z" fill="#333333"/>
<path d="M61.0797 71.9001V67.4601H65.8797V71.9001H61.0797ZM54.0597 67.4601H58.6597V71.9001H54.0597V67.4601ZM58.6597 60.6801V65.0801H54.0597V60.6801H58.6597ZM65.8797 65.0801H61.0797V60.6801H65.8797V65.0801ZM51.6797 58.3801V75.5201H54.0597V74.3001H65.8797V75.5201H68.3597V58.3801H51.6797Z" fill="#333333"/>
<path d="M80.6397 57.9601H77.6997C77.7797 58.4401 77.8397 59.3601 77.8397 59.8001C77.8397 60.4001 77.8197 60.9801 77.7997 61.5401H74.9397C74.1797 61.5401 73.1397 61.4801 72.2997 61.4001V64.0201C73.1597 63.9401 74.2597 63.9401 74.9397 63.9401H77.5797C77.1397 66.9801 76.1397 69.2201 74.2797 71.0601C73.4797 71.8801 72.4797 72.5601 71.6597 73.0201L73.9797 74.9001C77.5597 72.3601 79.4597 69.2201 80.1997 63.9401H84.6997C84.6997 66.1001 84.4397 70.1001 83.8597 71.3601C83.6397 71.8401 83.3597 72.0601 82.7197 72.0601C81.9397 72.0601 80.8997 71.9601 79.9197 71.7801L80.2397 74.4601C81.1997 74.5401 82.3997 74.6201 83.5397 74.6201C84.9197 74.6201 85.6797 74.1001 86.1197 73.0801C86.9797 71.0401 87.2197 65.4601 87.2997 63.3001C87.2997 63.0801 87.3797 62.5601 87.4397 62.2401L85.6997 61.4001C85.2197 61.4801 84.6997 61.5401 84.1997 61.5401H80.4397C80.4797 60.9601 80.4997 60.3601 80.5197 59.7401C80.5397 59.2601 80.5797 58.4201 80.6397 57.9601Z" fill="#333333"/>
<path d="M107.78 60.6801L105.82 59.4201C105.28 59.5601 104.64 59.5801 104.24 59.5801H94.9997C94.3397 59.5801 93.1997 59.4801 92.5997 59.4201V62.2401C93.1197 62.2001 94.0797 62.1601 94.9797 62.1601H104.3C104.04 63.8601 103.28 66.1401 101.96 67.8001C100.34 69.8201 98.0797 71.5601 94.1197 72.5001L96.2997 74.8801C99.8597 73.7401 102.52 71.7601 104.34 69.3601C106 67.1401 106.88 64.0401 107.34 62.0801C107.44 61.6601 107.6 61.0801 107.78 60.6801Z" fill="#333333"/>
<path d="M113.94 63.1601V65.6801C114.38 65.6401 115.1 65.6001 115.52 65.6001H118.64V72.0401H114.56C114.06 72.0401 113.44 71.9801 112.92 71.9201V74.5401C113.46 74.4601 114.08 74.4401 114.56 74.4401H125.62C125.96 74.4401 126.7 74.4601 127.14 74.5401V71.9201C126.72 71.9601 126.16 72.0401 125.62 72.0401H121.26V65.6001H124.68C125.14 65.6001 125.74 65.6401 126.24 65.6801V63.1601C125.76 63.2201 125.16 63.2601 124.68 63.2601H115.52C115.08 63.2601 114.38 63.2401 113.94 63.1601Z" fill="#333333"/>
<path d="M28.0798 28.872V33.716H27.1418V28.872H28.0798ZM29.3398 35.2V27.388H25.8818V36.306H27.1418V35.2H29.3398ZM38.3138 35.648V34.22H34.5758C34.6318 33.842 34.6598 33.436 34.6878 33.016H34.2258C35.5418 32.036 35.8778 30.496 35.9898 28.354H36.8858C36.8298 30.608 36.7458 31.448 36.5918 31.686C36.4938 31.812 36.3958 31.84 36.2558 31.84C36.0878 31.84 35.8218 31.84 35.4858 31.798C35.6818 32.134 35.8078 32.68 35.8218 33.072C36.2978 33.086 36.7318 33.072 36.9978 33.016C37.3198 32.96 37.5718 32.848 37.7958 32.554C38.1038 32.134 38.2018 30.888 38.2718 27.584C38.2858 27.43 38.2858 27.052 38.2858 27.052H33.8618V28.354H34.6178C34.5618 29.838 34.3798 30.916 33.6658 31.686L33.6238 31.14L32.4338 31.308V30.454H33.5818V29.292H32.4338V28.494H33.6238V27.29H32.4338V26.226H31.0478V27.29H29.7178V28.494H31.0478V29.292H29.8438V30.454H31.0478V31.504C30.4458 31.588 29.8998 31.658 29.4378 31.7L29.6758 33.086C30.6558 32.904 31.8458 32.68 33.0638 32.442C33.2178 32.61 33.3998 32.82 33.5258 33.016H33.0218C32.9938 33.45 32.9658 33.856 32.9098 34.22H29.5358V35.648H32.5318C32.0418 36.726 31.0058 37.426 28.7238 37.874C29.0458 38.21 29.4658 38.826 29.6058 39.232C31.9998 38.686 33.2318 37.832 33.9038 36.6C34.6598 37.986 35.8078 38.84 37.7118 39.232C37.9218 38.784 38.3558 38.112 38.7058 37.776C36.8438 37.524 35.6818 36.81 35.0378 35.648H38.3138Z" fill="black" fill-opacity="0.2"/>
<path d="M42.5558 29.95H44.2078V28.718H47.6518V29.95H49.3178V28.718H52.2158V27.192H49.3178V26.156H47.6518V27.192H44.2078V26.156H42.5558V27.192H39.8118V28.718H42.5558V29.95ZM42.3738 35.494C41.8558 36.432 40.8618 37.342 39.8258 37.902C40.2318 38.154 40.9598 38.672 41.2818 39.008C42.3178 38.308 43.4518 37.174 44.1098 35.984L42.3738 35.494ZM41.9538 33.576C43.6198 32.792 45.1458 31.756 45.9718 30.72C46.8958 31.812 48.5478 32.848 50.1858 33.576H46.7698V32.19H45.0898V33.576H41.9538ZM50.4238 35.116V33.674C50.8998 33.884 51.3618 34.052 51.8098 34.192C52.0338 33.73 52.3698 33.1 52.7478 32.68C50.5218 32.176 48.2818 31.056 46.7558 29.292H45.0478C43.9278 30.734 41.7438 32.162 39.3638 32.848C39.6578 33.212 40.0358 33.842 40.2038 34.276C40.6658 34.122 41.1278 33.94 41.5898 33.744V35.116H45.0898V39.218H46.7698V35.116H50.4238ZM47.8058 36.306C48.7858 37.09 50.0038 38.21 50.5498 38.91L52.0058 37.944C51.3758 37.216 50.1158 36.152 49.1638 35.452L47.8058 36.306Z" fill="black" fill-opacity="0.2"/>
<path d="M63.6818 37.244H58.7118V35.34H63.6818V37.244ZM61.8478 29.558H60.1538V33.87H57.0878V39.218H58.7118V38.7H63.6818V39.204H65.3898V33.87H61.8478V32.344H66.2158V30.874H61.8478V29.558ZM61.3018 27.766V26.156H59.5658V27.766H54.5818V31.294C54.5818 33.31 54.4838 36.25 53.3358 38.252C53.7278 38.434 54.4698 38.91 54.7778 39.19C56.0378 37.006 56.2478 33.548 56.2478 31.294V29.348H66.3978V27.766H61.3018Z" fill="black" fill-opacity="0.2"/>
<g filter="url(#filter4_d)">
<path d="M25 160C25 157.239 27.2386 155 30 155H345C347.761 155 350 157.239 350 160V195C350 197.761 347.761 200 345 200H30C27.2386 200 25 197.761 25 195V160Z" fill="#15923B"/>
<path d="M145.728 169.719H142.968C143.028 170.079 143.108 171.059 143.108 171.479C143.108 171.819 143.108 172.399 143.088 173.099C142.688 173.119 142.288 173.139 141.928 173.139C141.208 173.139 140.348 173.119 139.168 172.979L139.208 175.399C139.888 175.479 140.668 175.499 142.008 175.499C142.328 175.499 142.688 175.479 143.068 175.459C143.068 176.019 143.068 176.579 143.068 177.139C143.068 177.599 143.068 178.079 143.088 178.559C140.628 179.619 138.628 181.439 138.628 183.179C138.628 185.299 141.368 186.979 143.308 186.979C144.628 186.979 145.508 186.319 145.508 183.839C145.508 183.159 145.468 181.599 145.428 180.019C146.648 179.659 147.948 179.459 149.188 179.459C150.928 179.459 152.128 180.259 152.128 181.619C152.128 183.079 150.848 183.879 149.228 184.179C148.528 184.299 147.668 184.319 146.768 184.319L147.688 186.899C148.508 186.839 149.388 186.779 150.308 186.579C153.488 185.779 154.728 183.999 154.728 181.639C154.728 178.879 152.308 177.279 149.228 177.279C148.128 177.279 146.748 177.459 145.388 177.799C145.388 177.539 145.388 177.299 145.388 177.059C145.388 176.479 145.388 175.859 145.408 175.259C146.708 175.099 148.088 174.899 149.228 174.639L149.168 172.159C148.128 172.459 146.808 172.719 145.488 172.879C145.508 172.379 145.528 171.899 145.548 171.459C145.588 170.939 145.668 170.079 145.728 169.719ZM151.428 171.879L150.328 173.819C151.568 174.419 154.188 175.919 155.148 176.739L156.348 174.699C155.288 173.939 152.968 172.619 151.428 171.879ZM141.088 183.079C141.088 182.379 141.908 181.559 143.128 180.899C143.168 181.979 143.188 182.899 143.188 183.399C143.188 184.079 142.908 184.239 142.548 184.239C142.028 184.239 141.088 183.699 141.088 183.079Z" fill="white"/>
<path d="M172.268 184.879H165.168V182.159H172.268V184.879ZM169.648 173.899H167.228V180.059H162.848V187.699H165.168V186.959H172.268V187.679H174.708V180.059H169.648V177.879H175.888V175.779H169.648V173.899ZM168.868 171.339V169.039H166.388V171.339H159.268V176.379C159.268 179.259 159.128 183.459 157.488 186.319C158.048 186.579 159.108 187.259 159.548 187.659C161.348 184.539 161.648 179.599 161.648 176.379V173.599H176.148V171.339H168.868Z" fill="white"/>
<path d="M195.548 178.919C195.548 174.559 192.428 171.119 187.468 171.119C182.288 171.119 178.288 175.059 178.288 179.679C178.288 183.059 180.128 185.499 182.348 185.499C184.528 185.499 186.248 183.019 187.448 178.979C188.028 177.099 188.368 175.259 188.648 173.559C191.348 174.019 192.848 176.079 192.848 178.839C192.848 181.759 190.848 183.599 188.288 184.199C187.748 184.319 187.188 184.439 186.428 184.519L187.928 186.899C192.968 186.119 195.548 183.139 195.548 178.919ZM180.848 179.419C180.848 177.219 182.628 174.299 185.928 173.619C185.708 175.279 185.328 176.979 184.868 178.459C184.048 181.159 183.268 182.419 182.428 182.419C181.648 182.419 180.848 181.439 180.848 179.419Z" fill="white"/>
<path d="M199.128 178.759C199.548 177.219 199.868 174.839 199.908 173.179L198.228 172.959C198.128 174.579 197.828 176.819 197.408 178.179L199.128 178.759ZM206.728 183.079V182.159H212.708V183.079H206.728ZM212.708 179.539V180.479H206.728V179.539H212.708ZM214.948 177.799H204.528V187.719H206.728V184.719H212.708V185.379C212.708 185.619 212.608 185.699 212.328 185.699C212.068 185.699 211.128 185.719 210.308 185.659C210.588 186.239 210.868 187.099 210.948 187.679C212.328 187.679 213.328 187.679 214.028 187.339C214.748 187.019 214.948 186.459 214.948 185.419V177.799ZM210.848 175.339V174.479H215.148V172.879H210.848V172.079H215.688V170.379H210.848V169.019H208.488V170.379H203.808V172.079H208.488V172.879H204.348V174.459C204.108 173.719 203.648 172.599 203.228 171.739L202.088 172.219V169.019H199.948V187.679H202.088V173.139C202.408 173.919 202.688 174.759 202.828 175.339L204.388 174.579L204.348 174.479H208.488V175.339H203.188V177.039H216.288V175.339H210.848Z" fill="white"/>
<path d="M223.768 178.459H220.868L221.508 178.279C221.428 177.719 221.148 176.859 220.808 176.139H223.848C223.668 176.819 223.368 177.679 223.128 178.279L223.768 178.459ZM223.428 172.759H226.028V170.799H223.428V169.059H221.228V170.799H218.368V172.759H221.228V174.139H217.668V176.139H219.648L218.928 176.319C219.208 176.979 219.468 177.819 219.588 178.459H218.088V180.459H221.228V181.999H218.248V183.999H221.228V187.639H223.428V183.999H226.248V181.999H223.428V180.459H226.468V178.459H224.968C225.248 177.859 225.548 177.079 225.888 176.339L225.108 176.139H226.768V174.139H223.428V172.759ZM229.288 179.419C229.788 180.999 230.428 182.459 231.208 183.739C230.648 184.519 230.008 185.199 229.288 185.779V179.419ZM233.448 178.599C233.208 179.679 232.848 180.739 232.388 181.699C231.808 180.739 231.328 179.699 230.968 178.599H233.448ZM234.508 176.619L234.108 176.719H229.288V171.939H233.268V173.579C233.268 173.799 233.168 173.859 232.868 173.879C232.568 173.879 231.468 173.879 230.488 173.839C230.768 174.419 231.068 175.239 231.168 175.879C232.628 175.879 233.708 175.859 234.468 175.539C235.248 175.219 235.468 174.639 235.468 173.619V169.859H227.128V187.679H229.288V186.499C229.708 186.879 230.128 187.339 230.388 187.739C231.208 187.139 231.928 186.419 232.568 185.599C233.308 186.439 234.128 187.159 235.068 187.719C235.408 187.119 236.088 186.279 236.608 185.839C235.568 185.319 234.648 184.559 233.828 183.659C234.848 181.779 235.548 179.539 235.928 177.119L234.508 176.619Z" fill="white"/>
</g>
</g>
<defs>
<filter id="filter0_d" x="15" y="85" width="106" height="60" filterUnits="userSpaceOnUse" color-interpolation-filters="sRGB">
<feFlood flood-opacity="0" result="BackgroundImageFix"/>
<feColorMatrix in="SourceAlpha" type="matrix" values="0 0 0 0 0 0 0 0 0 0 0 0 0 0 0 0 0 0 127 0"/>
<feOffset/>
<feGaussianBlur stdDeviation="5"/>
<feColorMatrix type="matrix" values="0 0 0 0 0 0 0 0 0 0 0 0 0 0 0 0 0 0 0.1 0"/>
<feBlend mode="normal" in2="BackgroundImageFix" result="effect1_dropShadow"/>
<feBlend mode="normal" in="SourceGraphic" in2="effect1_dropShadow" result="shape"/>
</filter>
<filter id="filter1_d" x="116" y="85" width="106" height="60" filterUnits="userSpaceOnUse" color-interpolation-filters="sRGB">
<feFlood flood-opacity="0" result="BackgroundImageFix"/>
<feColorMatrix in="SourceAlpha" type="matrix" values="0 0 0 0 0 0 0 0 0 0 0 0 0 0 0 0 0 0 127 0"/>
<feOffset/>
<feGaussianBlur stdDeviation="5"/>
<feColorMatrix type="matrix" values="0 0 0 0 0 0 0 0 0 0 0 0 0 0 0 0 0 0 0.1 0"/>
<feBlend mode="normal" in2="BackgroundImageFix" result="effect1_dropShadow"/>
<feBlend mode="normal" in="SourceGraphic" in2="effect1_dropShadow" result="shape"/>
</filter>
<filter id="filter2_d" x="217" y="85" width="106" height="60" filterUnits="userSpaceOnUse" color-interpolation-filters="sRGB">
<feFlood flood-opacity="0" result="BackgroundImageFix"/>
<feColorMatrix in="SourceAlpha" type="matrix" values="0 0 0 0 0 0 0 0 0 0 0 0 0 0 0 0 0 0 127 0"/>
<feOffset/>
<feGaussianBlur stdDeviation="5"/>
<feColorMatrix type="matrix" values="0 0 0 0 0 0 0 0 0 0 0 0 0 0 0 0 0 0 0.1 0"/>
<feBlend mode="normal" in2="BackgroundImageFix" result="effect1_dropShadow"/>
<feBlend mode="normal" in="SourceGraphic" in2="effect1_dropShadow" result="shape"/>
</filter>
<filter id="filter3_d" x="318" y="85" width="106" height="60" filterUnits="userSpaceOnUse" color-interpolation-filters="sRGB">
<feFlood flood-opacity="0" result="BackgroundImageFix"/>
<feColorMatrix in="SourceAlpha" type="matrix" values="0 0 0 0 0 0 0 0 0 0 0 0 0 0 0 0 0 0 127 0"/>
<feOffset/>
<feGaussianBlur stdDeviation="5"/>
<feColorMatrix type="matrix" values="0 0 0 0 0 0 0 0 0 0 0 0 0 0 0 0 0 0 0.1 0"/>
<feBlend mode="normal" in2="BackgroundImageFix" result="effect1_dropShadow"/>
<feBlend mode="normal" in="SourceGraphic" in2="effect1_dropShadow" result="shape"/>
</filter>
<filter id="filter4_d" x="15" y="145" width="345" height="65" filterUnits="userSpaceOnUse" color-interpolation-filters="sRGB">
<feFlood flood-opacity="0" result="BackgroundImageFix"/>
<feColorMatrix in="SourceAlpha" type="matrix" values="0 0 0 0 0 0 0 0 0 0 0 0 0 0 0 0 0 0 127 0"/>
<feOffset/>
<feGaussianBlur stdDeviation="5"/>
<feColorMatrix type="matrix" values="0 0 0 0 0 0 0 0 0 0 0 0 0 0 0 0 0 0 0.1 0"/>
<feBlend mode="normal" in2="BackgroundImageFix" result="effect1_dropShadow"/>
<feBlend mode="normal" in="SourceGraphic" in2="effect1_dropShadow" result="shape"/>
</filter>
<clipPath id="clip0">
<rect width="375" height="220" fill="white"/>
</clipPath>
</defs>
</svg>
