<svg width="375" height="220" viewBox="0 0 375 220" fill="none" xmlns="http://www.w3.org/2000/svg">
<g clip-path="url(#clip0)">
<path d="M0 20C0 8.9543 8.95431 0 20 0H355C366.046 0 375 8.95431 375 20V220H0V20Z" fill="white"/>
<circle cx="332" cy="33" r="18" fill="black" fill-opacity="0.2"/>
<path d="M342.631 41.0708L339.69 36.9445V30.4442C339.69 26.7984 336.927 23.7179 333.163 23.1809V21.9091C333.163 21.3156 332.663 20.8069 332.016 20.8069C331.399 20.8069 330.87 21.2873 330.87 21.9091V23.1809C327.135 23.7179 324.342 26.8267 324.342 30.4442V36.9445L321.402 41.0708C321.049 41.5795 321.167 42.2578 321.696 42.5969C321.872 42.71 322.108 42.7948 322.343 42.7948H328.076C328.194 44.8862 330.046 46.4688 332.222 46.3275C334.192 46.2145 335.78 44.6883 335.897 42.7948H341.631C342.248 42.7948 342.778 42.3143 342.778 41.6926C342.836 41.4665 342.778 41.2404 342.631 41.0708ZM332.046 25.2723C335.015 25.2723 337.426 27.5898 337.426 30.4442V36.2097H326.665V30.4442C326.665 27.5898 329.076 25.2723 332.046 25.2723ZM333.516 43.247C333.134 44.0383 332.134 44.3492 331.311 43.9818C330.928 43.8122 330.605 43.4731 330.487 43.0774C330.458 42.9643 330.429 42.8796 330.399 42.7665H333.633C333.633 42.9361 333.604 43.1057 333.516 43.247ZM324.548 40.5903L326.106 38.3859H337.956L339.514 40.5903H324.548Z" fill="white"/>
<g filter="url(#filter0_d)">
<rect x="25" y="95" width="86" height="40" rx="20" fill="#3290FF"/>
<path d="M56.78 106.34V121.76C56.78 122.14 56.62 122.28 56.18 122.28C55.74 122.3 54.26 122.3 52.96 122.24C53.32 122.9 53.76 124.02 53.9 124.72C55.84 124.72 57.2 124.64 58.14 124.26C59.02 123.88 59.36 123.22 59.36 121.76V106.34H56.78ZM61.54 111.56C63.12 114.48 64.64 118.24 65.04 120.66L67.64 119.64C67.14 117.14 65.5 113.52 63.88 110.68L61.54 111.56ZM51.54 110.9C51.12 113.5 50.12 117 48.52 119.02C49.14 119.3 50.24 119.86 50.84 120.26C52.5 118.06 53.58 114.34 54.26 111.36L51.54 110.9ZM75.36 106.68H69.72V108.48H75.36V106.68ZM76.08 109.44H68.66V111.32H76.08V109.44ZM75.36 112.3H69.6V114.08H75.36V112.3ZM69.6 116.88H75.36V115.08H69.6V116.88ZM84.24 114.64H79.04V111.72H84.24V114.64ZM73.48 122.06H71.54V119.78H73.48V122.06ZM84.56 122.48C84.28 122.48 84.26 122.4 84.26 121.82V116.66H86.68V109.68H84.94C85.36 108.86 85.9 107.76 86.38 106.64L83.92 106.04C83.68 107.04 83.16 108.44 82.74 109.36L83.84 109.68H79.62L80.64 109.32C80.38 108.42 79.76 107.12 79.1 106.14L77.02 106.82C77.52 107.7 78.04 108.82 78.32 109.68H76.78V116.66H78.6C78.4 119.18 77.98 121.42 75.5 122.82V117.9H69.54V124.72H71.54V123.94H75.5V123.06C76.04 123.54 76.62 124.28 76.88 124.82C80.02 122.98 80.72 120.04 80.96 116.66H82V121.84C82 123.88 82.4 124.58 84.16 124.58H85.46C86.92 124.58 87.46 123.74 87.64 120.54C87.04 120.38 86.08 120 85.64 119.64C85.6 122.12 85.52 122.48 85.2 122.48H84.56Z" fill="white"/>
</g>
<g filter="url(#filter1_d)">
<rect x="126" y="95" width="86" height="40" rx="20" fill="#FF993A"/>
<path d="M159.3 112.18C160.56 110.96 161.64 109.6 162.38 108.46C163.2 109.6 164.4 111 165.68 112.18H159.3ZM158.92 114.24H166.14V112.6C166.52 112.94 166.92 113.26 167.3 113.54C167.68 112.82 168.22 111.98 168.72 111.4C166.8 110.28 164.78 108.14 163.4 106.18H161.2C160.22 107.96 158.16 110.36 156.14 111.72C156.58 112.22 157.16 113.12 157.46 113.74C157.96 113.38 158.44 112.98 158.92 112.54V114.24ZM150.42 117.76C150.26 119.44 149.94 121.22 149.36 122.4C149.88 122.58 150.76 123 151.18 123.26C151.76 121.98 152.18 119.98 152.38 118.1L150.42 117.76ZM154.76 118.12C155.22 119.3 155.74 120.84 155.92 121.84L157.68 121.2C157.46 120.2 156.94 118.74 156.44 117.6L154.76 118.12ZM163.46 119.58C163.9 120.18 164.36 120.88 164.8 121.6C163.58 121.68 162.34 121.78 161.18 121.86C161.7 120.68 162.26 119.24 162.76 117.86H168V115.78H157.62V116.48C157.34 115.36 156.62 113.78 155.92 112.52L154.34 113.18C154.58 113.62 154.82 114.12 155.04 114.62L153.12 114.7C154.38 113.08 155.76 111.06 156.86 109.32L154.92 108.42C154.46 109.4 153.82 110.54 153.14 111.66C152.94 111.42 152.72 111.14 152.46 110.86C153.18 109.74 153.98 108.2 154.7 106.84L152.64 106.08C152.3 107.14 151.74 108.46 151.18 109.56C151.02 109.42 150.86 109.28 150.72 109.16L149.58 110.78C150.4 111.58 151.36 112.64 151.94 113.5C151.62 113.96 151.3 114.4 151 114.78L149.56 114.84L149.76 116.9L152.66 116.72V124.76H154.72V116.58L155.74 116.5C155.86 116.88 155.94 117.22 156 117.52L157.62 116.78V117.86H160.14C159.78 119.24 159.24 120.86 158.72 122.04C157.98 122.08 157.3 122.12 156.7 122.16L157.08 124.32C159.48 124.08 162.76 123.82 165.86 123.52C166.1 124.02 166.32 124.48 166.46 124.88L168.46 123.8C167.88 122.34 166.58 120.22 165.32 118.64L163.46 119.58ZM180.24 118.94V114.54C181.14 116.16 182.22 117.66 183.42 118.94H180.24ZM174.6 118.94C175.78 117.66 176.84 116.18 177.74 114.58V118.94H174.6ZM187.82 112.34V109.94H180.24V106.08H177.74V109.94H170.22V112.34H176.32C174.78 115.42 172.26 118.3 169.44 119.84C170 120.3 170.76 121.22 171.18 121.82C172.28 121.12 173.34 120.26 174.3 119.26V121.36H177.74V124.74H180.24V121.36H183.56V119.08C184.56 120.14 185.66 121.04 186.82 121.76C187.24 121.08 188.06 120.08 188.66 119.6C185.8 118.1 183.24 115.34 181.68 112.34H187.82Z" fill="white"/>
</g>
<g filter="url(#filter2_d)">
<rect x="227" y="95" width="86" height="40" rx="20" fill="#BB6BD9"/>
<path d="M256.86 108.2C256.04 107.5 254.38 106.62 253.1 106.14L251.8 107.9C253.08 108.46 254.72 109.42 255.46 110.14L256.86 108.2ZM255.66 113.5C254.84 112.82 253.14 111.98 251.88 111.5L250.64 113.28C251.92 113.84 253.56 114.76 254.34 115.46L255.66 113.5ZM254.92 116.64C253.76 118.94 252.32 121.42 251.3 122.92L253.34 124.48C254.5 122.56 255.7 120.28 256.7 118.18L254.92 116.64ZM269.32 118.26H264.14V116.16H268.2V113.96H264.14V111.94H268.92V109.7H266.5C267 108.9 267.58 107.86 268.14 106.8L265.56 106.04C265.22 107.08 264.58 108.48 264.02 109.4L264.94 109.7H260.98L261.88 109.32C261.58 108.38 260.8 107.08 260.04 106.08L257.92 106.96C258.5 107.8 259.08 108.86 259.4 109.7H257.1V111.94H261.66V113.96H257.78V116.16H261.66V118.26H256.7V120.54H261.66V124.74H264.14V120.54H269.32V118.26ZM284.38 119.82V120.54H275.82V119.82H284.38ZM275.82 122.7V121.92H284.38V122.7H275.82ZM273.52 124.8H275.82V124.2H284.38V124.78H286.78V118.3H273.52V124.8ZM281.1 111.02H284.32V111.78H281.1V111.02ZM281.1 108.64H284.32V109.38H281.1V108.64ZM286.68 113.16V111.02H288.96V109.38H286.68V107.26H281.1V106H278.72V107.26H273.08V108.64H278.72V109.38H271.04V111.02H278.72V111.78H272.86V113.16H278.72V113.86H272.42V115.3H278.72V116.02H271.02V117.68H288.96V116.02H281.1V115.3H287.5V113.86H281.1V113.16H286.68Z" fill="white"/>
</g>
<g filter="url(#filter3_d)">
<rect x="328" y="95" width="86" height="40" rx="20" fill="#FF7E7E"/>
<path d="M345.9 107.7L346.02 110.26C346.66 110.18 347.32 110.12 347.82 110.08C348.64 110 351.1 109.88 351.92 109.82C350.68 110.92 348.08 113.2 346.3 114.36C345.24 114.48 343.84 114.66 342.78 114.76L343.02 117.18C345.02 116.84 347.26 116.54 349.1 116.38C348.34 117.08 347.64 118.32 347.64 119.54C347.64 122.88 350.62 124.42 355.74 124.2L356.28 121.58C355.52 121.64 354.34 121.64 353.22 121.52C351.44 121.32 350.2 120.7 350.2 119.12C350.2 117.48 351.72 116.18 353.56 115.94C354.78 115.76 356.78 115.78 358.7 115.88V113.52C356.26 113.52 352.94 113.74 350.26 114C351.64 112.94 353.6 111.28 355.02 110.14C355.44 109.8 356.18 109.32 356.6 109.04L355.02 107.2C354.74 107.3 354.28 107.38 353.64 107.46C352.42 107.58 348.66 107.76 347.8 107.76C347.12 107.76 346.54 107.74 345.9 107.7ZM379.54 115.96C379.54 111.6 376.42 108.16 371.46 108.16C366.28 108.16 362.28 112.1 362.28 116.72C362.28 120.1 364.12 122.54 366.34 122.54C368.52 122.54 370.24 120.06 371.44 116.02C372.02 114.14 372.36 112.3 372.64 110.6C375.34 111.06 376.84 113.12 376.84 115.88C376.84 118.8 374.84 120.64 372.28 121.24C371.74 121.36 371.18 121.48 370.42 121.56L371.92 123.94C376.96 123.16 379.54 120.18 379.54 115.96ZM364.84 116.46C364.84 114.26 366.62 111.34 369.92 110.66C369.7 112.32 369.32 114.02 368.86 115.5C368.04 118.2 367.26 119.46 366.42 119.46C365.64 119.46 364.84 118.48 364.84 116.46ZM385.88 106.12C384.88 108.98 383.14 111.82 381.32 113.62C381.72 114.18 382.38 115.48 382.6 116.02C383.02 115.58 383.44 115.08 383.86 114.52V124.7H386.22V110.86C386.92 109.56 387.56 108.18 388.08 106.84L385.88 106.12ZM392.7 122.3C391.4 122.3 391.2 122.12 391.2 120.92V114.52L393.14 113.76V120H395.36V112.88L397.44 112.06C397.42 114.68 397.38 116 397.32 116.34C397.22 116.74 397.08 116.82 396.8 116.82C396.58 116.82 396.02 116.8 395.58 116.78C395.86 117.3 396.06 118.3 396.1 118.96C396.8 118.98 397.76 118.96 398.34 118.68C399.02 118.4 399.38 117.88 399.48 116.88C399.6 116 399.64 113.6 399.66 110.12L399.74 109.76L398.12 109.14L397.36 109.68L395.36 110.46V106.14H393.14V111.32L391.2 112.08V108.28H388.84V113L386.42 113.94L387.34 116.04L388.84 115.46V120.92C388.84 123.66 389.64 124.44 392.5 124.44H396.92C399.44 124.44 400.14 123.44 400.44 120.48C399.8 120.32 398.84 119.92 398.32 119.56C398.12 121.82 397.92 122.3 396.74 122.3H392.7Z" fill="white"/>
</g>
<path d="M33.02 75.58C33.98 73.98 35.04 72.1 35.88 70.4L34.24 69.02C33.24 70.92 31.98 72.92 31.1 74.16L33.02 75.58ZM35.3 66.6C34.56 66.02 33.08 65.26 31.94 64.86L30.68 66.48C31.8 66.98 33.24 67.8 33.96 68.4L35.3 66.6ZM31.54 62.78C32.64 63.26 34.02 64.08 34.7 64.66L36.06 62.9C35.34 62.32 33.9 61.58 32.86 61.16L31.54 62.78ZM45.98 67.24V68.18H43.54V67.24H45.98ZM43.54 70.82V69.84H45.98V70.82H43.54ZM39.1 70.82V69.84H41.3V70.82H39.1ZM41.3 67.24V68.18H39.1V67.24H41.3ZM49.02 64.42V62.54H47.44L48.08 61.72C47.5 61.26 46.46 60.66 45.58 60.3L44.54 61.54C45.08 61.78 45.72 62.16 46.24 62.54H43.54V61.36H44.48V60.16H48.94V58.1H44.48V57.08H42.1V58.1H37.84V57.08H35.48V58.1H31.1V60.16H35.48V61.36H37.84V60.16H42.1V61.08H41.3V62.54H36.16V64.42H41.3V65.48H36.86V75.68H39.1V72.48H41.3V75.62H43.54V72.48H45.98V73.56C45.98 73.78 45.9 73.84 45.68 73.86C45.46 73.86 44.74 73.86 44.1 73.82C44.36 74.36 44.64 75.12 44.72 75.7C45.9 75.7 46.8 75.68 47.44 75.36C48.08 75.04 48.28 74.56 48.28 73.58V65.48H43.54V64.42H49.02ZM61.08 71.9V67.46H65.88V71.9H61.08ZM54.06 67.46H58.66V71.9H54.06V67.46ZM58.66 60.68V65.08H54.06V60.68H58.66ZM65.88 65.08H61.08V60.68H65.88V65.08ZM51.68 58.38V75.52H54.06V74.3H65.88V75.52H68.36V58.38H51.68ZM80.64 57.96H77.7C77.78 58.44 77.84 59.36 77.84 59.8C77.84 60.4 77.82 60.98 77.8 61.54H74.94C74.18 61.54 73.14 61.48 72.3 61.4V64.02C73.16 63.94 74.26 63.94 74.94 63.94H77.58C77.14 66.98 76.14 69.22 74.28 71.06C73.48 71.88 72.48 72.56 71.66 73.02L73.98 74.9C77.56 72.36 79.46 69.22 80.2 63.94H84.7C84.7 66.1 84.44 70.1 83.86 71.36C83.64 71.84 83.36 72.06 82.72 72.06C81.94 72.06 80.9 71.96 79.92 71.78L80.24 74.46C81.2 74.54 82.4 74.62 83.54 74.62C84.92 74.62 85.68 74.1 86.12 73.08C86.98 71.04 87.22 65.46 87.3 63.3C87.3 63.08 87.38 62.56 87.44 62.24L85.7 61.4C85.22 61.48 84.7 61.54 84.2 61.54H80.44C80.48 60.96 80.5 60.36 80.52 59.74C80.54 59.26 80.58 58.42 80.64 57.96ZM107.78 60.68L105.82 59.42C105.28 59.56 104.64 59.58 104.24 59.58H95C94.34 59.58 93.2 59.48 92.6 59.42V62.24C93.12 62.2 94.08 62.16 94.98 62.16H104.3C104.04 63.86 103.28 66.14 101.96 67.8C100.34 69.82 98.08 71.56 94.12 72.5L96.3 74.88C99.86 73.74 102.52 71.76 104.34 69.36C106 67.14 106.88 64.04 107.34 62.08C107.44 61.66 107.6 61.08 107.78 60.68ZM113.94 63.16V65.68C114.38 65.64 115.1 65.6 115.52 65.6H118.64V72.04H114.56C114.06 72.04 113.44 71.98 112.92 71.92V74.54C113.46 74.46 114.08 74.44 114.56 74.44H125.62C125.96 74.44 126.7 74.46 127.14 74.54V71.92C126.72 71.96 126.16 72.04 125.62 72.04H121.26V65.6H124.68C125.14 65.6 125.74 65.64 126.24 65.68V63.16C125.76 63.22 125.16 63.26 124.68 63.26H115.52C115.08 63.26 114.38 63.24 113.94 63.16Z" fill="#333333"/>
<path d="M28.08 28.872V33.716H27.142V28.872H28.08ZM29.34 35.2V27.388H25.882V36.306H27.142V35.2H29.34ZM38.314 35.648V34.22H34.576C34.632 33.842 34.66 33.436 34.688 33.016H34.226C35.542 32.036 35.878 30.496 35.99 28.354H36.886C36.83 30.608 36.746 31.448 36.592 31.686C36.494 31.812 36.396 31.84 36.256 31.84C36.088 31.84 35.822 31.84 35.486 31.798C35.682 32.134 35.808 32.68 35.822 33.072C36.298 33.086 36.732 33.072 36.998 33.016C37.32 32.96 37.572 32.848 37.796 32.554C38.104 32.134 38.202 30.888 38.272 27.584C38.286 27.43 38.286 27.052 38.286 27.052H33.862V28.354H34.618C34.562 29.838 34.38 30.916 33.666 31.686L33.624 31.14L32.434 31.308V30.454H33.582V29.292H32.434V28.494H33.624V27.29H32.434V26.226H31.048V27.29H29.718V28.494H31.048V29.292H29.844V30.454H31.048V31.504C30.446 31.588 29.9 31.658 29.438 31.7L29.676 33.086C30.656 32.904 31.846 32.68 33.064 32.442C33.218 32.61 33.4 32.82 33.526 33.016H33.022C32.994 33.45 32.966 33.856 32.91 34.22H29.536V35.648H32.532C32.042 36.726 31.006 37.426 28.724 37.874C29.046 38.21 29.466 38.826 29.606 39.232C32 38.686 33.232 37.832 33.904 36.6C34.66 37.986 35.808 38.84 37.712 39.232C37.922 38.784 38.356 38.112 38.706 37.776C36.844 37.524 35.682 36.81 35.038 35.648H38.314ZM42.556 29.95H44.208V28.718H47.652V29.95H49.318V28.718H52.216V27.192H49.318V26.156H47.652V27.192H44.208V26.156H42.556V27.192H39.812V28.718H42.556V29.95ZM42.374 35.494C41.856 36.432 40.862 37.342 39.826 37.902C40.232 38.154 40.96 38.672 41.282 39.008C42.318 38.308 43.452 37.174 44.11 35.984L42.374 35.494ZM41.954 33.576C43.62 32.792 45.146 31.756 45.972 30.72C46.896 31.812 48.548 32.848 50.186 33.576H46.77V32.19H45.09V33.576H41.954ZM50.424 35.116V33.674C50.9 33.884 51.362 34.052 51.81 34.192C52.034 33.73 52.37 33.1 52.748 32.68C50.522 32.176 48.282 31.056 46.756 29.292H45.048C43.928 30.734 41.744 32.162 39.364 32.848C39.658 33.212 40.036 33.842 40.204 34.276C40.666 34.122 41.128 33.94 41.59 33.744V35.116H45.09V39.218H46.77V35.116H50.424ZM47.806 36.306C48.786 37.09 50.004 38.21 50.55 38.91L52.006 37.944C51.376 37.216 50.116 36.152 49.164 35.452L47.806 36.306ZM63.682 37.244H58.712V35.34H63.682V37.244ZM61.848 29.558H60.154V33.87H57.088V39.218H58.712V38.7H63.682V39.204H65.39V33.87H61.848V32.344H66.216V30.874H61.848V29.558ZM61.302 27.766V26.156H59.566V27.766H54.582V31.294C54.582 33.31 54.484 36.25 53.336 38.252C53.728 38.434 54.47 38.91 54.778 39.19C56.038 37.006 56.248 33.548 56.248 31.294V29.348H66.398V27.766H61.302Z" fill="black" fill-opacity="0.2"/>
<g filter="url(#filter4_d)">
<rect x="25" y="155" width="325" height="45" rx="5" fill="#15923B"/>
<path d="M145.728 169.719H142.968C143.028 170.079 143.108 171.059 143.108 171.479C143.108 171.819 143.108 172.399 143.088 173.099C142.688 173.119 142.288 173.139 141.928 173.139C141.208 173.139 140.348 173.119 139.168 172.979L139.208 175.399C139.888 175.479 140.668 175.499 142.008 175.499C142.328 175.499 142.688 175.479 143.068 175.459C143.068 176.019 143.068 176.579 143.068 177.139C143.068 177.599 143.068 178.079 143.088 178.559C140.628 179.619 138.628 181.439 138.628 183.179C138.628 185.299 141.368 186.979 143.308 186.979C144.628 186.979 145.508 186.319 145.508 183.839C145.508 183.159 145.468 181.599 145.428 180.019C146.648 179.659 147.948 179.459 149.188 179.459C150.928 179.459 152.128 180.259 152.128 181.619C152.128 183.079 150.848 183.879 149.228 184.179C148.528 184.299 147.668 184.319 146.768 184.319L147.688 186.899C148.508 186.839 149.388 186.779 150.308 186.579C153.488 185.779 154.728 183.999 154.728 181.639C154.728 178.879 152.308 177.279 149.228 177.279C148.128 177.279 146.748 177.459 145.388 177.799C145.388 177.539 145.388 177.299 145.388 177.059C145.388 176.479 145.388 175.859 145.408 175.259C146.708 175.099 148.088 174.899 149.228 174.639L149.168 172.159C148.128 172.459 146.808 172.719 145.488 172.879C145.508 172.379 145.528 171.899 145.548 171.459C145.588 170.939 145.668 170.079 145.728 169.719ZM151.428 171.879L150.328 173.819C151.568 174.419 154.188 175.919 155.148 176.739L156.348 174.699C155.288 173.939 152.968 172.619 151.428 171.879ZM141.088 183.079C141.088 182.379 141.908 181.559 143.128 180.899C143.168 181.979 143.188 182.899 143.188 183.399C143.188 184.079 142.908 184.239 142.548 184.239C142.028 184.239 141.088 183.699 141.088 183.079ZM172.268 184.879H165.168V182.159H172.268V184.879ZM169.648 173.899H167.228V180.059H162.848V187.699H165.168V186.959H172.268V187.679H174.708V180.059H169.648V177.879H175.888V175.779H169.648V173.899ZM168.868 171.339V169.039H166.388V171.339H159.268V176.379C159.268 179.259 159.128 183.459 157.488 186.319C158.048 186.579 159.108 187.259 159.548 187.659C161.348 184.539 161.648 179.599 161.648 176.379V173.599H176.148V171.339H168.868ZM195.548 178.919C195.548 174.559 192.428 171.119 187.468 171.119C182.288 171.119 178.288 175.059 178.288 179.679C178.288 183.059 180.128 185.499 182.348 185.499C184.528 185.499 186.248 183.019 187.448 178.979C188.028 177.099 188.368 175.259 188.648 173.559C191.348 174.019 192.848 176.079 192.848 178.839C192.848 181.759 190.848 183.599 188.288 184.199C187.748 184.319 187.188 184.439 186.428 184.519L187.928 186.899C192.968 186.119 195.548 183.139 195.548 178.919ZM180.848 179.419C180.848 177.219 182.628 174.299 185.928 173.619C185.708 175.279 185.328 176.979 184.868 178.459C184.048 181.159 183.268 182.419 182.428 182.419C181.648 182.419 180.848 181.439 180.848 179.419ZM199.128 178.759C199.548 177.219 199.868 174.839 199.908 173.179L198.228 172.959C198.128 174.579 197.828 176.819 197.408 178.179L199.128 178.759ZM206.728 183.079V182.159H212.708V183.079H206.728ZM212.708 179.539V180.479H206.728V179.539H212.708ZM214.948 177.799H204.528V187.719H206.728V184.719H212.708V185.379C212.708 185.619 212.608 185.699 212.328 185.699C212.068 185.699 211.128 185.719 210.308 185.659C210.588 186.239 210.868 187.099 210.948 187.679C212.328 187.679 213.328 187.679 214.028 187.339C214.748 187.019 214.948 186.459 214.948 185.419V177.799ZM210.848 175.339V174.479H215.148V172.879H210.848V172.079H215.688V170.379H210.848V169.019H208.488V170.379H203.808V172.079H208.488V172.879H204.348V174.459C204.108 173.719 203.648 172.599 203.228 171.739L202.088 172.219V169.019H199.948V187.679H202.088V173.139C202.408 173.919 202.688 174.759 202.828 175.339L204.388 174.579L204.348 174.479H208.488V175.339H203.188V177.039H216.288V175.339H210.848ZM223.768 178.459H220.868L221.508 178.279C221.428 177.719 221.148 176.859 220.808 176.139H223.848C223.668 176.819 223.368 177.679 223.128 178.279L223.768 178.459ZM223.428 172.759H226.028V170.799H223.428V169.059H221.228V170.799H218.368V172.759H221.228V174.139H217.668V176.139H219.648L218.928 176.319C219.208 176.979 219.468 177.819 219.588 178.459H218.088V180.459H221.228V181.999H218.248V183.999H221.228V187.639H223.428V183.999H226.248V181.999H223.428V180.459H226.468V178.459H224.968C225.248 177.859 225.548 177.079 225.888 176.339L225.108 176.139H226.768V174.139H223.428V172.759ZM229.288 179.419C229.788 180.999 230.428 182.459 231.208 183.739C230.648 184.519 230.008 185.199 229.288 185.779V179.419ZM233.448 178.599C233.208 179.679 232.848 180.739 232.388 181.699C231.808 180.739 231.328 179.699 230.968 178.599H233.448ZM234.508 176.619L234.108 176.719H229.288V171.939H233.268V173.579C233.268 173.799 233.168 173.859 232.868 173.879C232.568 173.879 231.468 173.879 230.488 173.839C230.768 174.419 231.068 175.239 231.168 175.879C232.628 175.879 233.708 175.859 234.468 175.539C235.248 175.219 235.468 174.639 235.468 173.619V169.859H227.128V187.679H229.288V186.499C229.708 186.879 230.128 187.339 230.388 187.739C231.208 187.139 231.928 186.419 232.568 185.599C233.308 186.439 234.128 187.159 235.068 187.719C235.408 187.119 236.088 186.279 236.608 185.839C235.568 185.319 234.648 184.559 233.828 183.659C234.848 181.779 235.548 179.539 235.928 177.119L234.508 176.619Z" fill="white"/>
</g>
</g>
<defs>
<filter id="filter0_d" x="15" y="85" width="106" height="60" filterUnits="userSpaceOnUse" color-interpolation-filters="sRGB">
<feFlood flood-opacity="0" result="BackgroundImageFix"/>
<feColorMatrix in="SourceAlpha" type="matrix" values="0 0 0 0 0 0 0 0 0 0 0 0 0 0 0 0 0 0 127 0"/>
<feOffset/>
<feGaussianBlur stdDeviation="5"/>
<feColorMatrix type="matrix" values="0 0 0 0 0 0 0 0 0 0 0 0 0 0 0 0 0 0 0.1 0"/>
<feBlend mode="normal" in2="BackgroundImageFix" result="effect1_dropShadow"/>
<feBlend mode="normal" in="SourceGraphic" in2="effect1_dropShadow" result="shape"/>
</filter>
<filter id="filter1_d" x="116" y="85" width="106" height="60" filterUnits="userSpaceOnUse" color-interpolation-filters="sRGB">
<feFlood flood-opacity="0" result="BackgroundImageFix"/>
<feColorMatrix in="SourceAlpha" type="matrix" values="0 0 0 0 0 0 0 0 0 0 0 0 0 0 0 0 0 0 127 0"/>
<feOffset/>
<feGaussianBlur stdDeviation="5"/>
<feColorMatrix type="matrix" values="0 0 0 0 0 0 0 0 0 0 0 0 0 0 0 0 0 0 0.1 0"/>
<feBlend mode="normal" in2="BackgroundImageFix" result="effect1_dropShadow"/>
<feBlend mode="normal" in="SourceGraphic" in2="effect1_dropShadow" result="shape"/>
</filter>
<filter id="filter2_d" x="217" y="85" width="106" height="60" filterUnits="userSpaceOnUse" color-interpolation-filters="sRGB">
<feFlood flood-opacity="0" result="BackgroundImageFix"/>
<feColorMatrix in="SourceAlpha" type="matrix" values="0 0 0 0 0 0 0 0 0 0 0 0 0 0 0 0 0 0 127 0"/>
<feOffset/>
<feGaussianBlur stdDeviation="5"/>
<feColorMatrix type="matrix" values="0 0 0 0 0 0 0 0 0 0 0 0 0 0 0 0 0 0 0.1 0"/>
<feBlend mode="normal" in2="BackgroundImageFix" result="effect1_dropShadow"/>
<feBlend mode="normal" in="SourceGraphic" in2="effect1_dropShadow" result="shape"/>
</filter>
<filter id="filter3_d" x="318" y="85" width="106" height="60" filterUnits="userSpaceOnUse" color-interpolation-filters="sRGB">
<feFlood flood-opacity="0" result="BackgroundImageFix"/>
<feColorMatrix in="SourceAlpha" type="matrix" values="0 0 0 0 0 0 0 0 0 0 0 0 0 0 0 0 0 0 127 0"/>
<feOffset/>
<feGaussianBlur stdDeviation="5"/>
<feColorMatrix type="matrix" values="0 0 0 0 0 0 0 0 0 0 0 0 0 0 0 0 0 0 0.1 0"/>
<feBlend mode="normal" in2="BackgroundImageFix" result="effect1_dropShadow"/>
<feBlend mode="normal" in="SourceGraphic" in2="effect1_dropShadow" result="shape"/>
</filter>
<filter id="filter4_d" x="15" y="145" width="345" height="65" filterUnits="userSpaceOnUse" color-interpolation-filters="sRGB">
<feFlood flood-opacity="0" result="BackgroundImageFix"/>
<feColorMatrix in="SourceAlpha" type="matrix" values="0 0 0 0 0 0 0 0 0 0 0 0 0 0 0 0 0 0 127 0"/>
<feOffset/>
<feGaussianBlur stdDeviation="5"/>
<feColorMatrix type="matrix" values="0 0 0 0 0 0 0 0 0 0 0 0 0 0 0 0 0 0 0.1 0"/>
<feBlend mode="normal" in2="BackgroundImageFix" result="effect1_dropShadow"/>
<feBlend mode="normal" in="SourceGraphic" in2="effect1_dropShadow" result="shape"/>
</filter>
<clipPath id="clip0">
<path d="M0 0H375V220H0V0Z" fill="white"/>
</clipPath>
</defs>
</svg>
