<svg xmlns="http://www.w3.org/2000/svg" viewBox="0 0 748.264 748.264"><defs><style>.cls-1{fill:#e8e8e8;}.cls-2{fill:#231815;}</style></defs><title> アセット 160</title><g id="レイヤー_2" data-name="レイヤー 2"><g id="レイヤー_1-2" data-name="レイヤー 1"><circle class="cls-1" cx="374.132" cy="374.132" r="374.132"/><path class="cls-2" d="M131.331,427.956c16.939-21.312,22.4-29.144,29.143-41.894a7.852,7.852,0,0,1,2.55-1.275c.546,0,.729.365.729,2.186-4.19,12.568-7.1,20.582-12.386,33.333-5.465,12.932-8.925,21.492-10.018,24.589-.911,2.187-.911,2.551-2.186,4.008l-1.275.546a22.247,22.247,0,0,1-11.111-7.833c-2.368-3.1-4.553-7.65-4.553-9.835,0-.911.364-1.64.91-1.64l3.279,1.093h.182a5.332,5.332,0,0,0,2.55-1.457Zm5.282-51.365c2.914,3.643,5.464,8.379,5.464,10.746,0,2-1.821,3.461-4.189,3.461-4.918,0-9.29-4.189-14.754-14.207a6.761,6.761,0,0,1-.364-1.639c0-.547.546-.911,1.457-.911a5.621,5.621,0,0,1,1.639.182c4.554.911,5.1,1.093,10.018,2.186Zm0-50.819a162.183,162.183,0,0,0,24.407-3.643c-.728-2.368-1.275-4.736-1.457-5.464-1.092-4.736-1.639-6.921-2.367-7.832a51.933,51.933,0,0,0-4.919-4.918A4.246,4.246,0,0,1,151,301.183c0-1.639,1.64-2.55,4.554-2.55,3.1,0,6.922,1.275,10.564,3.278,2.733,1.64,3.461,2.733,3.643,5.465,0,.364.365,2.914.729,6.557.182.91.364,3.46.546,6.193a26.927,26.927,0,0,0,4.919-.729c1.639.182,2.732.546,2.732.911,0,.546-.547,1.093-1.822,1.821a24.574,24.574,0,0,0-5.465,2.55l.183,4.007.546,4.919v.727c0,2.734-1.821,6.741-3.278,6.741s-2.915-1.275-4.008-3.279c-.364-.546-1.092-3.643-2.55-9.29-10.564,4.555-20.764,8.2-22.4,8.2-4.19,0-11.658-6.922-11.658-10.747,0-1.093.729-2,1.457-2,.365,0,.365,0,3.461,1.822Zm15.3,22.951c5.1,4.007,6.922,6.921,6.922,10.746,0,2.55-.911,3.643-2.551,3.643-5.464,0-10.746-4.372-16.939-13.843a4.076,4.076,0,0,1-.546-1.821c-.182-.729.364-.911,2.732-.911,4.736.911,5.464,1.093,9.471,1.821Zm49.726,37.339c0-2,0-4.007-.182-8.378-6.193,1.275-7.833,1.639-16.393,3.278-.365,8.015-.729,13.479-.729,15.482l-.364,29.69c-.547,14.389-.911,21.858-.911,22.4a3.707,3.707,0,0,1-3.643,3.278c-2.185,0-4.918-2.914-7.286-8.015a18.29,18.29,0,0,1-1.821-6.739,16.324,16.324,0,0,0-.547-2.914,32.273,32.273,0,0,0,2.732-8.379c1.275-13.114,2.732-38.8,2.55-43.533,0-.546-.181-1.457-.363-2.732a32.547,32.547,0,0,1-.365-4.007c0-1.275.365-1.821,1.093-1.821a4.01,4.01,0,0,1,1.457.182c1.639.182,1.822.364,3.279,1.821,8.2-.728,9.835-1.092,21.311-3.826V359.287l-5.465.91-17.668,2.915-1.457.182c-6.011-2-8.561-3.279-8.561-4.189,0-.365.911-.729,2.368-.911,3.461-.729,6.011-1.093,6.922-1.275l9.471-1.275c.547,0,7.65-1.275,14.39-2.732.182-2.55.182-3.825.182-4.554,0-2.914,0-3.278-2.368-9.289a3.1,3.1,0,0,1-.182-1.275c0-1.275,1.275-2,2.914-2,2,0,2.732.364,7.832,4.007,3.461,2.368,4.189,3.643,4.189,6.01a48.109,48.109,0,0,1-.546,5.1c20.036-3.278,20.765-3.278,22.4-3.825,2-.364,3.1-.728,6.193-2.55l2-.364c8.925,2.186,9.654,2.368,11.475,3.825a5.309,5.309,0,0,1,2,3.643c0,2.55-2,3.1-14.208,3.1-5.282,0-12.386.547-30.054,2.55l-.182,6.011-.182,6.194c11.293-1.641,13.478-2.187,20.947-4.919h1.457c6.01,2.914,11.293,6.922,11.293,8.561a9.222,9.222,0,0,1-1.458,3.461l-.364,1.639V414.3c0,6.375,0,12.932.182,14.025.182,5.282.365,9.836.365,11.475,0,4.189-1.275,8.015-3.825,12.386-2,3.279-3.825,5.283-4.736,5.283s-1.821-1.093-3.643-4.008c-4.736-7.285-6.74-9.472-15.482-15.847-1.093-.91-1.822-1.639-1.822-2.185,0-.365.547-.911,1.822-1.093a64.083,64.083,0,0,0,11.11,1.275c3.279,0,3.279-.182,3.461-7.468.546-26.047.546-26.047.546-31.329,0-6.739-.181-11.839-.546-22.586l-2-1.275a154.182,154.182,0,0,0-17.668,2.732c0,7.286,0,7.832-.182,13.115,3.279-.911,3.643-1.275,6.193-3.1l1.275-.182c1.458.546,2.733.911,3.279,1.093,4.918,1.275,5.828,1.821,5.828,4.007a2.94,2.94,0,0,1-1.639,2.55c-1.093.728-1.821.911-5.464,1.275-4.189.546-7.468,1.093-9.654,1.457v12.387c3.1-1.459,3.461-1.641,6.74-3.28H220.4c7.285,1.639,9.289,2.914,9.289,5.1,0,2.55-2.368,3.825-6.557,3.825a58.737,58.737,0,0,0-11.111,1.093c.182,6.193.182,9.471.182,13.66,0,5.1-.182,10.018-.911,18.762l-.546,1.457c-1.093,3.278-3.1,5.828-4.372,5.828-1.821,0-3.824-3.1-4.189-6.192L202,447.082c-.364-13.116-.364-15.3-.546-30.237-1.822.364-3.461.729-4.007.911a31.533,31.533,0,0,1-5.283.911c-2,0-2.368-.183-4.736-1.275-1.821-.911-2.367-1.275-2.367-1.64s.546-.728,1.457-1.092a87.01,87.01,0,0,1,15.118-3.643V398.266l-3.279.911-4.007,1.092h-1.275c-2.915-.728-6.375-2.367-6.375-2.732s.364-.728,1.093-1.093a33.995,33.995,0,0,1,5.647-1.821c3.46-1.093,3.824-1.093,8.2-2.55ZM223.5,303c-4.007,5.829-4.553,6.74-8.56,12.022a34.442,34.442,0,0,0,14.571-3.643c1.457-.729,2.915-1.457,4.372-2.368a9.087,9.087,0,0,1,2.185-.546c7.65,1.092,12.568,4.007,12.568,7.285,0,1.457-1.457,2.368-3.825,2.732-8.2,1.093-25.682,2.55-34.243,2.732-5.282,6.922-6.193,8.015-11.657,14.573a12.712,12.712,0,0,1-3.1,1.092c-.91,0-.91-.182-.91-2.914,6.375-12.2,14.389-31.875,14.389-35.336a7.494,7.494,0,0,0-.911-2.914,11.506,11.506,0,0,1-1.275-3.462c0-.911.911-1.457,2.732-1.457.364,0,1.639.182,3.1.364,3.279.364,8.925,5.83,10.929,10.565Zm19.672,34.972c0,2.55-.911,3.825-2.914,3.825-3.643,0-9.108-2.914-17.668-9.653a5.1,5.1,0,0,1-.911-1.639c0-1.094,3.278-1.276,14.936-1.276A8.811,8.811,0,0,1,243.168,337.976Z"/><path class="cls-2" d="M318.577,338.523c23.68-4.372,36.794-6.557,50.455-8.562l30.6-4.371c1.639-.182,6.739-1.093,14.571-2.368a22.407,22.407,0,0,0,7.832-2.732l1.457.364c9.654,6.557,20.947,16.576,20.947,18.762,0,.728-.728,2.185-1.821,4.007a8.657,8.657,0,0,0-1.457,3.278l-.547,2.368c-1.639,7.1-3.278,15.118-3.46,16.211l-4.554,22.4c-2.368,11.657-4.19,19.853-8.379,36.429-2.368,6.193-6.74,11.839-9.29,11.839-1.639,0-1.639,0-10.564-14.207a66.824,66.824,0,0,0-11.293-.911c-8.561,0-13.3.365-34.426,3.1l-10.928,1.457c-3.643.546-9.836,1.275-17.122,2.186-2.368,2.732-3.643,3.825-5.1,3.825-2.185,0-4.554-2.368-8.379-9.107l-.182-1.275c-1.821-11.657-3.825-23.862-5.646-35.883-2.186-13.662-2.732-16.758-6.011-34.79l-.728-2.914a16.517,16.517,0,0,0-1.457-3.825l-2.187-4.372a8.371,8.371,0,0,1-.728-2.367c0-.911.546-1.093,3.1-1.093a28.35,28.35,0,0,1,8.2,2.55h7.1Zm20.219,3.46L322.4,344.716l-5.464-.547a10.928,10.928,0,0,1,1.275,3.643l.547,1.457c3.1,18.761,4.372,26.594,6.193,39.526l2.186,15.846c.364,2.55,1.275,8.2,2.367,16.029l16.94-2.732,16.393-2.732v-11.84c0-8.925,0-9.654-.182-23.132a207.81,207.81,0,0,0-21.676,5.282l-2-.364c-3.461-.729-5.282-1.457-6.375-2.732l-.547-.365c-.182-.182-.91-.728-1.639-1.275-.182-.182-.364-.364-.182-.364-.182,0,.182-.182.546-.182l1.458-.546c5.646-1.275,9.653-2.186,14.936-3.279,6.01-1.457,7.285-1.821,15.3-4.007-.547-12.933-.547-14.755-.911-27.5l-.911-2.915-1.093-3.46Zm72.311,70.855c6.012-22.951,10.565-49.908,13.115-76.137-2.368-3.1-2.732-3.46-6.375-4.553-7.1.727-13.661,1.275-15.847,1.457-8.2.727-13.479,1.093-14.753,1.275-2,.182-8.015.911-14.39,1.821a13.26,13.26,0,0,1,2.55,3.279l.728,1.457c-.182,13.114-.182,15.118-.546,27.869l3.643-1.094c4.007-.911,4.007-.911,7.286-4.372l1.457-.546c11.84,1.639,18.215,4.371,18.215,7.833,0,1.457-1.275,2.368-3.825,2.914-10.565,1.639-12.933,2-26.776,3.825l-.182,9.654-.182,9.471c0,2.368-.182,9.107-.547,16.394,10.2-1.275,10.929-1.458,20.947-2.915l1.639.182a80.189,80.189,0,0,1,11.111,5.283Z"/><path class="cls-2" d="M587.244,295.353c8.2,3.826,14.935,8.562,14.935,10.93,0,.911,0,.911-2.914,3.825l-2.55,2.914c-4.371,7.468-5.1,8.561-9.107,16.393a5.261,5.261,0,0,1,.911,2.551c0,1.093-.911,1.821-3.1,2.185-13.661.181-19.853,1.093-57.922,7.65-10.018,51.183-22.951,75.955-53,101.272a4.911,4.911,0,0,1-2,.911c-.364,0-.546-.182-.546-.728a3.555,3.555,0,0,1,.182-1.275c25.5-31.875,38.068-65.754,41.529-111.656v-2.55a16.8,16.8,0,0,1-.546-3.278,16.421,16.421,0,0,0-.547-3.461,19.863,19.863,0,0,1-1.457-2.732,2.939,2.939,0,0,1-.546-1.639c0-1.457.91-1.639,5.1-1.639,6.01,1.639,8.56,3.1,11.839,7.285a7.675,7.675,0,0,1,2,4.554v1.275l-.365,2.732-.546,3.826c6.193-1.275,12.2-2.368,13.661-2.55L555,329.961c.364,0,4.918-1.093,10.565-2.186,1.457-.364,6.192-1.275,10.928-2.185,2.368-8.561,2.732-10.018,4.736-18.761l-.365-.364-19.853,3.643-15.665,3.1c-2.55.547-7.286,1.457-14.389,2.732H529.5c-7.286-1.457-13.3-4.371-13.3-6.192,0-.911.911-1.093,3.825-1.093,2.186.182,3.825.364,4.918.364,4.736,0,4.736,0,44.444-8.561,8.924-2,11.474-2.732,16.939-5.1Zm-9.654,47.9c6.922.911,9.654,1.822,12.386,3.825,2,1.275,3.1,2.732,3.1,4.007,0,1.64-1.639,2.733-4.917,3.1-11.84,1.093-13.479,1.275-25.137,2.732,1.822,4.918,2.368,6.739,2.368,8.743a2.485,2.485,0,0,1-.729,2l-1.457,1.457c-7.468,7.287-8.56,8.38-16.575,15.665l.183.365c5.464-.729,9.107-1.275,10.564-1.457l14.025-2.55c.911-.183,8.014-1.275,15.118-2.368a52.257,52.257,0,0,1-8.014-10.019,5.949,5.949,0,0,1-1.093-2.732c0-.546.364-.729.91-.729a7.153,7.153,0,0,1,2.55.547,152.017,152.017,0,0,1,16.394,8.015l.546.729c4.553,6.374,6.011,9.653,6.011,13.3,0,2.186-1.093,3.278-2.915,3.278-3.46,0-6.739-2.55-11.475-8.742l-14.753,4.189c-2.55.728-4.372,1.275-9.29,2.732a17.891,17.891,0,0,1,3.279,6.739v1.639l-.182,4.554c0,.729,0,2.186-.182,5.282a14.875,14.875,0,0,1,2.55-.729l2.185-.364a21.388,21.388,0,0,0,5.465-2.55c.91-.546,1.821-1.093,2.55-1.457l1.821-1.093.728-.182c9.472,1.275,16.029,4.189,16.029,7.469,0,1.639-.91,2.55-3.642,3.461-12.932,1.457-14.936,1.639-27.868,3.642-.547,10.018-.547,11.475-.911,21.311,17.122-1.822,22.95-2.55,25.136-3.279,2.55-.728,4.371-1.639,8.925-4.371h1.092c14.208,3.1,18.033,4.553,21.13,7.468,1.639,1.639,2.55,3.278,2.55,4.917,0,2.733-1.64,4.191-5.1,4.191-13.66-1.458-19.671-1.823-28.961-1.823-22.4,0-51.547,3.28-80.872,9.108h-1.275c-7.65-3.1-9.836-4.371-9.836-5.646,0-.73,1.275-1.094,3.1-1.094,24.226-4.007,28.051-4.553,52.823-8.014V417.756c-10.747,1.821-12.2,2-22.768,4.371h-.911c-4.189-1.093-8.561-3.278-8.561-4.553,0-.365.546-.729,1.639-.911l15.665-3.278,14.753-3.1V397.537c-.364-2.55-.546-2.914-2-4.735-8.379,2.55-9.654,2.914-18.033,5.1a10.64,10.64,0,0,1-3.642.728c-2.915,0-5.647-2-8.561-6.375a2.958,2.958,0,0,1-.729-1.639c0-.364.364-.729,1.275-1.093,3.461-1.275,6.74-2.186,7.833-2.55,7.1-2.186,8.2-2.732,10.2-6.011,3.1-4.735,6.012-10.383,10.565-19.672.182-1.093.182-1.275.364-2.55l-9.107,2.186-8.379,2-.91.182c-6.375-2.368-8.2-3.461-8.2-4.372,0-.728,1.093-1.093,3.1-1.093,17.121-4.189,33.514-8.378,38.8-9.835a22.141,22.141,0,0,0,3.46-1.821,42.151,42.151,0,0,1,4.736-2.733Z"/></g></g></svg>