<svg width="26" height="26" viewBox="0 0 26 26" fill="none" xmlns="http://www.w3.org/2000/svg">
<path d="M13 1C10.6266 1 8.30653 1.70379 6.33313 3.02238C4.35974 4.34097 2.82167 6.21513 1.91342 8.40786C1.00518 10.6006 0.767557 13.0134 1.2306 15.3412C1.69365 17.669 2.83657 19.8072 4.51482 21.4854C6.19308 23.1636 8.3313 24.3065 10.6591 24.7695C12.9869 25.2324 15.3997 24.9948 17.5924 24.0865C19.7851 23.1782 21.6592 21.6401 22.9778 19.6666C24.2963 17.6932 25.0001 15.3731 25 12.9997C24.9964 9.81825 23.7309 6.76814 21.4813 4.51853C19.2316 2.26893 16.1815 1.00355 13 1V1ZM2.81921 13.8889H6.32589C6.39832 15.2046 6.64028 16.5054 7.04576 17.7591H3.9576C3.32299 16.5582 2.93588 15.2422 2.81921 13.8889V13.8889ZM13.8892 6.55539V3.48034C14.8734 4.36051 15.7023 5.40016 16.341 6.55568L13.8892 6.55539ZM17.1521 8.33325C17.5973 9.54769 17.865 10.8199 17.947 12.1108H13.8892V8.33325H17.1521ZM12.1111 3.53422V6.55625H9.72111C10.3467 5.42467 11.1541 4.4037 12.1111 3.53422V3.53422ZM12.1111 8.33325V12.1108H8.11231C8.19543 10.8198 8.46429 9.54751 8.91058 8.33325H12.1111ZM6.32903 12.1108H2.81921C2.9329 10.7925 3.30355 9.50916 3.91027 8.33325H7.03322C6.64054 9.5578 6.40394 10.827 6.32903 12.1108V12.1108ZM8.1086 13.8889H12.1111V17.7591H8.92597C8.46427 16.5164 8.18884 15.2122 8.1086 13.8889V13.8889ZM12.1111 19.537V22.5083C11.1671 21.6527 10.3689 20.6492 9.74762 19.537H12.1111ZM13.8892 22.559V19.537H16.3125C15.678 20.6715 14.859 21.6925 13.8892 22.5581V22.559ZM13.8892 17.76V13.8889H17.9504C17.87 15.2122 17.5947 16.5163 17.1333 17.7591L13.8892 17.76ZM19.7337 13.8898H23.1808C23.0642 15.2431 22.677 16.5592 22.0421 17.76H19.0127C19.4181 16.5059 19.6601 15.2049 19.7326 13.8889L19.7337 13.8898ZM19.7311 12.1108C19.6567 10.8271 19.4209 9.55796 19.0292 8.33325H22.09C22.6965 9.50924 23.0671 10.7925 23.1808 12.1108H19.7311ZM20.9285 6.55539H18.3342C17.7806 5.37381 17.0633 4.27613 16.2033 3.29474C18.0567 3.90961 19.696 5.04082 20.9285 6.55539V6.55539ZM9.88333 3.26538C9.0132 4.2547 8.28773 5.3624 7.72857 6.55539H5.07289C6.32438 5.01651 7.99537 3.87366 9.88333 3.26538V3.26538ZM5.14901 19.537H7.7508C8.29411 20.687 8.99328 21.7567 9.82859 22.7158C8.00148 22.116 6.37989 21.0145 5.14901 19.537V19.537ZM16.2564 22.687C17.0806 21.7352 17.7712 20.6754 18.3091 19.537H20.8521C19.6403 20.991 18.0496 22.0813 16.2564 22.687V22.687Z" fill="#15923B"/>
<path fill-rule="evenodd" clip-rule="evenodd" d="M13 0.899902C16.208 0.903478 19.2835 2.17939 21.5519 4.44773C23.8203 6.71606 25.0963 9.79156 25.0999 12.9995C25.1 15.3927 24.3904 17.7322 23.0608 19.7221C21.7313 21.712 19.8416 23.2629 17.6306 24.1788C15.4196 25.0946 12.9867 25.3343 10.6395 24.8674C8.2923 24.4006 6.13626 23.2482 4.44402 21.556C2.75177 19.8638 1.59933 17.7078 1.13243 15.3606C0.665523 13.0134 0.905126 10.5805 1.82094 8.3695C2.73675 6.1585 4.28764 4.26872 6.27748 2.93914C8.23959 1.62809 10.5416 0.919798 12.8999 0.900315L13 0.899902ZM12.9998 1.0999C10.6463 1.09991 8.34553 1.79784 6.38859 3.10543C4.43164 4.41303 2.90639 6.27158 2.00571 8.44603C1.10504 10.6205 0.869397 13.0132 1.32858 15.3216C1.78777 17.63 2.92116 19.7503 4.58544 21.4146C6.24971 23.0788 8.37011 24.2121 10.6785 24.6713C12.9869 25.1304 15.3796 24.8947 17.554 23.994C19.7285 23.0933 21.587 21.568 22.8945 19.611C24.2021 17.654 24.8999 15.3533 24.8999 12.9997C24.8963 9.84475 23.6414 6.82003 21.4105 4.58915C19.1795 2.35828 16.1548 1.10343 12.9998 1.0999ZM15.8856 3.08392L16.2347 3.19973C18.1062 3.8206 19.7615 4.96284 21.006 6.49217L20.9284 6.55529V6.65529H18.2705L18.2435 6.59772C17.6939 5.42464 16.9818 4.33487 16.128 3.36055L15.8856 3.08392ZM20.7153 6.45529C19.591 5.13119 18.1463 4.11822 16.5203 3.51226C17.2662 4.41073 17.8969 5.39939 18.3975 6.45529H20.7153ZM5.28587 6.45529H7.66506C8.17196 5.38643 8.81175 4.38628 9.56896 3.47847C7.90727 4.0805 6.4305 5.10633 5.28587 6.45529ZM9.88323 3.26528L9.85256 3.1701C7.94619 3.78432 6.25891 4.93831 4.99521 6.4922L4.86258 6.65529H7.79204L7.81902 6.59773C8.37416 5.4133 9.09443 4.31355 9.95832 3.33132L9.88323 3.26528ZM13.7891 3.25665L13.9558 3.4057C14.9483 4.29335 15.7842 5.34185 16.4285 6.5072L16.5105 6.6556L13.7891 6.65528V3.25665ZM13.9891 3.70676V6.4553L16.17 6.45556C15.5858 5.43441 14.8505 4.50766 13.9891 3.70676ZM9.89197 6.45615H12.011V3.7631C11.1763 4.55174 10.4622 5.45916 9.89197 6.45615ZM12.111 3.53413L12.0437 3.46011C11.0786 4.33696 10.2644 5.36659 9.63349 6.50777L9.55147 6.65615H12.211V3.53413H12.111ZM3.84924 8.23316H7.1702L7.12834 8.36369C6.73824 9.58023 6.50319 10.8411 6.42876 12.1165L6.32893 12.1107V12.2107H2.71011L2.71948 12.1021C2.83429 10.7708 3.2086 9.47481 3.8213 8.2873L3.84924 8.23316ZM6.23489 12.0107C6.31323 10.7962 6.5354 9.59525 6.89668 8.43316H3.97131C3.40348 9.55026 3.0499 10.7637 2.9287 12.0107H6.23489ZM8.84069 8.23316H12.211V12.2107H8.00556L8.01242 12.1043C8.09616 10.8037 8.36702 9.52194 8.81662 8.29866L8.84069 8.23316ZM8.98046 8.43316C8.56386 9.58517 8.30775 10.789 8.21928 12.0107H12.011V8.43316H8.98046ZM13.7891 8.23316H17.2219L17.2459 8.29874C17.6944 9.5222 17.9641 10.8039 18.0467 12.1043L18.0535 12.2107H13.7891V8.23316ZM13.9891 8.43316V12.0107H17.8399C17.7525 10.7891 17.4975 9.58533 17.082 8.43316H13.9891ZM18.8922 8.23316H22.1509L22.1788 8.28732C22.7913 9.4749 23.1655 10.7708 23.2803 12.1021L23.2897 12.2107H19.6367L19.6312 12.1165C19.5573 10.8412 19.323 9.58032 18.9339 8.36362L18.8922 8.23316ZM19.1655 8.43316C19.5258 9.59539 19.7473 10.7963 19.8251 12.0107H23.0711C22.9499 10.7637 22.5964 9.55033 22.0288 8.43316H19.1655ZM19.767 13.7897L19.6429 13.6965L19.6326 13.8833C19.5606 15.1907 19.3202 16.4833 18.9174 17.7291L18.8752 17.8599H22.1023L22.1304 17.8066C22.7715 16.594 23.1626 15.2649 23.2803 13.8983L23.2897 13.7897H19.767ZM19.8268 13.9897C19.7504 15.236 19.5229 16.4685 19.1494 17.6599H21.9816C22.5768 16.5175 22.9466 15.2715 23.0711 13.9897H19.8268ZM2.81911 13.8888L2.71948 13.8974C2.8373 15.264 3.22823 16.593 3.86908 17.8057L3.89724 17.859H7.18311L7.14081 17.7282C6.73797 16.4827 6.4976 15.1904 6.42564 13.8833L6.42044 13.7888H2.81911V13.8888ZM6.23144 13.9888H2.9287C3.05323 15.2706 3.42298 16.5166 4.01796 17.659H6.90886C6.53522 16.4676 6.30774 15.2352 6.23144 13.9888ZM8.1085 13.8888L8.00869 13.8949C8.08952 15.228 8.367 16.5419 8.83214 17.7938L8.85635 17.859H12.211V13.7888H8.1085V13.8888ZM12.011 13.9888H8.21517C8.30123 15.2428 8.56395 16.4784 8.99559 17.659H12.011V13.9888ZM13.7891 13.7888H18.0566L18.0501 13.8949C17.9691 15.228 17.6917 16.5418 17.227 17.7938L17.2028 17.859L13.7891 17.8599V13.7888ZM13.9891 13.9888V17.6598L17.0635 17.659C17.4948 16.4783 17.7574 15.2428 17.8436 13.9888H13.9891ZM5.14892 19.5369L5.07208 19.6009C6.31496 21.0928 7.95237 22.2051 9.7973 22.8107L10.1425 22.924L9.9039 22.65C9.07463 21.6978 8.38051 20.6359 7.84112 19.4942L7.81406 19.4369H5.14892V19.5369ZM7.68751 19.6369H5.36535C6.48626 20.9258 7.91381 21.9105 9.51505 22.5007C8.79169 21.6244 8.17788 20.6627 7.68751 19.6369ZM9.57712 19.4369H12.211V22.7338L12.0438 22.5823C11.0918 21.7194 10.2868 20.7073 9.66022 19.5856L9.57712 19.4369ZM9.91937 19.6369C10.4846 20.6147 11.1892 21.505 12.011 22.2796V19.6369H9.91937ZM13.7891 19.4369H16.483L16.3997 19.5857C15.7597 20.7299 14.9338 21.7596 13.9557 22.6327L13.8899 22.5589H13.7891V19.4369ZM13.9891 22.3318V19.6369H16.1405C15.5614 20.6373 14.8363 21.5456 13.9891 22.3318ZM18.2456 19.4369H21.0656L20.9289 19.6009C19.7052 21.0691 18.099 22.17 16.2883 22.7817L16.2563 22.6869L16.1807 22.6214C16.999 21.6765 17.6846 20.6244 18.2186 19.4942L18.2456 19.4369ZM16.5718 22.4677C18.1385 21.8742 19.5349 20.902 20.6355 19.6369H18.3722C17.888 20.6498 17.2834 21.6002 16.5718 22.4677Z" fill="#15923B"/>
</svg>
